# Blender3D v244 OBJ File: mictorio.blend
# www.blender3d.org
mtllib mictorio.mtl
o Cube
v -1.425042 10.898888 -1.423142
v -1.940179 17.211405 -1.423142
v -1.425045 10.898890 1.642042
v -1.940175 17.211409 1.642042
v 0.089896 10.710079 -1.423142
v 0.089896 8.902731 1.642042
v -3.389003 13.153656 -1.423142
v -3.389002 13.153660 1.642042
v 0.089896 8.845251 0.420105
v -1.679049 9.593843 1.642042
v -1.679047 9.593840 -1.423141
v -2.426764 10.070036 -1.423141
v -2.426767 10.070040 1.642041
v -3.943544 13.243503 1.642041
v -3.943545 13.243499 -1.423142
v -1.786402 18.911057 1.642041
v -4.040135 11.954616 1.642041
v -1.786406 18.911053 -1.423142
v -4.040133 11.954613 -1.423142
v -1.025055 19.285107 1.642041
v -1.025059 19.285103 -1.423143
v -1.583417 16.359299 1.199547
v -0.926762 10.299977 -0.289332
v 0.089896 9.710667 -0.289332
v -2.742772 13.112273 -0.289332
v 2.922564 13.112273 -0.289332
v 1.106554 10.299977 -0.289332
v 1.763209 16.359299 1.199547
v 1.204851 19.285103 -1.423143
v 1.204847 19.285107 1.642041
v 4.219925 11.954613 -1.423142
v 1.966199 18.911053 -1.423142
v 4.219928 11.954616 1.642041
v 1.966195 18.911057 1.642041
v 4.123337 13.243499 -1.423142
v 4.123337 13.243503 1.642041
v 2.606560 10.070040 1.642041
v 2.606557 10.070036 -1.423141
v 1.858839 9.593840 -1.423141
v 1.858842 9.593843 1.642042
v 3.568795 13.153660 1.642042
v 3.568795 13.153656 -1.423142
v 2.119967 17.211409 1.642042
v 1.829346 11.028195 1.642042
v 2.119971 17.211407 -1.423142
v 1.604834 10.898888 -1.423142
v 0.089896 9.234495 -1.423142
vn -0.000000 -0.000000 -1.000000
vn 0.995932 -0.090105 -0.000001
vn -0.914877 0.403734 0.000001
vn -0.000001 0.000000 -1.000000
vn 0.000001 0.000000 -1.000000
vn -0.914877 -0.403734 -0.000001
vn 0.995932 0.090105 0.000001
vn 0.000000 0.000000 1.000000
vn -0.243060 -0.622127 0.744231
vn -0.389724 -0.920932 0.000001
vn -0.537177 -0.843469 0.000001
vn -0.000001 0.000000 1.000000
vn -0.997204 0.074731 -0.000000
vn -0.934593 0.355718 0.000000
vn -0.759651 -0.650330 0.000000
vn -0.440956 0.897529 -0.000001
vn 0.000001 0.000000 1.000000
vn 0.440956 0.897529 -0.000001
vn 0.759651 -0.650330 0.000000
vn 0.934593 0.355718 0.000000
vn 0.997204 0.074731 -0.000001
vn 0.537177 -0.843469 0.000001
vn 0.389724 -0.920932 0.000001
vn 0.239266 -0.612415 0.753458
vn 0.000000 1.000000 -0.000001
vn 0.194944 -0.959650 -0.202652
vn -0.194944 -0.959650 -0.202652
vn 0.250908 0.816324 0.520250
vn 0.780160 0.581990 -0.229429
vn 0.914405 -0.263931 -0.306925
vn -0.914406 -0.263931 -0.306925
vn -0.780160 0.581990 -0.229429
vn -0.250908 0.816324 0.520250
vn 0.000000 -0.951063 -0.308999
vn 0.310324 0.258420 -0.914832
vn -0.310324 0.258420 -0.914832
vn 0.000000 0.218525 -0.975831
usemtl Material
s 1
f 1//1 11//1 12//1 19//1
f 2//1 7//1 15//1 18//1
f 7//1 1//1 19//1 15//1
f 4//2 2//2 18//2 16//2
f 2//3 4//3 20//3 21//3
f 2//4 18//4 21//4
f 45//5 29//5 32//5
f 45//6 43//6 30//6 29//6
f 43//7 45//7 32//7 34//7
f 42//1 35//1 31//1 46//1
f 45//1 32//1 35//1 42//1
f 46//1 31//1 38//1 39//1
f 2//1 21//1 29//1 45//1
f 4//8 6//8 43//8
f 1//1 5//1 47//1 11//1
f 5//1 46//1 39//1 47//1
f 3//8 6//8 4//8 8//8
f 41//8 43//8 6//8 44//8
usemtl Borda
f 6//9 3//9 10//9 9//9
f 11//10 9//10 10//10
f 11//11 10//11 13//11 12//11
f 10//8 3//8 17//8 13//8
f 8//12 4//12 16//12 14//12
f 3//8 8//8 14//8 17//8
f 17//13 14//13 15//13 19//13
f 14//14 16//14 18//14 15//14
f 17//15 19//15 12//15 13//15
f 16//16 20//16 21//16 18//16
f 4//17 20//17 16//17
f 43//12 34//12 30//12
f 34//18 32//18 29//18 30//18
f 33//19 37//19 38//19 31//19
f 36//20 35//20 32//20 34//20
f 33//21 31//21 35//21 36//21
f 44//8 33//8 36//8 41//8
f 41//17 36//17 34//17 43//17
f 40//8 37//8 33//8 44//8
f 39//22 38//22 37//22 40//22
f 39//23 40//23 9//23
f 6//24 9//24 40//24 44//24
f 20//25 30//25 29//25 21//25
f 4//8 43//8 30//8 20//8
f 9//26 47//26 39//26
f 9//27 11//27 47//27
usemtl Interior
f 5//28 1//28 23//28 24//28
f 1//29 7//29 25//29 23//29
f 7//30 2//30 22//30 25//30
f 42//31 26//31 28//31 45//31
f 46//32 27//32 26//32 42//32
f 5//33 24//33 27//33 46//33
f 2//34 45//34 28//34 22//34
usemtl Interior.001
f 22//35 24//35 23//35 25//35
f 28//36 26//36 27//36 24//36
f 22//37 28//37 24//37
