# Blender3D v244 OBJ File: privada.blend
# www.blender3d.org
mtllib privada.mtl
o Cube
v -1.753271 9.989038 3.688923
v -2.394701 9.989037 -4.171196
v -2.069552 6.172382 5.313917
v 0.133075 9.989038 3.924020
v 0.133075 6.172382 5.721092
v -4.198724 9.989037 0.881367
v 0.133075 8.080709 6.326366
v -2.069548 9.989037 5.313921
v -3.000580 9.989038 4.720978
v -3.000583 6.172382 4.720975
v -4.889218 6.172382 0.769494
v -4.889219 9.989037 0.769498
v -2.203224 6.172382 -6.287539
v -5.009491 6.172382 2.374368
v -2.203229 9.989037 -6.287535
v -5.009487 9.989037 2.374372
v -1.255222 6.172383 -6.753294
v -1.255226 9.989038 -6.753289
v -1.950474 3.623791 -3.623124
v -1.132830 5.477691 3.921724
v 0.133075 5.477691 4.655512
v -3.394061 5.477691 0.419955
v 3.660211 5.477691 0.419955
v 1.398981 5.477691 3.921724
v 2.216624 3.623791 -3.623125
v 1.521377 9.989038 -6.753289
v 1.521372 6.172383 -6.753294
v 5.275637 9.989037 2.374372
v 2.469379 9.989037 -6.287535
v 5.275640 6.172382 2.374368
v 2.469374 6.172382 -6.287539
v 5.155370 9.989037 0.769498
v 5.155369 6.172382 0.769494
v 3.266733 6.172382 4.720975
v 3.266729 9.989038 4.720978
v 2.335699 9.989037 5.313921
v 2.498274 6.172382 5.191209
v 4.464875 9.989037 0.881367
v 2.660851 9.989037 -4.171196
v 2.019421 9.989038 3.688923
v 0.133075 9.989038 5.761364
v -2.446385 0.141109 -0.463712
v 2.712536 0.141109 -0.463713
v -0.675012 0.141113 -6.775038
v 0.941163 0.141113 -6.775038
v 2.517148 0.141110 -5.421283
v -2.250998 0.141110 -5.421281
v 0.971739 17.223131 -8.679947
v 0.971739 15.310083 -8.679945
v -0.941309 15.310085 -8.679945
v -0.941308 17.223133 -8.679947
v 0.971739 17.223131 -6.766898
v 0.971738 15.310083 -6.766898
v -0.941309 15.310085 -6.766898
v -0.941308 17.223131 -6.766898
v 0.414677 16.586660 -6.282064
v 0.546740 16.093796 -6.282064
v 0.185938 15.732994 -6.282064
v -0.306926 15.865057 -6.282064
v -0.438989 16.357922 -6.282064
v -0.078188 16.718723 -6.282064
v 0.053875 16.225859 -6.282064
v 0.546740 16.093796 -6.792315
v 0.414677 16.586660 -6.792315
v 0.185938 15.732994 -6.792315
v -0.306927 15.865057 -6.792315
v -0.438989 16.357922 -6.792315
v -0.078187 16.718723 -6.792315
vn 0.000000 -1.000000 0.000000
vn 0.000002 -1.000000 0.000000
vn -0.000002 -1.000000 0.000000
vn -0.000000 -1.000000 -0.000001
vn 0.000000 -0.003605 0.999994
vn -0.582793 0.082324 0.808440
vn 0.582794 0.082324 0.808439
vn 0.000000 1.000000 0.000001
vn 0.000001 1.000000 0.000000
vn -0.000001 1.000000 0.000000
vn -0.928822 0.368714 0.036607
vn -0.933703 0.043646 0.355379
vn 0.933703 0.043646 0.355379
vn -0.000000 0.715937 -0.698165
vn 0.643068 0.532340 -0.550525
vn 0.226715 0.666323 -0.710362
vn -0.227977 0.661646 -0.714318
vn 0.929081 0.367166 0.044690
vn -0.778315 0.505808 -0.372000
vn 0.000000 0.000000 -1.000000
vn -0.965926 -0.258819 0.000000
vn -0.707107 0.707107 0.000000
vn 0.258820 0.965926 -0.000000
vn 0.965926 0.258819 -0.000000
vn 0.707107 -0.707107 0.000000
vn -0.258819 -0.965926 -0.000000
vn 0.417647 0.000001 -0.908609
vn 0.537177 0.000000 -0.843470
vn 0.997204 -0.000000 0.074731
vn 0.934593 0.000000 0.355718
vn 0.759651 -0.000000 -0.650330
vn 0.440957 -0.000000 0.897528
vn -0.310324 -0.914832 0.258420
vn 0.310324 -0.914832 0.258420
vn -0.440956 -0.000000 0.897529
vn -0.759652 -0.000000 -0.650330
vn -0.934593 0.000000 0.355718
vn -0.997204 -0.000000 0.074731
vn -0.530355 0.002333 -0.847773
vn -0.425453 0.010972 -0.904914
vn 0.000000 -0.975831 0.218526
vn 0.000000 -0.000001 1.000000
vn -0.191190 -0.278654 -0.941169
vn 0.191190 -0.278654 -0.941169
vn 0.173534 0.297745 -0.938740
vn -0.208840 0.295666 -0.932184
vn 0.000000 0.000001 1.000000
vn -1.000000 0.000000 -0.000000
vn 1.000000 -0.000000 0.000000
vn 0.002480 0.045177 -0.998976
vn 0.052122 0.002861 -0.998637
vn 0.021019 -0.021019 -0.999558
vn -0.002874 -0.052358 -0.998624
vn -0.045355 -0.002490 -0.998968
vn -0.018580 0.018580 -0.999655
vn -0.292817 0.081681 0.952673
vn -0.793607 -0.140348 0.592022
vn -0.942909 -0.110771 -0.314089
vn 0.942909 -0.110771 -0.314089
vn 0.793607 -0.140348 0.592022
vn 0.292817 0.081681 0.952673
vn -0.000000 -0.085786 -0.996314
usemtl Material
s 1
f 1//1 8//1 9//1 16//1
f 2//1 6//1 12//1 15//1
f 6//1 1//1 16//1 12//1
f 2//2 15//2 18//2
f 39//3 26//3 29//3
f 38//1 32//1 28//1 40//1
f 39//1 29//1 32//1 38//1
f 40//1 28//1 35//1 36//1
f 2//4 18//4 26//4 39//4
f 1//1 4//1 41//1 8//1
f 4//1 40//1 36//1 41//1
f 27//5 17//5 44//5 45//5
f 31//6 27//6 45//6 46//6
f 17//7 13//7 47//7 44//7
f 42//8 43//8 45//8 44//8
f 43//9 46//9 45//9
f 42//10 44//10 47//10
f 33//11 46//11 43//11
f 33//12 31//12 46//12
f 13//13 11//13 47//13
f 5//14 43//14 42//14
f 14//15 10//15 42//15
f 3//16 5//16 42//16 10//16
f 34//17 43//17 5//17 37//17
f 11//18 14//18 42//18 47//18
f 30//19 33//19 43//19 34//19
usemtl Botao
f 62//20 56//20 57//20
f 62//20 57//20 58//20
f 62//20 58//20 59//20
f 62//20 59//20 60//20
f 62//20 60//20 61//20
f 62//20 61//20 56//20
f 63//21 57//21 56//21 64//21
f 65//22 58//22 57//22 63//22
f 66//23 59//23 58//23 65//23
f 67//24 60//24 59//24 66//24
f 68//25 61//25 60//25 67//25
f 64//26 56//26 61//26 68//26
usemtl Borda
f 8//27 7//27 3//27
f 8//28 3//28 10//28 9//28
f 14//29 11//29 12//29 16//29
f 11//30 13//30 15//30 12//30
f 14//31 16//31 9//31 10//31
f 13//32 17//32 18//32 15//32
f 19//33 21//33 20//33 22//33
f 25//34 23//34 24//34 21//34
f 31//35 29//35 26//35 27//35
f 30//36 34//36 35//36 28//36
f 33//37 32//37 29//37 31//37
f 30//38 28//38 32//38 33//38
f 36//39 35//39 34//39 37//39
f 36//40 37//40 7//40
f 19//41 25//41 21//41
f 17//42 27//42 26//42 18//42
f 7//43 41//43 36//43
f 7//44 8//44 41//44
f 5//45 3//45 7//45
f 5//46 7//46 37//46
f 50//47 49//47 48//47 51//47
f 48//48 49//48 53//48 52//48
f 49//9 50//9 54//9 53//9
f 50//49 51//49 55//49 54//49
f 51//1 48//1 52//1 55//1
f 52//50 64//50 68//50 55//50
f 52//51 53//51 63//51 64//51
f 53//52 65//52 63//52
f 53//53 54//53 66//53 65//53
f 54//54 55//54 67//54 66//54
f 55//55 68//55 67//55
usemtl Interior
f 4//56 1//56 20//56 21//56
f 1//57 6//57 22//57 20//57
f 6//58 2//58 19//58 22//58
f 38//59 23//59 25//59 39//59
f 40//60 24//60 23//60 38//60
f 4//61 21//61 24//61 40//61
f 2//62 39//62 25//62 19//62
