<?xml version="1.0" encoding="UTF-8" standalone="no"?>
<!-- Created with Inkscape (http://www.inkscape.org/) -->

<svg
   xmlns:dc="http://purl.org/dc/elements/1.1/"
   xmlns:cc="http://creativecommons.org/ns#"
   xmlns:rdf="http://www.w3.org/1999/02/22-rdf-syntax-ns#"
   xmlns:svg="http://www.w3.org/2000/svg"
   xmlns="http://www.w3.org/2000/svg"
   xmlns:xlink="http://www.w3.org/1999/xlink"
   xmlns:sodipodi="http://sodipodi.sourceforge.net/DTD/sodipodi-0.dtd"
   xmlns:inkscape="http://www.inkscape.org/namespaces/inkscape"
   width="210mm"
   height="297mm"
   id="svg3975"
   version="1.1"
   inkscape:version="0.47 r22583"
   sodipodi:docname="talents.svg">
  <defs
     id="defs3977">
    <inkscape:perspective
       sodipodi:type="inkscape:persp3d"
       inkscape:vp_x="0 : 526.18109 : 1"
       inkscape:vp_y="0 : 1000 : 0"
       inkscape:vp_z="744.09448 : 526.18109 : 1"
       inkscape:persp3d-origin="372.04724 : 350.78739 : 1"
       id="perspective3983" />
    <inkscape:perspective
       id="perspective3993"
       inkscape:persp3d-origin="0.5 : 0.33333333 : 1"
       inkscape:vp_z="1 : 0.5 : 1"
       inkscape:vp_y="0 : 1000 : 0"
       inkscape:vp_x="0 : 0.5 : 1"
       sodipodi:type="inkscape:persp3d" />
    <inkscape:perspective
       id="perspective2944"
       inkscape:persp3d-origin="0.5 : 0.33333333 : 1"
       inkscape:vp_z="1 : 0.5 : 1"
       inkscape:vp_y="0 : 1000 : 0"
       inkscape:vp_x="0 : 0.5 : 1"
       sodipodi:type="inkscape:persp3d" />
    <inkscape:perspective
       id="perspective2924"
       inkscape:persp3d-origin="0.5 : 0.33333333 : 1"
       inkscape:vp_z="1 : 0.5 : 1"
       inkscape:vp_y="0 : 1000 : 0"
       inkscape:vp_x="0 : 0.5 : 1"
       sodipodi:type="inkscape:persp3d" />
  </defs>
  <sodipodi:namedview
     id="base"
     pagecolor="#ffffff"
     bordercolor="#666666"
     borderopacity="1.0"
     inkscape:pageopacity="0.0"
     inkscape:pageshadow="2"
     inkscape:zoom="0.9899495"
     inkscape:cx="352.4138"
     inkscape:cy="894.01703"
     inkscape:document-units="px"
     inkscape:current-layer="layer1"
     showgrid="false"
     inkscape:window-width="1368"
     inkscape:window-height="848"
     inkscape:window-x="0"
     inkscape:window-y="0"
     inkscape:window-maximized="0" />
  <metadata
     id="metadata3980">
    <rdf:RDF>
      <cc:Work
         rdf:about="">
        <dc:format>image/svg+xml</dc:format>
        <dc:type
           rdf:resource="http://purl.org/dc/dcmitype/StillImage" />
        <dc:title></dc:title>
      </cc:Work>
    </rdf:RDF>
  </metadata>
  <g
     inkscape:label="Camada 1"
     inkscape:groupmode="layer"
     id="layer1">
    <g
       id="g3132"
       inkscape:export-filename="/programacao/dccnitghtmare/data/feats/Img/esthetic_shock.png"
       inkscape:export-xdpi="26.639999"
       inkscape:export-ydpi="26.639999">
      <path
         sodipodi:type="arc"
         style="fill:#ffccaa;fill-opacity:1;stroke:#000000;stroke-width:2.94199991;stroke-miterlimit:4;stroke-opacity:1;stroke-dasharray:none"
         id="path3696"
         sodipodi:cx="60.104076"
         sodipodi:cy="152.82133"
         sodipodi:rx="24.748737"
         sodipodi:ry="22.728432"
         d="m 84.852814,152.82133 a 24.748737,22.728432 0 1 1 -49.497475,0 24.748737,22.728432 0 1 1 49.497475,0 z"
         transform="matrix(-0.8356977,0,0,0.9384919,115.3428,-5.200388)" />
      <path
         sodipodi:type="arc"
         style="fill:#000000;stroke:#000000;stroke-width:2.94199991;stroke-miterlimit:4;stroke-opacity:1;stroke-dasharray:none"
         id="path3698"
         sodipodi:cx="794.48499"
         sodipodi:cy="256.86707"
         sodipodi:rx="2.5253813"
         sodipodi:ry="3.5355339"
         d="m 797.01037,256.86707 a 2.5253813,3.5355339 0 1 1 -5.05077,0 2.5253813,3.5355339 0 1 1 5.05077,0 z"
         transform="matrix(-0.59413034,0,0,0.70520329,534.28216,-47.478302)" />
      <path
         d="m 865.00002,603.61218 a 7.3214283,3.3928571 0 1 1 -14.64286,0 7.3214283,3.3928571 0 1 1 14.64286,0 z"
         sodipodi:ry="3.3928571"
         sodipodi:rx="7.3214283"
         sodipodi:cy="603.61218"
         sodipodi:cx="857.67859"
         id="path3704"
         style="fill:#000000;fill-opacity:1;fill-rule:nonzero;stroke:#000000;stroke-width:2;stroke-linecap:butt;stroke-linejoin:miter;stroke-miterlimit:4;stroke-opacity:1;stroke-dasharray:none;stroke-dashoffset:0"
         sodipodi:type="arc"
         transform="matrix(-0.84356005,0,0,0.80332612,784.76615,-334.73085)" />
      <g
         transform="translate(189.39658,-604.58451)"
         id="g4500">
        <path
           style="fill:none;stroke:#000000;stroke-width:1px;stroke-linecap:butt;stroke-linejoin:miter;stroke-opacity:1"
           d="m -133.84521,727.3456 c -4.6551,-4.6551 -10.25553,-5.05076 -16.41498,-5.05076 -0.33672,0 -0.67344,0 -1.01015,0 -0.45777,0 -0.46925,0.31283 -0.75762,0.50507"
           id="path4486" />
        <path
           style="fill:none;stroke:#000000;stroke-width:1px;stroke-linecap:butt;stroke-linejoin:miter;stroke-opacity:1"
           d="m -130.81476,727.59814 c -0.32304,0 -4.0433,-4.54839 -5.3033,-5.80838 -2.17763,-2.17763 -8.17925,-3.3075 -11.11167,-4.04061 -0.18261,-0.0457 -0.33672,-0.16836 -0.50508,-0.25254"
           id="path4488" />
        <path
           style="fill:none;stroke:#000000;stroke-width:1px;stroke-linecap:butt;stroke-linejoin:miter;stroke-opacity:1"
           d="m -129.29953,725.83037 c -2.12958,-0.5324 -1.98334,-4.00365 -3.53553,-5.55584 -1.44362,-1.44362 -2.80358,-2.49027 -4.54569,-3.53553 -1.09661,-0.65797 -2.01141,-1.00349 -3.03045,-1.76777"
           id="path4490" />
        <path
           style="fill:none;stroke:#000000;stroke-width:1px;stroke-linecap:butt;stroke-linejoin:miter;stroke-opacity:1"
           d="m -126.01653,725.83037 c -2.3268,-1.39608 -2.86679,-4.21835 -4.29315,-7.07107 -0.16836,-0.33671 -0.33672,-0.67343 -0.50508,-1.01015 -0.81425,-1.62851 -2.21061,-2.90601 -3.03045,-4.54569"
           id="path4492" />
        <path
           style="fill:none;stroke:#000000;stroke-width:1px;stroke-linecap:butt;stroke-linejoin:miter;stroke-opacity:1"
           d="m -108.84394,735.17428 c -0.086,-0.17209 6.87539,-1.01015 8.33376,-1.01015 2.35327,0 3.865998,0.2915 5.808378,1.26269"
           id="path4494" />
        <path
           style="fill:none;stroke:#000000;stroke-width:1px;stroke-linecap:butt;stroke-linejoin:miter;stroke-opacity:1"
           d="m -110.10663,733.15398 c 1.38312,0 10.875032,-4.71934 13.384523,-5.55584 0.645251,-0.21509 1.174065,-0.20823 1.767767,-0.50508"
           id="path4496" />
        <path
           style="fill:none;stroke:#000000;stroke-width:1px;stroke-linecap:butt;stroke-linejoin:miter;stroke-opacity:1"
           d="m -111.36932,731.38621 c 0.32797,-0.10932 4.67937,-4.59025 7.57615,-5.55584 2.17947,-0.72649 4.371538,-0.73846 6.313449,-1.51523 0.174768,-0.0699 0.336718,-0.16836 0.505076,-0.25254"
           id="path4498" />
      </g>
      <path
         transform="matrix(-0.59413034,0,0,0.70520329,525.25217,-47.478302)"
         d="m 797.01037,256.86707 a 2.5253813,3.5355339 0 1 1 -5.05077,0 2.5253813,3.5355339 0 1 1 5.05077,0 z"
         sodipodi:ry="3.5355339"
         sodipodi:rx="2.5253813"
         sodipodi:cy="256.86707"
         sodipodi:cx="794.48499"
         id="path6451"
         style="fill:#000000;stroke:#000000;stroke-width:2.94199991;stroke-miterlimit:4;stroke-opacity:1;stroke-dasharray:none"
         sodipodi:type="arc" />
      <path
         id="path6461"
         d="m 65.682702,120.53423 c -4.80267,-13.12732 2.08116,-12.96723 2.08116,-12.96723"
         style="fill:none;stroke:#000000;stroke-width:1px;stroke-linecap:butt;stroke-linejoin:miter;stroke-opacity:1" />
      <path
         id="path6477"
         d="m 68.256222,119.59621 c 0.10448,-1.32638 1.61347,-11.13587 2.83,-10.52761"
         style="fill:none;stroke:#000000;stroke-width:1px;stroke-linecap:butt;stroke-linejoin:miter;stroke-opacity:1" />
      <path
         id="path6479"
         d="m 71.878622,120.61502 c 0.006,-1.26164 0.79363,-2.38027 1.2452,-3.50921 0.99406,-2.48513 0.90221,-4.07351 3.39601,-5.3204"
         style="fill:none;stroke:#000000;stroke-width:1px;stroke-linecap:butt;stroke-linejoin:miter;stroke-opacity:1" />
      <path
         id="path6481"
         d="m 76.519832,121.63382 c 0.26413,-0.3396 0.44546,-0.76438 0.7924,-1.0188 0.25092,-0.18401 0.62406,-0.0939 0.9056,-0.2264 2.15055,-1.01203 4.03369,-2.6349 6.11281,-3.73561 1.01486,-0.53728 2.56504,-0.64064 3.2828,-1.3584"
         style="fill:none;stroke:#000000;stroke-width:1px;stroke-linecap:butt;stroke-linejoin:miter;stroke-opacity:1" />
      <path
         id="path6483"
         d="m 73.803022,121.29422 c 0.70694,-2.11226 2.17636,-3.78672 3.16961,-5.77321 0.22832,-0.45665 0.71958,-0.52275 0.9056,-1.0188 0.053,-0.14132 -0.0982,-0.3382 0,-0.4528 0.16473,-0.19219 0.50022,-0.16062 0.6792,-0.3396 0.65784,-0.65784 -0.26311,-0.22794 0.1132,-0.7924 0.44868,-0.67303 2.33475,-1.33718 3.0564,-1.69801"
         style="fill:none;stroke:#000000;stroke-width:1px;stroke-linecap:butt;stroke-linejoin:miter;stroke-opacity:1" />
      <path
         id="path6485"
         d="m 76.972632,124.80342 c 1.96013,-1.6468 4.47463,-3.80121 7.01841,-4.528 1.4159,-0.40455 2.96193,-0.47153 4.0752,-1.58481"
         style="fill:none;stroke:#000000;stroke-width:1px;stroke-linecap:butt;stroke-linejoin:miter;stroke-opacity:1" />
      <path
         id="path6487"
         d="m 76.894795,115.45106 c -0.17859,-3.41253 0.0235,-6.92425 -0.7924,-10.18802"
         style="fill:none;stroke:#000000;stroke-width:1px;stroke-linecap:butt;stroke-linejoin:miter;stroke-opacity:1" />
      <path
         id="path6489"
         d="m 69.954222,120.84142 c 0.0369,-2.16743 0.10339,-4.40009 1.2452,-6.11281 0.71325,-1.06988 1.65902,-0.29688 2.1508,-2.264"
         style="fill:none;stroke:#000000;stroke-width:1px;stroke-linecap:butt;stroke-linejoin:miter;stroke-opacity:1" />
      <path
         id="path6491"
         d="m 53.427002,124.01102 c -0.42601,-0.6291 -1.21213,-0.98845 -1.8112,-1.2452 -0.90953,-0.3898 -1.70313,-1.24777 -2.60361,-1.698 -1.42308,-0.71155 -3.22021,-0.4528 -4.7544,-0.4528"
         style="fill:none;stroke:#000000;stroke-width:1px;stroke-linecap:butt;stroke-linejoin:miter;stroke-opacity:1" />
      <image
         xlink:href="file:///programacao/dccnitghtmare/data/feats/Img/etc/abacaxi.png"
         width="37.86874"
         height="60.466625"
         id="image2926"
         x="44.591385"
         y="67.27092" />
      <path
         id="path2972"
         d="m 32.393194,101.73481 -15.833728,29.21695 20.500666,-10.13321 -11.82162,36.60385 -11.828248,-4.41943 3.19306,18.46835 16.079035,-11.97937 -9.8879,-3.2631"
         style="fill:#ffff00;stroke:#000000;stroke-width:1px;stroke-linecap:butt;stroke-linejoin:miter;stroke-opacity:1" />
      <path
         style="fill:#ffff00;stroke:#000000;stroke-width:1px;stroke-linecap:butt;stroke-linejoin:miter;stroke-opacity:1"
         d="m 101.52682,103.87767 15.83373,29.21695 -20.500658,-10.13321 11.821618,36.60385 11.82824,-4.41943 -3.19306,18.46835 -16.07903,-11.97937 9.8879,-3.2631"
         id="path2974" />
    </g>
    <text
       xml:space="preserve"
       style="font-size:16px;font-style:normal;font-variant:normal;font-weight:normal;font-stretch:normal;text-align:center;text-anchor:middle;fill:#000000;fill-opacity:1;stroke:none;font-family:Arial;-inkscape-font-specification:Arial"
       x="65.659912"
       y="232.11832"
       id="text3015"><tspan
         sodipodi:role="line"
         id="tspan3017"
         x="65.659912"
         y="232.11832">Esthetic Shock</tspan></text>
  </g>
</svg>
