# Blender v242 OBJ File: mato.blend
# www.blender3d.org
mtllib mato.mtl
o Cylinder_Cylinder
v 0.000000 9.060537 0.000000
v 0.068694 0.049427 0.068599
v 0.093838 0.049427 -0.025109
v 0.025144 0.049427 -0.093709
v -0.068694 0.049427 -0.068600
v -0.093838 0.049427 0.025109
v -0.025144 0.049427 0.093708
v -0.000000 0.049427 -0.000000
vn 0.000000 -1.000000 0.000000
vn 0.965795 0.009335 0.259140
vn 0.706589 0.009330 -0.707562
vn -0.258475 0.009324 -0.965973
vn -0.965794 0.009335 -0.259141
vn -0.706590 0.009330 0.707562
vn 0.258475 0.009324 0.965973
usemtl Material
s off
f 8//1 3//1 2//1
f 8//1 4//1 3//1
f 8//1 5//1 4//1
f 8//1 6//1 5//1
f 8//1 7//1 6//1
f 8//1 2//1 7//1
f 1//2 2//2 3//2
f 1//3 3//3 4//3
f 1//4 4//4 5//4
f 1//5 5//5 6//5
f 1//6 6//6 7//6
f 1//7 7//7 2//7
