<?xml version="1.0" encoding="UTF-8" standalone="no"?>
<!-- Created with Inkscape (http://www.inkscape.org/) -->

<svg
   xmlns:dc="http://purl.org/dc/elements/1.1/"
   xmlns:cc="http://creativecommons.org/ns#"
   xmlns:rdf="http://www.w3.org/1999/02/22-rdf-syntax-ns#"
   xmlns:svg="http://www.w3.org/2000/svg"
   xmlns="http://www.w3.org/2000/svg"
   xmlns:sodipodi="http://sodipodi.sourceforge.net/DTD/sodipodi-0.dtd"
   xmlns:inkscape="http://www.inkscape.org/namespaces/inkscape"
   id="svg2"
   version="1.1"
   inkscape:version="0.48.3.1 r9886"
   width="200"
   height="200"
   sodipodi:docname="revoots.png">
  <metadata
     id="metadata8">
    <rdf:RDF>
      <cc:Work
         rdf:about="">
        <dc:format>image/svg+xml</dc:format>
        <dc:type
           rdf:resource="http://purl.org/dc/dcmitype/StillImage" />
        <dc:title></dc:title>
      </cc:Work>
    </rdf:RDF>
  </metadata>
  <defs
     id="defs6" />
  <sodipodi:namedview
     pagecolor="#ffffff"
     bordercolor="#666666"
     borderopacity="1"
     objecttolerance="10"
     gridtolerance="10"
     guidetolerance="10"
     inkscape:pageopacity="0"
     inkscape:pageshadow="2"
     inkscape:window-width="1476"
     inkscape:window-height="1181"
     id="namedview4"
     showgrid="false"
     inkscape:zoom="1"
     inkscape:cx="-2.1489083"
     inkscape:cy="-88.714125"
     inkscape:window-x="0"
     inkscape:window-y="0"
     inkscape:window-maximized="0"
     inkscape:current-layer="svg2">
    <inkscape:grid
       type="xygrid"
       id="grid3763" />
  </sodipodi:namedview>
  <rect
     style="fill:#ad3d3d;fill-opacity:1;fill-rule:nonzero;stroke:none"
     id="rect3765"
     width="200"
     height="200"
     x="0"
     y="0" />
  <path
     sodipodi:type="arc"
     style="fill:#000000;fill-opacity:1;fill-rule:nonzero;stroke:none"
     id="path2987"
     sodipodi:cx="99.152542"
     sodipodi:cy="75.847458"
     sodipodi:rx="66.525421"
     sodipodi:ry="66.525421"
     d="m 165.67796,75.847458 a 66.525421,66.525421 0 1 1 -133.050839,0 66.525421,66.525421 0 1 1 133.050839,0 z"
     transform="translate(0.42372881,-5.9322034)" />
  <path
     style="fill:#000000;fill-opacity:1;fill-rule:nonzero;stroke:none"
     d="m 39.830508,171.18644 19.067797,-59.32203 72.881355,2.11864 14.40678,58.89831 z"
     id="path3757"
     inkscape:connector-curvature="0" />
  <text
     xml:space="preserve"
     style="font-size:42px;font-style:italic;font-variant:normal;font-weight:bold;font-stretch:normal;text-align:center;line-height:100%;writing-mode:lr-tb;text-anchor:middle;fill:#000000;fill-opacity:1;fill-rule:nonzero;stroke:none;font-family:Serif;-inkscape-font-specification:Serif Bold Italic"
     x="100.6356"
     y="195.55084"
     id="text3759"
     sodipodi:linespacing="100%"><tspan
       sodipodi:role="line"
       id="tspan3761"
       x="100.6356"
       y="195.55084"
       style="font-size:28px;fill:#000000;fill-opacity:1">Revolution!</tspan></text>
  <path
     transform="matrix(0.86624203,0,0,0.86624203,13.686171,4.2129984)"
     d="m 165.67796,75.847458 a 66.525421,66.525421 0 1 1 -133.050839,0 66.525421,66.525421 0 1 1 133.050839,0 z"
     sodipodi:ry="66.525421"
     sodipodi:rx="66.525421"
     sodipodi:cy="75.847458"
     sodipodi:cx="99.152542"
     id="path3771"
     style="fill:#c13434;fill-opacity:1;fill-rule:nonzero;stroke:none"
     sodipodi:type="arc" />
  <path
     inkscape:connector-curvature="0"
     id="path3773"
     d="m 54.237288,171.18644 19.067797,-59.32203 44.491525,2.11864 14.40678,58.89831 z"
     style="fill:#c13434;fill-opacity:1;fill-rule:nonzero;stroke:none"
     sodipodi:nodetypes="ccccc" />
  <path
     sodipodi:type="arc"
     style="fill:none;stroke:#000000;stroke-width:6;stroke-miterlimit:4;stroke-opacity:1;stroke-dasharray:none"
     id="path3775"
     sodipodi:cx="110.16949"
     sodipodi:cy="50.423729"
     sodipodi:rx="11.016949"
     sodipodi:ry="13.559322"
     d="m 121.18644,50.423729 a 11.016949,13.559322 0 1 1 -22.033902,0 11.016949,13.559322 0 1 1 22.033902,0 z"
     transform="matrix(1.212937,0,0,0.70426131,-21.340515,19.149536)" />
  <path
     d="m 121.18644,50.423729 a 11.016949,13.559322 0 1 1 -22.033902,0 11.016949,13.559322 0 1 1 22.033902,0 z"
     sodipodi:ry="13.559322"
     sodipodi:rx="11.016949"
     sodipodi:cy="50.423729"
     sodipodi:cx="110.16949"
     id="path3777"
     style="fill:none;stroke:#000000;stroke-width:6;stroke-miterlimit:4;stroke-opacity:1;stroke-dasharray:none"
     sodipodi:type="arc"
     transform="matrix(0.98517496,0,0,1.1285797,-30.570123,-5.8478722)" />
  <path
     style="fill:none;stroke:#000000;stroke-width:6;stroke-linecap:round;stroke-linejoin:round;stroke-miterlimit:4;stroke-opacity:1;stroke-dasharray:none"
     d="M 87.491396,100.84801 72.227515,84.839352 66.068516,105.26962 c 22.201384,-7.002068 43.599944,-4.31989 64.778144,1.02026 l -13.18652,-22.957865 -7.46303,18.051005"
     id="path3781"
     inkscape:connector-curvature="0"
     sodipodi:nodetypes="cccccc" />
  <rect
     style="fill:#000000;fill-opacity:1;fill-rule:nonzero;stroke:none"
     id="rect3767"
     width="68"
     height="4"
     x="-95.300621"
     y="16.144253"
     transform="matrix(-0.99201871,-0.12609072,-0.12609072,0.99201871,0,0)" />
  <rect
     transform="matrix(0.99201871,-0.12609072,0.12609072,0.99201871,0,0)"
     y="39.516937"
     x="94.111862"
     height="4"
     width="68"
     id="rect3769"
     style="fill:#000000;fill-opacity:1;fill-rule:nonzero;stroke:none" />
  <path
     style="fill:#c13434;stroke:#000000;stroke-width:6;stroke-linecap:round;stroke-linejoin:round;stroke-miterlimit:4;stroke-opacity:1;stroke-dasharray:none;fill-opacity:1"
     d="m 143.64407,40.677966 45.76271,-9.322034 -34.74576,33.898305"
     id="path3783"
     inkscape:connector-curvature="0" />
  <path
     style="fill:#c13434;stroke:#000000;stroke-width:6;stroke-linecap:round;stroke-linejoin:round;stroke-miterlimit:4;stroke-opacity:1;stroke-dasharray:none;fill-opacity:1"
     d="M 52.966102,42.372881 12.288136,32.627119 47.033898,67.79661"
     id="path3785"
     inkscape:connector-curvature="0" />
  <path
     style="fill:none;fill-opacity:1;fill-rule:nonzero;stroke:#000000;stroke-width:6;stroke-linecap:round;stroke-linejoin:round;stroke-miterlimit:4;stroke-opacity:1;stroke-dasharray:none"
     d="m 61.016949,131.77966 c 27.281761,17.1507 47.983611,9.0784 68.644071,0.84746"
     id="path3787"
     inkscape:connector-curvature="0"
     sodipodi:nodetypes="cc" />
  <path
     sodipodi:type="arc"
     style="fill:#c13434;stroke:#000000;stroke-width:6;stroke-linecap:round;stroke-linejoin:round;stroke-miterlimit:4;stroke-opacity:1;stroke-dasharray:none;fill-opacity:1"
     id="path3789"
     sodipodi:cx="89.830505"
     sodipodi:cy="149.57628"
     sodipodi:rx="10.593221"
     sodipodi:ry="10.593221"
     d="m 100.42373,149.57628 a 10.593221,10.593221 0 1 1 -21.186445,0 10.593221,10.593221 0 1 1 21.186445,0 z"
     transform="translate(2.9661017,-0.42372881)" />
</svg>
