# Blender v242 OBJ File: cruz.blend
# www.blender3d.org
mtllib cruz.mtl
o Cube.001_Cube.001
v 0.895188 9.432926 4.649636
v 0.895188 11.223301 4.649635
v -0.895189 11.223301 4.649635
v -0.895188 9.432924 4.649636
v 0.895189 9.432925 -4.647742
v 0.895188 11.223302 -4.647742
v -0.895189 11.223301 -4.647742
v -0.895188 9.432923 -4.647742
v 1.118985 3.140071 -1.118038
v 1.118985 3.140071 1.119933
v -1.118985 3.140071 1.119932
v -1.118985 3.140071 -1.118039
v 1.118986 14.216560 -1.118038
v 1.118985 14.216560 1.119933
v -1.118986 14.216560 1.119931
v -1.118985 14.216560 -1.118039
v -2.237970 1.675244 -2.237026
v -2.237971 1.675244 2.238916
v 2.237971 1.675244 2.238918
v 2.237971 1.675244 -2.237024
v 3.356956 0.019352 -3.356008
v 3.356956 0.019353 3.357904
v -3.356956 0.019353 3.357901
v -3.356955 0.019352 -3.356012
vn -0.000000 0.000000 1.000000
vn 0.000000 0.000000 -1.000000
vn 1.000000 0.000000 0.000000
vn -0.000000 1.000000 0.000000
vn -1.000000 -0.000000 0.000000
vn 0.000001 -1.000000 0.000000
vn -0.000001 -0.000000 1.000000
vn -0.794666 0.607047 -0.000000
vn -0.000000 0.607047 0.794666
vn 0.000000 0.607048 -0.794666
vn 0.794666 0.607047 -0.000000
vn 0.828556 0.559905 -0.000000
vn 0.000000 0.559905 -0.828557
vn -0.000000 0.559906 0.828556
vn -0.828557 0.559905 -0.000000
vn -0.000000 -1.000000 0.000000
usemtl Material
s off
f 1//1 2//1 3//1 4//1
f 5//2 8//2 7//2 6//2
f 1//3 5//3 6//3 2//3
f 2//4 6//4 7//4 3//4
f 3//5 7//5 8//5 4//5
f 5//6 1//6 4//6 8//6
f 13//4 16//4 15//4 14//4
f 9//3 13//3 14//3 10//3
f 10//7 14//7 15//7 11//7
f 11//5 15//5 16//5 12//5
f 13//2 9//2 12//2 16//2
f 11//8 12//8 17//8 18//8
f 10//9 11//9 18//9 19//9
f 12//10 9//10 20//10 17//10
f 9//11 10//11 19//11 20//11
f 20//12 19//12 22//12 21//12
f 17//13 20//13 21//13 24//13
f 19//14 18//14 23//14 22//14
f 18//15 17//15 24//15 23//15
f 21//16 22//16 23//16 24//16
