# Blender v242 OBJ File: cruz.blend
# www.blender3d.org
mtllib cruz.mtl
o Cube.001_Cube.001
v 0.895188 9.432926 4.649636
v 0.895188 11.223301 4.649635
v -0.895189 11.223301 4.649635
v -0.895188 9.432924 4.649636
v 0.895189 9.432925 -4.647742
v 0.895188 11.223302 -4.647742
v -0.895189 11.223301 -4.647742
v -0.895188 9.432923 -4.647742
v 1.118985 3.140071 -1.118038
v 1.118985 3.140071 1.119933
v -1.118985 3.140071 1.119932
v -1.118985 3.140071 -1.118039
v 1.118986 14.216560 -1.118038
v 1.118985 14.216560 1.119933
v -1.118986 14.216560 1.119931
v -1.118985 14.216560 -1.118039
v -2.237970 1.675244 -2.237026
v -2.237971 1.675244 2.238916
v 2.237971 1.675244 2.238918
v 2.237971 1.675244 -2.237024
v 3.356956 0.019352 -3.356008
v 3.356956 0.019353 3.357904
v -3.356956 0.019353 3.357901
v -3.356955 0.019352 -3.356012
vt 0.000000 1.000000 0.0
vt 0.000000 0.000000 0.0
vt 1.000000 0.000000 0.0
vt 1.000000 1.000000 0.0
vn -0.000000 0.000000 1.000000
vn 0.000000 0.000000 -1.000000
vn 1.000000 0.000000 0.000000
vn -0.000000 1.000000 0.000000
vn -1.000000 -0.000000 0.000000
vn 0.000001 -1.000000 0.000000
vn -0.000001 -0.000000 1.000000
vn -0.794666 0.607047 -0.000000
vn -0.000000 0.607047 0.794666
vn 0.000000 0.607048 -0.794666
vn 0.794666 0.607047 -0.000000
vn 0.828556 0.559905 -0.000000
vn 0.000000 0.559905 -0.828557
vn -0.000000 0.559906 0.828556
vn -0.828557 0.559905 -0.000000
vn -0.000000 -1.000000 0.000000
usemtl Material_marble1.png
usemat marble1.png
s off
f 1/1/1 2/2/1 3/3/1 4/4/1
f 5/1/2 8/2/2 7/3/2 6/4/2
f 1/1/3 5/2/3 6/3/3 2/4/3
f 2/1/4 6/2/4 7/3/4 3/4/4
f 3/1/5 7/2/5 8/3/5 4/4/5
f 5/1/6 1/2/6 4/3/6 8/4/6
f 13/1/4 16/2/4 15/3/4 14/4/4
f 9/1/3 13/2/3 14/3/3 10/4/3
f 10/1/7 14/2/7 15/3/7 11/4/7
f 11/1/5 15/2/5 16/3/5 12/4/5
f 13/1/2 9/2/2 12/3/2 16/4/2
f 11/1/8 12/2/8 17/3/8 18/4/8
f 10/1/9 11/2/9 18/3/9 19/4/9
f 12/1/10 9/2/10 20/3/10 17/4/10
f 9/1/11 10/2/11 19/3/11 20/4/11
f 20/1/12 19/2/12 22/3/12 21/4/12
f 17/1/13 20/2/13 21/3/13 24/4/13
f 19/1/14 18/2/14 23/3/14 22/4/14
f 18/1/15 17/2/15 24/3/15 23/4/15
f 21/1/16 22/2/16 23/3/16 24/4/16
