# Blender v242 OBJ File: tomb1.blend
# www.blender3d.org
mtllib tomb1.mtl
o Cube.001_Cube.001
v 0.895188 24.338575 4.649636
v 0.895188 26.128950 4.649635
v -0.895189 26.128950 4.649635
v -0.895188 24.338573 4.649636
v 0.895189 24.338575 -4.647742
v 0.895188 26.128952 -4.647742
v -0.895189 26.128950 -4.647742
v -0.895188 24.338573 -4.647742
v 1.118985 18.045719 -1.118038
v 1.118985 18.045719 1.119933
v -1.118985 18.045719 1.119932
v -1.118985 18.045719 -1.118039
v 1.118986 29.122210 -1.118038
v 1.118985 29.122210 1.119933
v -1.118986 29.122210 1.119931
v -1.118985 29.122210 -1.118039
v -2.237970 16.580893 -2.237026
v -2.237971 16.580893 2.238916
v 2.237971 16.580893 2.238918
v 2.237971 16.580893 -2.237024
v 3.356956 14.925002 -3.356008
v 3.356956 14.925002 3.357904
v -3.356956 14.925002 3.357901
v -3.356955 14.925002 -3.356012
v -3.356955 0.019530 -3.356012
v -3.356956 0.019530 3.357901
v 3.356956 0.019530 3.357904
v 3.356956 0.019530 -3.356008
v -26.804121 0.019530 3.357901
v -26.804117 0.019530 -3.356012
v -26.804117 14.925002 -3.356012
v -26.804121 14.925002 3.357901
v -26.804123 14.925002 10.357902
v -26.804123 0.019530 10.357902
v 3.356954 0.019530 10.357904
v -3.356958 0.019530 10.357902
v -3.356958 14.925002 10.357902
v 3.356954 14.925002 10.357904
v -26.804113 14.925002 -10.356012
v -26.804113 0.019529 -10.356013
v 3.356958 0.019529 -10.356009
v -3.356953 0.019529 -10.356013
v -3.356953 14.925002 -10.356012
v 3.356958 14.925002 -10.356008
v -25.215902 16.434574 -3.037782
v -25.215906 16.434574 3.039672
v -25.215910 16.434574 9.376094
v -3.991462 16.434574 9.376094
v 2.085993 16.434574 9.376097
v -25.215900 16.434574 -9.374206
v -3.991458 16.434574 -9.374206
v 2.085995 16.434574 -9.374201
v -23.093458 17.094696 -3.037782
v -23.093460 17.094696 3.039672
v -23.093464 17.094696 8.438579
v -8.236350 17.094696 8.438579
v -23.093458 17.094696 -8.436690
v -8.236347 17.094696 -8.436690
vt 0.000000 1.000000 0.0
vt 0.000000 0.000000 0.0
vt 1.000000 0.000000 0.0
vt 1.000000 1.000000 0.0
vn 0.577349 -0.577349 0.577349
vn 0.577349 0.577349 0.577349
vn -0.577349 0.577349 0.577349
vn -0.577349 -0.577349 0.577349
vn 0.577349 -0.577349 -0.577349
vn -0.577349 -0.577349 -0.577349
vn -0.577349 0.577349 -0.577349
vn 0.577349 0.577349 -0.577349
vn 0.649709 0.394574 -0.649709
vn 0.649709 0.394574 0.649709
vn -0.649709 0.394574 0.649709
vn -0.649709 0.394574 -0.649709
vn -0.166417 0.955565 -0.243233
vn 0.408826 0.801691 -0.436018
vn 0.753777 0.605457 -0.255379
vn -0.455031 0.886196 -0.086825
vn 0.408826 0.801691 0.436018
vn -0.707450 0.700980 0.089999
vn -0.852107 0.520676 -0.052644
vn 0.753777 0.605457 0.255379
vn 0.705130 -0.709037 0.000000
vn 0.000000 -1.000000 0.000000
vn -0.705130 -0.709037 0.000000
vn -0.918943 0.394360 0.000000
vn 0.000000 -0.709037 0.705130
vn -0.654592 0.416456 0.630909
vn 0.658010 0.375805 0.652486
vn -0.359294 0.488662 0.795038
vn -0.654592 0.416456 -0.630909
vn 0.000000 -0.709037 -0.705130
vn 0.658010 0.375805 -0.652486
vn 0.336344 0.414838 -0.845424
vn 0.333842 0.864284 -0.376202
vn 0.419263 0.768670 -0.483016
vn -0.365001 0.836482 0.408673
vn 0.333842 0.864284 0.376202
vn -0.506180 0.862392 0.000000
vn -0.072054 0.996033 -0.052187
vn -0.072054 0.996033 0.052187
vn -0.314066 0.855861 0.410871
vn -0.070528 0.980499 0.183264
vn -0.294687 0.915098 -0.275124
vn -0.314066 0.855861 -0.410871
vn -0.070528 0.980499 -0.183264
vn -0.294687 0.915098 0.275124
usemtl Material_marble1.png
usemat marble1.png
s 1
f 1/1/1 2/2/2 3/3/3 4/4/4
f 5/1/5 8/2/6 7/3/7 6/4/8
f 1/1/1 5/2/5 6/3/8 2/4/2
f 2/1/2 6/2/8 7/3/7 3/4/3
f 3/1/3 7/2/7 8/3/6 4/4/4
f 5/1/5 1/2/1 4/3/4 8/4/6
f 13/1/8 16/2/7 15/3/3 14/4/2
f 9/1/9 13/2/8 14/3/2 10/4/10
f 10/1/10 14/2/2 15/3/3 11/4/11
f 11/1/11 15/2/3 16/3/7 12/4/12
f 13/1/8 9/2/9 12/3/12 16/4/7
f 17/1/13 20/2/14 21/3/15 24/4/16
f 19/1/17 18/2/18 23/3/19 22/4/20
f 18/1/18 17/2/13 24/3/16 23/4/19
f 21/1/15 22/2/20 27/3/21 28/4/21
f 28/1/21 27/2/21 26/3/22 25/4/22
f 25/1/22 26/2/22 29/3/23 30/4/23
f 32/1/24 31/2/24 30/3/23 29/4/23
f 29/1/23 26/2/22 36/3/25 34/4/4
f 32/1/24 29/2/23 34/3/4 33/4/26
f 27/1/21 22/2/20 38/3/27 35/4/1
f 26/1/22 27/2/21 35/3/1 36/4/25
f 38/1/27 37/2/28 36/3/25 35/4/1
f 36/1/25 37/2/28 33/3/26 34/4/4
f 30/1/23 31/2/24 39/3/29 40/4/6
f 25/1/22 30/2/23 40/3/6 42/4/30
f 28/1/21 25/2/22 42/3/30 41/4/5
f 21/1/15 28/2/21 41/3/5 44/4/31
f 43/1/32 44/2/31 41/3/5 42/4/30
f 43/1/32 42/2/30 40/3/6 39/4/29
f 17/1/13 20/4/14 52/3/33 51/2/34
f 17/1/13 24/2/16 43/3/32 51/4/34
f 18/1/18 48/2/35 49/3/36 19/4/17
f 18/1/18 23/2/19 37/3/28 48/4/35
f 45/1/37 46/2/37 54/3/38 53/4/39
f 47/1/40 55/4/41 54/3/38 46/2/37
f 47/1/40 48/2/35 56/3/42 55/4/41
f 51/1/34 50/2/43 57/3/44 58/4/45
f 50/1/43 45/2/37 53/3/39 57/4/44
f 17/1/13 51/2/34 58/3/45
f 18/1/18 56/2/42 48/3/35
f 17/1/13 58/2/45 24/3/16
f 18/1/18 23/2/19 56/3/42
f 24/1/16 58/2/45 57/3/44 53/4/39
f 23/1/19 24/2/16 53/3/39 54/4/38
f 54/1/38 55/2/41 56/3/42 23/4/19
usemtl Material.2_granite1.png
usemat granite1.png
f 11/1/11 12/2/12 17/3/13 18/4/18
f 10/1/10 11/2/11 18/3/18 19/4/17
f 12/1/12 9/2/9 20/3/14 17/4/13
f 9/1/9 10/2/10 19/3/17 20/4/14
f 20/1/14 19/2/17 22/3/20 21/4/15
f 31/1/24 32/2/24 46/3/37 45/4/37
f 33/1/26 47/4/40 46/3/37 32/2/24
f 33/1/26 37/2/28 48/3/35 47/4/40
f 22/1/20 19/4/17 49/3/36 38/2/27
f 37/1/28 38/2/27 49/3/36 48/4/35
f 43/1/32 39/2/29 50/3/43 51/4/34
f 39/1/29 31/2/24 45/3/37 50/4/43
f 44/1/31 52/4/33 20/3/14 21/2/15
f 44/1/31 43/2/32 51/3/34 52/4/33
