# Blender v242 OBJ File: tomb_column.blend
# www.blender3d.org
mtllib tomb_column.mtl
o Cube.001_Cube.001
v 0.895188 24.338575 4.649636
v 0.895188 26.128950 4.649635
v -0.895189 26.128950 4.649635
v -0.895188 24.338573 4.649636
v 0.895189 24.338575 -4.647742
v 0.895188 26.128952 -4.647742
v -0.895189 26.128950 -4.647742
v -0.895188 24.338573 -4.647742
v 1.118985 18.045719 -1.118038
v 1.118985 18.045719 1.119933
v -1.118985 18.045719 1.119932
v -1.118985 18.045719 -1.118039
v 1.118986 29.122210 -1.118038
v 1.118985 29.122210 1.119933
v -1.118986 29.122210 1.119931
v -1.118985 29.122210 -1.118039
v -2.237970 16.580893 -2.237026
v -2.237971 16.580893 2.238916
v 2.237971 16.580893 2.238918
v 2.237971 16.580893 -2.237024
v 3.356956 14.925002 -3.356008
v 3.356956 14.925002 3.357904
v -3.356956 14.925002 3.357901
v -3.356955 14.925002 -3.356012
v -3.356955 0.019530 -3.356012
v -3.356956 0.019530 3.357901
v 3.356956 0.019530 3.357904
v 3.356956 0.019530 -3.356008
vt 0.000000 1.000000 0.0
vt 0.000000 0.000000 0.0
vt 1.000000 0.000000 0.0
vt 1.000000 1.000000 0.0
vn 0.000001 -1.000000 0.000000
vn -0.000000 0.000000 1.000000
vn 0.000000 0.000000 -1.000000
vn 1.000000 0.000000 0.000000
vn -0.000001 1.000000 0.000000
vn -1.000000 -0.000000 0.000000
vn 0.000000 1.000000 0.000000
vn -0.000001 -0.000000 1.000000
vn -0.794666 0.607047 -0.000000
vn -0.000000 0.607047 0.794666
vn 0.000000 0.607048 -0.794665
vn 0.794666 0.607047 0.000000
vn 0.828556 0.559906 0.000000
vn 0.000000 0.559906 -0.828556
vn -0.000000 0.559906 0.828556
vn -0.828556 0.559906 -0.000000
vn 0.000001 0.000000 -1.000000
vn -0.000000 -1.000000 0.000000
usemtl Material
s off
f 5/1/1 1/2/1 4/3/1 8/4/1
usemtl Material_marble1.png
usemat marble1.png
f 1/1/2 2/2/2 3/3/2 4/4/2
f 5/1/3 8/2/3 7/3/3 6/4/3
f 1/1/4 5/2/4 6/3/4 2/4/4
f 2/1/5 6/2/5 7/3/5 3/4/5
f 3/1/6 7/2/6 8/3/6 4/4/6
f 13/1/7 16/2/7 15/3/7 14/4/7
f 9/1/4 13/2/4 14/3/4 10/4/4
f 10/1/8 14/2/8 15/3/8 11/4/8
f 11/1/6 15/2/6 16/3/6 12/4/6
f 13/1/3 9/2/3 12/3/3 16/4/3
usemtl Material_granite1.png
usemat granite1.png
f 11/1/9 12/2/9 17/3/9 18/4/9
f 10/1/10 11/2/10 18/3/10 19/4/10
f 12/1/11 9/2/11 20/3/11 17/4/11
f 9/1/12 10/2/12 19/3/12 20/4/12
f 20/1/13 19/2/13 22/3/13 21/4/13
f 17/1/14 20/2/14 21/3/14 24/4/14
f 19/1/15 18/2/15 23/3/15 22/4/15
f 18/1/16 17/2/16 24/3/16 23/4/16
f 23/1/6 24/2/6 25/3/6 26/4/6
f 22/1/2 23/2/2 26/3/2 27/4/2
f 24/1/17 21/2/17 28/3/17 25/4/17
f 21/1/4 22/2/4 27/3/4 28/4/4
f 28/1/18 27/2/18 26/3/18 25/4/18
