<?xml version="1.0" encoding="UTF-8" standalone="no"?>
<!-- Created with Inkscape (http://www.inkscape.org/) -->

<svg
   xmlns:dc="http://purl.org/dc/elements/1.1/"
   xmlns:cc="http://creativecommons.org/ns#"
   xmlns:rdf="http://www.w3.org/1999/02/22-rdf-syntax-ns#"
   xmlns:svg="http://www.w3.org/2000/svg"
   xmlns="http://www.w3.org/2000/svg"
   xmlns:xlink="http://www.w3.org/1999/xlink"
   xmlns:sodipodi="http://sodipodi.sourceforge.net/DTD/sodipodi-0.dtd"
   xmlns:inkscape="http://www.inkscape.org/namespaces/inkscape"
   width="16"
   height="16"
   id="svg2"
   version="1.1"
   inkscape:version="0.48.3.1 r9886"
   sodipodi:docname="camera.svg"
   inkscape:export-filename="./camera.png"
   inkscape:export-xdpi="90"
   inkscape:export-ydpi="90">
  <defs
     id="defs4">
    <linearGradient
       inkscape:collect="always"
       id="linearGradient3680">
      <stop
         style="stop-color:#babdb6;stop-opacity:1"
         offset="0"
         id="stop3682" />
      <stop
         id="stop3692"
         offset="0.20424372"
         style="stop-color:#dbded8;stop-opacity:1;" />
      <stop
         id="stop3688"
         offset="0.44099137"
         style="stop-color:#d3d7cf;stop-opacity:1" />
      <stop
         style="stop-color:#eeeeec;stop-opacity:1"
         offset="0.69693315"
         id="stop3690" />
      <stop
         style="stop-color:#babdb6;stop-opacity:1"
         offset="1"
         id="stop3684" />
    </linearGradient>
    <linearGradient
       inkscape:collect="always"
       id="linearGradient3658">
      <stop
         style="stop-color:#888a85;stop-opacity:1;"
         offset="0"
         id="stop3660" />
      <stop
         style="stop-color:#eeeeec;stop-opacity:1"
         offset="1"
         id="stop3662" />
    </linearGradient>
    <inkscape:perspective
       sodipodi:type="inkscape:persp3d"
       inkscape:vp_x="0 : 526.18109 : 1"
       inkscape:vp_y="0 : 1000 : 0"
       inkscape:vp_z="744.09448 : 526.18109 : 1"
       inkscape:persp3d-origin="372.04724 : 350.78739 : 1"
       id="perspective10" />
    <linearGradient
       inkscape:collect="always"
       xlink:href="#linearGradient3658"
       id="linearGradient3664"
       x1="483.3075"
       y1="16.779177"
       x2="483.3075"
       y2="66.326904"
       gradientUnits="userSpaceOnUse" />
    <linearGradient
       inkscape:collect="always"
       xlink:href="#linearGradient3658"
       id="linearGradient3668"
       gradientUnits="userSpaceOnUse"
       x1="483.3075"
       y1="16.779177"
       x2="483.3075"
       y2="66.326904" />
    <linearGradient
       inkscape:collect="always"
       xlink:href="#linearGradient3680"
       id="linearGradient3686"
       x1="487.19656"
       y1="24.228922"
       x2="499.59357"
       y2="87.50882"
       gradientUnits="userSpaceOnUse"
       gradientTransform="translate(-88.388348,30.405592)" />
    <linearGradient
       gradientUnits="userSpaceOnUse"
       y2="924.56189"
       x2="-184.52608"
       y1="908.56189"
       x1="-184.52608"
       id="linearGradient3820"
       xlink:href="#linearGradient3814"
       inkscape:collect="always" />
    <linearGradient
       id="linearGradient3812"
       xlink:href="#linearGradient3806"
       inkscape:collect="always"
       x1="0"
       y1="0"
       x2="1"
       y2="0"
       gradientUnits="userSpaceOnUse" />
    <linearGradient
       y2="-147.97206"
       x2="387.75485"
       y1="-310.05496"
       x1="381.89471"
       gradientTransform="matrix(0.70976448,0,0,0.73685473,-399.7518,1019.4468)"
       gradientUnits="userSpaceOnUse"
       id="linearGradient3407"
       xlink:href="#linearGradient3917"
       inkscape:collect="always" />
    <linearGradient
       y2="-147.97206"
       x2="387.75485"
       y1="-310.05496"
       x1="381.89471"
       gradientTransform="matrix(0.93571428,0,0,0.97142857,120.42449,1254.5051)"
       gradientUnits="userSpaceOnUse"
       id="linearGradient3404"
       xlink:href="#linearGradient3917"
       inkscape:collect="always" />
    <linearGradient
       y2="-148.13335"
       x2="387.75485"
       y1="-298.53522"
       x1="379.92142"
       gradientUnits="userSpaceOnUse"
       id="linearGradient3402"
       xlink:href="#linearGradient3952"
       inkscape:collect="always" />
    <linearGradient
       inkscape:collect="always"
       id="linearGradient3952">
      <stop
         style="stop-color:#0146a8;stop-opacity:1;"
         offset="0"
         id="stop3954" />
      <stop
         style="stop-color:#0146a8;stop-opacity:0;"
         offset="1"
         id="stop3956" />
    </linearGradient>
    <linearGradient
       id="linearGradient3940">
      <stop
         id="stop3942"
         offset="0"
         style="stop-color:#013397;stop-opacity:1" />
      <stop
         id="stop3944"
         offset="1"
         style="stop-color:#0169c8;stop-opacity:1" />
    </linearGradient>
    <linearGradient
       id="linearGradient3917">
      <stop
         style="stop-color:#edf4fd;stop-opacity:0.52845526;"
         offset="0"
         id="stop3919" />
      <stop
         style="stop-color:#175bb3;stop-opacity:0;"
         offset="1"
         id="stop3921" />
    </linearGradient>
    <inkscape:perspective
       sodipodi:type="inkscape:persp3d"
       inkscape:vp_x="0 : 526.18109 : 1"
       inkscape:vp_y="0 : 1000 : 0"
       inkscape:vp_z="744.09448 : 526.18109 : 1"
       inkscape:persp3d-origin="372.04724 : 350.78739 : 1"
       id="perspective10-2" />
    <inkscape:perspective
       id="perspective2884"
       inkscape:persp3d-origin="0.5 : 0.33333333 : 1"
       inkscape:vp_z="1 : 0.5 : 1"
       inkscape:vp_y="0 : 1000 : 0"
       inkscape:vp_x="0 : 0.5 : 1"
       sodipodi:type="inkscape:persp3d" />
    <inkscape:perspective
       id="perspective2958"
       inkscape:persp3d-origin="0.5 : 0.33333333 : 1"
       inkscape:vp_z="1 : 0.5 : 1"
       inkscape:vp_y="0 : 1000 : 0"
       inkscape:vp_x="0 : 0.5 : 1"
       sodipodi:type="inkscape:persp3d" />
    <inkscape:perspective
       id="perspective3071"
       inkscape:persp3d-origin="0.5 : 0.33333333 : 1"
       inkscape:vp_z="1 : 0.5 : 1"
       inkscape:vp_y="0 : 1000 : 0"
       inkscape:vp_x="0 : 0.5 : 1"
       sodipodi:type="inkscape:persp3d" />
    <inkscape:perspective
       id="perspective3137"
       inkscape:persp3d-origin="0.5 : 0.33333333 : 1"
       inkscape:vp_z="1 : 0.5 : 1"
       inkscape:vp_y="0 : 1000 : 0"
       inkscape:vp_x="0 : 0.5 : 1"
       sodipodi:type="inkscape:persp3d" />
    <linearGradient
       inkscape:collect="always"
       xlink:href="#linearGradient3952"
       id="linearGradient4173"
       gradientUnits="userSpaceOnUse"
       x1="379.92142"
       y1="-298.53522"
       x2="387.75485"
       y2="-148.13335" />
    <linearGradient
       y2="8.5619125"
       x2="-13.231469"
       y1="53.499222"
       x1="-10.321859"
       gradientTransform="translate(-31.675535,-0.03639532)"
       gradientUnits="userSpaceOnUse"
       id="linearGradient3490"
       xlink:href="#linearGradient3421"
       inkscape:collect="always" />
    <linearGradient
       y2="171.82336"
       x2="-48.793369"
       y1="122.0367"
       x1="-48.793369"
       gradientTransform="translate(-54.959304,-5.819217)"
       gradientUnits="userSpaceOnUse"
       id="linearGradient3478"
       xlink:href="#linearGradient3421"
       inkscape:collect="always" />
    <linearGradient
       gradientTransform="translate(-54.959294,-5.819217)"
       y2="184.75496"
       x2="-96.963577"
       y1="184.75496"
       x1="11.015276"
       gradientUnits="userSpaceOnUse"
       id="linearGradient3476"
       xlink:href="#linearGradient3449"
       inkscape:collect="always" />
    <linearGradient
       gradientUnits="userSpaceOnUse"
       y2="184.75496"
       x2="-96.963577"
       y1="184.75496"
       x1="11.015276"
       id="linearGradient3447"
       xlink:href="#linearGradient3449"
       inkscape:collect="always" />
    <linearGradient
       y2="171.82336"
       x2="-48.793369"
       y1="122.0367"
       x1="-48.793369"
       gradientTransform="translate(-3.4305288e-6,-4.9227357e-7)"
       gradientUnits="userSpaceOnUse"
       id="linearGradient3439"
       xlink:href="#linearGradient3421"
       inkscape:collect="always" />
    <linearGradient
       gradientTransform="translate(-3.5402576e-6,-5.3158797e-7)"
       gradientUnits="userSpaceOnUse"
       y2="8.5619125"
       x2="-13.231469"
       y1="53.499222"
       x1="-10.321859"
       id="linearGradient3427"
       xlink:href="#linearGradient3421"
       inkscape:collect="always" />
    <inkscape:perspective
       id="perspective259"
       inkscape:persp3d-origin="10.485 : 37.445999 : 1"
       inkscape:vp_z="20.969999 : 56.168999 : 1"
       inkscape:vp_y="0 : 1000 : 0"
       inkscape:vp_x="0 : 56.168999 : 1"
       sodipodi:type="inkscape:persp3d" />
    <linearGradient
       id="linearGradient3421"
       inkscape:collect="always">
      <stop
         id="stop3423"
         offset="0"
         style="stop-color:#ffeeaa;stop-opacity:1;" />
      <stop
         id="stop3425"
         offset="1"
         style="stop-color:#ffeeaa;stop-opacity:0;" />
    </linearGradient>
    <linearGradient
       inkscape:collect="always"
       id="linearGradient3449">
      <stop
         style="stop-color:#aad400;stop-opacity:1"
         offset="0"
         id="stop3451" />
      <stop
         style="stop-color:#ffeeaa;stop-opacity:0;"
         offset="1"
         id="stop3453" />
    </linearGradient>
    <linearGradient
       inkscape:collect="always"
       xlink:href="#linearGradient3952"
       id="linearGradient5057"
       gradientUnits="userSpaceOnUse"
       x1="379.92142"
       y1="-298.53522"
       x2="387.75485"
       y2="-148.13335" />
    <linearGradient
       inkscape:collect="always"
       xlink:href="#linearGradient3952"
       id="linearGradient5254"
       gradientUnits="userSpaceOnUse"
       x1="379.92142"
       y1="-298.53522"
       x2="387.75485"
       y2="-148.13335" />
    <linearGradient
       inkscape:collect="always"
       xlink:href="#linearGradient3917"
       id="linearGradient5256"
       gradientUnits="userSpaceOnUse"
       gradientTransform="matrix(0.93571428,0,0,0.97142857,-184.22449,1255.6129)"
       x1="381.89471"
       y1="-310.05496"
       x2="387.75485"
       y2="-147.97206" />
    <linearGradient
       inkscape:collect="always"
       xlink:href="#linearGradient3952"
       id="linearGradient5305"
       gradientUnits="userSpaceOnUse"
       x1="379.92142"
       y1="-298.53522"
       x2="387.75485"
       y2="-148.13335" />
    <linearGradient
       inkscape:collect="always"
       xlink:href="#linearGradient3917"
       id="linearGradient5307"
       gradientUnits="userSpaceOnUse"
       gradientTransform="matrix(0.93571428,0,0,0.97142857,-188.14223,661.08311)"
       x1="381.89471"
       y1="-310.05496"
       x2="387.75485"
       y2="-147.97206" />
    <linearGradient
       inkscape:collect="always"
       xlink:href="#linearGradient3952"
       id="linearGradient5323"
       gradientUnits="userSpaceOnUse"
       x1="379.92142"
       y1="-298.53522"
       x2="387.75485"
       y2="-148.13335" />
    <linearGradient
       inkscape:collect="always"
       xlink:href="#linearGradient3917"
       id="linearGradient5325"
       gradientUnits="userSpaceOnUse"
       gradientTransform="matrix(0.93571428,0,0,0.97142857,96.553265,671.01127)"
       x1="381.89471"
       y1="-310.05496"
       x2="387.75485"
       y2="-147.97206" />
    <linearGradient
       inkscape:collect="always"
       xlink:href="#linearGradient3952"
       id="linearGradient5335"
       gradientUnits="userSpaceOnUse"
       x1="379.92142"
       y1="-298.53522"
       x2="387.75485"
       y2="-148.13335" />
    <linearGradient
       inkscape:collect="always"
       xlink:href="#linearGradient3917"
       id="linearGradient5337"
       gradientUnits="userSpaceOnUse"
       gradientTransform="matrix(0.93571428,0,0,0.97142857,91.853206,957.71486)"
       x1="381.89471"
       y1="-310.05496"
       x2="387.75485"
       y2="-147.97206" />
    <linearGradient
       inkscape:collect="always"
       xlink:href="#linearGradient3952"
       id="linearGradient5368"
       gradientUnits="userSpaceOnUse"
       x1="379.92142"
       y1="-298.53522"
       x2="387.75485"
       y2="-148.13335" />
    <linearGradient
       inkscape:collect="always"
       xlink:href="#linearGradient3917"
       id="linearGradient5370"
       gradientUnits="userSpaceOnUse"
       gradientTransform="matrix(0.93571428,0,0,0.97142857,120.42449,1254.5051)"
       x1="381.89471"
       y1="-310.05496"
       x2="387.75485"
       y2="-147.97206" />
    <linearGradient
       inkscape:collect="always"
       xlink:href="#linearGradient3952"
       id="linearGradient5372"
       gradientUnits="userSpaceOnUse"
       x1="379.92142"
       y1="-298.53522"
       x2="387.75485"
       y2="-148.13335" />
    <linearGradient
       inkscape:collect="always"
       xlink:href="#linearGradient3917"
       id="linearGradient5374"
       gradientUnits="userSpaceOnUse"
       gradientTransform="matrix(0.93571428,0,0,0.97142857,-395.59376,1094.2791)"
       x1="381.89471"
       y1="-310.05496"
       x2="387.75485"
       y2="-147.97206" />
    <linearGradient
       inkscape:collect="always"
       xlink:href="#linearGradient3917"
       id="linearGradient5377"
       gradientUnits="userSpaceOnUse"
       gradientTransform="matrix(0.93571428,0,0,0.97142857,387.17357,670.22793)"
       x1="381.89471"
       y1="-310.05496"
       x2="387.75485"
       y2="-147.97206" />
    <linearGradient
       inkscape:collect="always"
       xlink:href="#linearGradient3952"
       id="linearGradient5402"
       gradientUnits="userSpaceOnUse"
       x1="379.92142"
       y1="-298.53522"
       x2="387.75485"
       y2="-148.13335" />
    <linearGradient
       inkscape:collect="always"
       xlink:href="#linearGradient3917"
       id="linearGradient5404"
       gradientUnits="userSpaceOnUse"
       gradientTransform="matrix(0.93571428,0,0,0.97142857,381.86871,926.59194)"
       x1="381.89471"
       y1="-310.05496"
       x2="387.75485"
       y2="-147.97206" />
    <linearGradient
       inkscape:collect="always"
       xlink:href="#linearGradient3952"
       id="linearGradient5425"
       gradientUnits="userSpaceOnUse"
       x1="379.92142"
       y1="-298.53522"
       x2="387.75485"
       y2="-148.13335" />
    <linearGradient
       inkscape:collect="always"
       xlink:href="#linearGradient3917"
       id="linearGradient5427"
       gradientUnits="userSpaceOnUse"
       gradientTransform="matrix(0.93571428,0,0,0.97142857,445.01414,1241.2113)"
       x1="381.89471"
       y1="-310.05496"
       x2="387.75485"
       y2="-147.97206" />
    <linearGradient
       inkscape:collect="always"
       xlink:href="#linearGradient3952"
       id="linearGradient5440"
       gradientUnits="userSpaceOnUse"
       x1="379.92142"
       y1="-298.53522"
       x2="387.75485"
       y2="-148.13335" />
    <linearGradient
       inkscape:collect="always"
       xlink:href="#linearGradient3917"
       id="linearGradient5442"
       gradientUnits="userSpaceOnUse"
       gradientTransform="matrix(0.93571428,0,0,0.97142857,738.55372,1228.9792)"
       x1="381.89471"
       y1="-310.05496"
       x2="387.75485"
       y2="-147.97206" />
    <linearGradient
       inkscape:collect="always"
       xlink:href="#linearGradient3917"
       id="linearGradient5445"
       gradientUnits="userSpaceOnUse"
       gradientTransform="matrix(0.93571428,0,0,0.97142857,681.21897,964.32054)"
       x1="381.89471"
       y1="-310.05496"
       x2="387.75485"
       y2="-147.97206" />
    <linearGradient
       inkscape:collect="always"
       xlink:href="#linearGradient3952"
       id="linearGradient5480"
       gradientUnits="userSpaceOnUse"
       x1="379.92142"
       y1="-298.53522"
       x2="387.75485"
       y2="-148.13335" />
    <linearGradient
       inkscape:collect="always"
       xlink:href="#linearGradient3917"
       id="linearGradient5482"
       gradientUnits="userSpaceOnUse"
       gradientTransform="matrix(0.93571428,0,0,0.97142857,689.98645,669.67217)"
       x1="381.89471"
       y1="-310.05496"
       x2="387.75485"
       y2="-147.97206" />
    <linearGradient
       id="linearGradient3806"
       inkscape:collect="always">
      <stop
         id="stop3808"
         offset="0"
         style="stop-color:#013397;stop-opacity:1;" />
      <stop
         id="stop3810"
         offset="1"
         style="stop-color:#013397;stop-opacity:0;" />
    </linearGradient>
    <linearGradient
       id="linearGradient3814"
       inkscape:collect="always">
      <stop
         id="stop3816"
         offset="0"
         style="stop-color:#ecc592;stop-opacity:0.94117647" />
      <stop
         id="stop3818"
         offset="1"
         style="stop-color:#c14141;stop-opacity:1" />
    </linearGradient>
    <linearGradient
       inkscape:collect="always"
       xlink:href="#linearGradient3814"
       id="linearGradient3941"
       x1="2.0384101e-07"
       y1="1.0000004"
       x2="2.0384101e-07"
       y2="15.000001"
       gradientUnits="userSpaceOnUse" />
  </defs>
  <sodipodi:namedview
     id="base"
     pagecolor="#ffffff"
     bordercolor="#666666"
     borderopacity="1.0"
     inkscape:pageopacity="0.0"
     inkscape:pageshadow="2"
     inkscape:zoom="25.75"
     inkscape:cx="7.3786408"
     inkscape:cy="9.8192027"
     inkscape:document-units="px"
     inkscape:current-layer="layer1"
     showgrid="false"
     inkscape:window-width="834"
     inkscape:window-height="1181"
     inkscape:window-x="0"
     inkscape:window-y="0"
     inkscape:window-maximized="0"
     showguides="true"
     inkscape:guide-bbox="true"
     fit-margin-top="0"
     fit-margin-left="0"
     fit-margin-right="0"
     fit-margin-bottom="0">
    <inkscape:grid
       type="xygrid"
       id="grid3932"
       empspacing="4"
       visible="true"
       enabled="true"
       snapvisiblegridlinesonly="true" />
  </sodipodi:namedview>
  <metadata
     id="metadata7">
    <rdf:RDF>
      <cc:Work
         rdf:about="">
        <dc:format>image/svg+xml</dc:format>
        <dc:type
           rdf:resource="http://purl.org/dc/dcmitype/StillImage" />
        <dc:title></dc:title>
      </cc:Work>
    </rdf:RDF>
  </metadata>
  <g
     inkscape:label="Capa 1"
     inkscape:groupmode="layer"
     id="layer1"
     transform="translate(-146.5,-280.8125)">
    <g
       id="g3913"
       transform="translate(0,-1.0000077)">
      <g
         transform="matrix(0.08667682,0,0,0.09655172,133.80185,268.15475)"
         id="g3081">
        <path
           style="fill:url(#linearGradient3941);fill-opacity:1;stroke:none"
           d="M 9.53125 1 C 7.7457517 1 6.2841786 2.4450121 6 4.34375 L 5.5625 4.4375 C 5.0433451 3.4605603 4.0620792 2.8125 2.96875 2.8125 C 1.3213253 2.8125 0 4.289888 0 6.125 C 0 7.6854129 0.97933641 8.9867674 2.28125 9.34375 L 2.28125 9.71875 L 1.65625 9.71875 L 1.65625 9.6875 L 0.9375 9.40625 L 0.4375 9.40625 L 1.25 11.25 L 1.53125 11.15625 L 1.6875 10.84375 L 2.28125 10.84375 L 2.28125 15 L 12.625 15 L 12.625 8.09375 L 11.84375 8.09375 C 12.642642 7.3579776 13.15625 6.2448761 13.15625 5 C 13.15625 2.7845534 11.52011 1 9.53125 1 z M 9.5 2.875 C 10.505276 2.875 11.3125 3.7864451 11.3125 4.90625 C 11.3125 6.0260549 10.505276 6.9375 9.5 6.9375 C 8.494724 6.9375 7.65625 6.0260549 7.65625 4.90625 C 7.65625 3.7864451 8.494724 2.875 9.5 2.875 z M 9.1875 3.5 C 9.0814917 3.5495433 9.03125 3.6764055 9.03125 3.8125 C 9.03125 3.9939593 9.1495996 4.15625 9.3125 4.15625 C 9.4754004 4.15625 9.625 3.9939593 9.625 3.8125 C 9.625 3.6310407 9.4754004 3.5 9.3125 3.5 C 9.2717749 3.5 9.2228361 3.4834856 9.1875 3.5 z M 10.21875 4.09375 C 10.05585 4.09375 9.9375 4.2560407 9.9375 4.4375 C 9.9375 4.6189583 10.05585 4.75 10.21875 4.75 C 10.38165 4.75 10.53125 4.6189583 10.53125 4.4375 C 10.53125 4.2560407 10.38165 4.09375 10.21875 4.09375 z M 3 4.34375 C 3.8137948 4.34375 4.46875 5.0622413 4.46875 5.96875 C 4.46875 6.8752587 3.8137948 7.625 3 7.625 C 2.1862052 7.625 1.53125 6.8752587 1.53125 5.96875 C 1.53125 5.0622413 2.1862052 4.34375 3 4.34375 z M 8.5 4.375 C 8.3939914 4.4250387 8.3125 4.5514055 8.3125 4.6875 C 8.3125 4.8689583 8.4620996 5.03125 8.625 5.03125 C 8.7879004 5.03125 8.90625 4.8689583 8.90625 4.6875 C 8.90625 4.5060407 8.7879004 4.375 8.625 4.375 C 8.5842749 4.375 8.5353362 4.3583204 8.5 4.375 z M 2.84375 4.8125 C 2.711879 4.8125 2.625 4.9468543 2.625 5.09375 C 2.625 5.2406457 2.711879 5.34375 2.84375 5.34375 C 2.9756218 5.34375 3.09375 5.2406457 3.09375 5.09375 C 3.09375 4.9468543 2.9756218 4.8125 2.84375 4.8125 z M 10.125 5.25 C 9.9620996 5.25 9.8125 5.4122907 9.8125 5.59375 C 9.8125 5.7752093 9.9620996 5.90625 10.125 5.90625 C 10.2879 5.90625 10.40625 5.7752093 10.40625 5.59375 C 10.40625 5.4122907 10.2879 5.25 10.125 5.25 z M 3.59375 5.3125 C 3.4618782 5.3125 3.34375 5.4468543 3.34375 5.59375 C 3.34375 5.7406448 3.4618782 5.84375 3.59375 5.84375 C 3.7256218 5.84375 3.8125 5.7406448 3.8125 5.59375 C 3.8125 5.4468543 3.7256218 5.3125 3.59375 5.3125 z M 8.90625 5.46875 C 8.8002417 5.5182936 8.75 5.6451555 8.75 5.78125 C 8.75 5.9627083 8.8683496 6.125 9.03125 6.125 C 9.1941504 6.125 9.3125 5.9627083 9.3125 5.78125 C 9.3125 5.5997907 9.1941504 5.46875 9.03125 5.46875 C 8.9905249 5.46875 8.9415861 5.4522355 8.90625 5.46875 z M 2.28125 5.53125 C 2.149379 5.53125 2.03125 5.6343543 2.03125 5.78125 C 2.03125 5.9281448 2.149379 6.0625 2.28125 6.0625 C 2.4131218 6.0625 2.53125 5.9281448 2.53125 5.78125 C 2.53125 5.6343543 2.4131218 5.53125 2.28125 5.53125 z M 3.5 6.25 C 3.3681282 6.25 3.25 6.3843543 3.25 6.53125 C 3.25 6.6781457 3.3681282 6.78125 3.5 6.78125 C 3.6318718 6.78125 3.75 6.6781457 3.75 6.53125 C 3.75 6.3843543 3.6318718 6.25 3.5 6.25 z M 2.625 6.40625 C 2.4931282 6.40625 2.375 6.5406043 2.375 6.6875 C 2.375 6.8343948 2.4931282 6.9375 2.625 6.9375 C 2.7568718 6.9375 2.84375 6.8343948 2.84375 6.6875 C 2.84375 6.5406043 2.7568718 6.40625 2.625 6.40625 z M 6.40625 7 C 6.622654 7.422792 6.9150724 7.7852845 7.25 8.09375 L 5.375 8.09375 C 5.5703892 7.7993361 5.7438335 7.48256 5.84375 7.125 L 6.40625 7 z M 16 7.6875 L 14.15625 8.90625 L 12.75 8.90625 L 12.75 12 L 14.15625 12 L 16 13.21875 L 16 7.6875 z M 11.59375 13.59375 C 11.773264 13.59375 11.90625 13.768785 11.90625 13.96875 C 11.90625 14.168715 11.773264 14.34375 11.59375 14.34375 C 11.414236 14.34375 11.28125 14.168715 11.28125 13.96875 C 11.28125 13.768785 11.414236 13.59375 11.59375 13.59375 z "
           transform="matrix(11.53711,0,0,10.357143,146.49995,141.45535)"
           id="path2829" />
      </g>
    </g>
  </g>
</svg>
