# Blender v242 OBJ File: cadeira.blend
# www.blender3d.org
mtllib cadeira.mtl
o Cube_Cube
v -3.652086 5.711993 3.294603
v 4.368346 5.711551 3.294604
v 4.368345 5.709377 3.944432
v -3.652087 5.709819 3.944430
v -3.652042 6.468769 3.297133
v 4.368389 6.468327 3.297137
v 4.368386 6.466154 3.946965
v -3.652045 6.466596 3.946962
v -3.652022 6.879800 4.518199
v 4.368409 6.879358 4.518201
v -3.652023 6.858224 5.348361
v 4.368408 6.857782 5.348363
v 4.346545 13.851078 5.364587
v -3.627763 13.851518 5.364584
v 4.346543 13.826530 4.534271
v -3.627764 13.826970 4.534269
v 4.368392 6.485453 -1.822591
v -3.652040 6.485896 -1.822596
v 4.368349 5.728677 -1.825124
v -3.652083 5.729119 -1.825126
v -3.652083 5.731433 -2.516980
v 4.368349 5.730991 -2.516979
v -3.652040 6.488210 -2.514450
v 4.368392 6.487768 -2.514446
v 4.368344 5.614195 -3.347603
v -3.652087 5.614637 -3.347607
v 4.368319 5.180284 -3.349056
v -3.652113 5.180726 -3.349057
v 3.586794 5.731034 -2.516979
v -2.892315 5.731391 -2.516980
v -2.916652 5.729078 -1.825125
v 3.562457 5.728721 -1.825125
v 3.562153 0.240031 -1.843484
v 3.586489 0.242344 -2.535338
v 4.368044 0.242301 -2.535338
v 4.368044 0.239987 -1.843484
v -2.916956 0.240388 -1.843485
v -2.892620 0.242701 -2.535339
v -3.652387 0.242743 -2.535340
v -3.652387 0.240429 -1.843485
v 3.540665 5.711594 3.294604
v -2.846194 5.711949 3.294603
v -2.870529 5.709779 3.944431
v 3.516329 5.709423 3.944432
v -2.870832 0.221087 3.926072
v -2.846496 0.223257 3.276245
v -3.652389 0.221127 3.926071
v -3.652388 0.223301 3.276244
v 3.516026 0.220731 3.926073
v 3.540362 0.222902 3.276245
v 4.368042 0.220685 3.926074
v 4.368043 0.222858 3.276245
vt 0.000000 1.000000 0.0
vt 0.000000 0.000000 0.0
vt 1.000000 0.000000 0.0
vt 1.000000 1.000000 0.0
vn 0.000055 0.999994 0.003345
vn 1.000000 -0.000055 0.000003
vn -1.000000 0.000056 -0.000002
vn -1.000000 0.000056 -0.000000
vn 1.000000 -0.000054 -0.000001
vn 0.000045 0.810245 -0.586091
vn -0.000000 -0.002320 0.999997
vn 0.000000 0.002313 -0.999997
vn 0.999995 0.003137 -0.000006
vn -0.999994 0.003480 -0.000007
vn 0.000055 0.999563 -0.029551
vn 1.000000 -0.000057 0.000000
vn -1.000000 0.000057 -0.000000
vn 1.000000 -0.000058 0.000002
vn -1.000000 0.000057 -0.000002
vn 0.000038 0.690169 -0.723648
vn -0.999382 0.000173 -0.035153
vn -0.000000 -0.003345 0.999994
vn 0.000000 0.003345 -0.999994
vn 1.000000 -0.000055 -0.000000
vn 0.999382 -0.000173 0.035154
vn -1.000000 0.000055 -0.000000
vn 0.999299 -0.000180 0.037423
vn -0.000002 -0.003345 0.999994
vn 0.000001 0.003345 -0.999994
vn -1.000000 0.000055 -0.000002
vn -0.999299 0.000180 -0.037423
vn -0.000001 -0.003345 0.999994
vn 1.000000 -0.000055 0.000001
vn 0.000053 0.999994 0.003344
vn -0.000056 -0.999994 -0.003342
vn -0.000043 -0.774029 0.633150
vn -0.000055 -0.999994 -0.003345
vn -0.000046 -0.833901 0.551914
vn -0.000053 -0.999994 -0.003343
vn -0.000000 -0.003346 0.999994
usemtl Material
s off
f 5/1/1 8/2/1 7/3/1 6/4/1
f 2/1/2 6/2/2 7/3/2 3/4/2
f 5/1/3 1/2/3 4/3/3 8/4/3
f 8/1/4 4/2/4 11/3/4 9/4/4
f 3/1/5 7/2/5 10/3/5 12/4/5
f 7/1/6 8/2/6 9/3/6 10/4/6
f 11/1/7 12/2/7 13/3/7 14/4/7
f 10/1/8 9/2/8 16/3/8 15/4/8
f 12/1/9 10/2/9 15/3/9 13/4/9
f 9/1/10 11/2/10 14/3/10 16/4/10
f 13/1/11 15/2/11 16/3/11 14/4/11
f 6/1/12 2/2/12 19/3/12 17/4/12
f 1/1/13 5/2/13 18/3/13 20/4/13
f 5/1/1 6/2/1 17/3/1 18/4/1
f 18/1/1 17/2/1 24/3/1 23/4/1
f 20/1/13 18/2/13 23/3/13 21/4/13
f 17/1/12 19/2/12 22/3/12 24/4/12
f 24/1/14 22/2/14 27/3/14 25/4/14
f 21/1/15 23/2/15 26/3/15 28/4/15
f 23/1/16 24/2/16 25/3/16 26/4/16
f 32/1/17 29/2/17 34/3/17 33/4/17
f 32/1/18 33/4/18 36/3/18 19/2/18
f 29/1/19 22/2/19 35/3/19 34/4/19
f 22/1/20 19/2/20 36/3/20 35/4/20
f 31/1/21 37/4/21 38/3/21 30/2/21
f 20/1/18 40/4/18 37/3/18 31/2/18
f 30/1/19 38/4/19 39/3/19 21/2/19
f 20/1/22 21/2/22 39/3/22 40/4/22
f 43/1/23 45/4/23 46/3/23 42/2/23
f 4/1/24 47/4/24 45/3/24 43/2/24
f 1/1/25 42/2/25 46/3/25 48/4/25
f 4/1/26 1/2/26 48/3/26 47/4/26
f 44/1/27 41/2/27 50/3/27 49/4/27
f 3/1/28 44/2/28 49/3/28 51/4/28
f 2/1/25 52/4/25 50/3/25 41/2/25
f 2/1/29 3/2/29 51/3/29 52/4/29
f 25/1/25 27/2/25 28/3/25 26/4/25
f 1/1/30 4/4/30 43/3/30 42/2/30
f 2/1/30 41/4/30 44/3/30 3/2/30
f 42/1/31 41/2/31 44/3/31 43/4/31
f 3/1/32 12/2/32 11/3/32 4/4/32
f 1/1/33 20/4/33 19/3/33 2/2/33
f 21/1/34 28/4/34 27/3/34 22/2/34
f 49/1/35 50/2/35 52/3/35 51/4/35
f 33/1/33 34/2/33 35/3/33 36/4/33
f 37/1/33 40/4/33 39/3/33 38/2/33
f 45/1/35 47/4/35 48/3/35 46/2/35
f 29/1/33 32/2/33 31/3/33 30/4/33
f 7/1/36 8/2/36 4/3/36 3/4/36
