# Blender v242 OBJ File: quadro.blend
# www.blender3d.org
mtllib quadro.mtl
o Cube_Cube
v 18.665083 40.851704 -1.528297
v 18.665083 20.396767 -1.528297
v -18.665085 20.396769 -1.528297
v -18.665077 40.851707 -1.528297
v 18.665092 40.851696 1.528297
v 18.665071 20.396761 1.528297
v -18.665089 20.396770 1.528297
v -18.665081 40.851704 1.528297
v 18.665081 21.880152 1.528297
v -18.665085 21.880159 1.528297
v -17.372904 40.851700 1.528297
v -17.372911 21.880156 1.528297
v 17.445345 40.851700 1.528297
v 17.445337 21.880154 1.528297
v -17.372910 40.220966 1.528297
v 17.445341 40.220966 1.528297
v 17.314466 20.396767 1.528297
v -17.382526 20.396769 1.528297
v -17.382526 20.396769 2.318311
v 17.314466 20.396767 2.318311
v 17.445341 40.220966 2.318311
v -17.372910 40.220966 2.318311
v 17.445337 21.880154 2.318311
v 17.445345 40.851700 2.318311
v -17.372911 21.332685 2.318311
v -17.372904 40.851700 2.318311
v -18.665085 21.880159 2.318311
v 18.665081 21.332682 2.318311
v -18.665081 40.851704 2.318311
v -18.665089 20.396770 2.318311
v 18.665071 20.396761 2.318311
v 18.665092 40.851696 2.318311
v 18.665071 20.396761 3.001283
v -18.665089 20.396770 3.001283
v 18.665081 21.880152 3.001283
v -18.665085 21.880159 3.001283
v -17.372911 21.880156 3.001283
v 17.445337 21.880154 3.001283
v 17.314466 20.396767 3.001283
v -17.382526 20.396769 3.001283
vn 0.000000 0.000000 -1.000000
vn 1.000000 0.000000 0.000001
vn 1.000000 -0.000001 -0.000003
vn 1.000000 -0.000006 0.000004
vn -1.000000 0.000000 -0.000000
vn -1.000000 0.000003 -0.000001
vn -1.000000 0.000000 -0.000001
vn 0.000000 1.000000 0.000002
vn 0.000003 1.000000 0.000001
vn 0.000000 1.000000 0.000001
vn 0.000003 1.000000 0.000002
vn -0.000000 -1.000000 -0.000000
vn -0.000004 -1.000000 -0.000002
vn -0.000001 -1.000000 0.000001
vn -0.000001 -1.000000 0.000000
vn 0.000000 1.000000 0.000000
vn -0.032933 -0.944374 -0.327220
vn -0.000004 -1.000000 0.000000
vn 1.000000 -0.000000 0.000000
vn 0.007428 -0.944861 -0.327388
vn 0.000003 1.000000 0.000000
vn 0.031700 0.944412 0.327233
vn -0.000003 -1.000000 0.000000
vn 1.000000 -0.000003 0.000000
vn -1.000000 0.000001 0.000000
vn 0.000000 0.000000 1.000000
vn -1.000000 0.000008 0.000003
vn -1.000000 0.000008 -0.000003
vn -0.203935 -0.908713 0.364212
vn 0.192943 0.910779 -0.365040
vn -1.000000 0.000003 0.000000
vn 0.031142 0.927770 -0.371850
vn 0.007297 -0.928196 0.372021
vn -0.032353 -0.927735 0.371836
usemtl Madeira
s off
f 1//1 2//1 3//1 4//1
f 2//2 1//2 9//2
f 9//3 1//3 5//3
f 9//4 6//4 2//4
f 10//5 4//5 3//5
f 7//6 10//6 3//6
f 10//7 8//7 4//7
f 11//8 1//8 4//8
f 8//9 11//9 4//9
f 13//10 1//10 11//10
f 5//11 1//11 13//11
f 17//12 3//12 2//12
f 6//13 17//13 2//13
f 17//12 18//12 3//12
f 18//14 7//14 3//14
f 7//15 18//15 19//15 30//15
f 17//16 18//16 19//16 20//16
f 12//17 17//17 20//17 25//17
f 17//18 6//18 31//18 20//18
f 16//16 15//16 22//16 21//16
f 14//19 16//19 21//19 23//19
f 15//5 12//5 25//5 22//5
f 12//20 14//20 23//20 25//20
f 5//21 13//21 24//21 32//21
f 11//12 13//12 24//12 26//12
f 6//22 12//22 25//22 31//22
f 8//23 11//23 26//23 29//23
f 8//5 10//5 27//5 29//5
f 7//24 10//24 27//24 30//24
f 5//25 9//25 28//25 32//25
f 21//26 32//26 24//26
f 21//26 24//26 26//26 22//26
f 22//26 26//26 29//26
f 22//26 29//26 27//26 25//26
f 21//1 32//1 28//1 23//1
f 6//27 31//27 28//27 9//27
f 28//28 31//28 33//28 35//28
f 23//29 28//29 35//29 38//29
f 25//30 27//30 36//30 37//30
f 27//31 30//31 34//31 36//31
f 31//32 25//32 37//32 33//32
f 25//33 23//33 38//33 37//33
f 25//34 20//34 39//34 37//34
f 20//16 19//16 40//16 39//16
f 30//15 19//15 40//15 34//15
f 39//26 33//26 37//26
f 40//26 37//26 36//26 34//26
f 39//1 38//1 35//1 33//1
f 40//1 37//1 38//1 39//1
usemtl Quadro
f 12//1 15//1 16//1 14//1
