<?xml version="1.0" encoding="UTF-8" standalone="no"?>
<!-- Created with Inkscape (http://www.inkscape.org/) -->

<svg
   xmlns:dc="http://purl.org/dc/elements/1.1/"
   xmlns:cc="http://creativecommons.org/ns#"
   xmlns:rdf="http://www.w3.org/1999/02/22-rdf-syntax-ns#"
   xmlns:svg="http://www.w3.org/2000/svg"
   xmlns="http://www.w3.org/2000/svg"
   xmlns:xlink="http://www.w3.org/1999/xlink"
   xmlns:sodipodi="http://sodipodi.sourceforge.net/DTD/sodipodi-0.dtd"
   xmlns:inkscape="http://www.inkscape.org/namespaces/inkscape"
   width="210mm"
   height="297mm"
   id="svg2"
   version="1.1"
   inkscape:version="0.48.2 r9819"
   sodipodi:docname="nodeeditor.svg">
  <defs
     id="defs4">
    <pattern
       inkscape:collect="always"
       xlink:href="#Strips1_1"
       id="pattern5317"
       patternTransform="matrix(10,0,0,10,-121.43507,-551.83163)" />
    <pattern
       inkscape:stockid="Stripes 1:1"
       id="Strips1_1"
       patternTransform="translate(0,0) scale(10,10)"
       height="1"
       width="2"
       patternUnits="userSpaceOnUse"
       inkscape:collect="always">
      <rect
         id="rect4578"
         height="2"
         width="1"
         y="-0.5"
         x="0"
         style="fill:black;stroke:none" />
    </pattern>
  </defs>
  <sodipodi:namedview
     id="base"
     pagecolor="#ffffff"
     bordercolor="#666666"
     borderopacity="1.0"
     inkscape:pageopacity="0.0"
     inkscape:pageshadow="2"
     inkscape:zoom="1.4"
     inkscape:cx="277.66759"
     inkscape:cy="910.626"
     inkscape:document-units="px"
     inkscape:current-layer="layer1"
     showgrid="false"
     inkscape:window-width="1440"
     inkscape:window-height="806"
     inkscape:window-x="0"
     inkscape:window-y="31"
     inkscape:window-maximized="1" />
  <metadata
     id="metadata7">
    <rdf:RDF>
      <cc:Work
         rdf:about="">
        <dc:format>image/svg+xml</dc:format>
        <dc:type
           rdf:resource="http://purl.org/dc/dcmitype/StillImage" />
        <dc:title></dc:title>
      </cc:Work>
    </rdf:RDF>
  </metadata>
  <g
     inkscape:label="Camada 1"
     inkscape:groupmode="layer"
     id="layer1">
    <g
       id="g3100" />
    <g
       id="g3905"
       transform="translate(255.06352,24.748737)">
      <g
         id="g3119">
        <g
           id="g3106">
          <path
             style="fill:#1a1a1a;stroke:#000000;stroke-width:1px;stroke-linecap:butt;stroke-linejoin:miter;stroke-opacity:1"
             d="M 80.71429,60.790752 80,74.005038 65,67.219324 z"
             id="path3078"
             inkscape:connector-curvature="0" />
          <path
             inkscape:connector-curvature="0"
             id="path3080"
             d="m 101,60.790752 0.71429,13.214286 15,-6.785714 z"
             style="fill:#1a1a1a;stroke:#000000;stroke-width:1px;stroke-linecap:butt;stroke-linejoin:miter;stroke-opacity:1" />
          <path
             inkscape:connector-curvature="0"
             id="path3082"
             d="m 80.714286,65.93361 20.714284,0 0.0893,3.749999 -20.982146,-0.267858 z"
             style="fill:#000000;stroke:#000000;stroke-width:1px;stroke-linecap:butt;stroke-linejoin:miter;stroke-opacity:1" />
        </g>
        <g
           id="g3111"
           transform="matrix(0,1,-1,0,158.25504,-23.45925)">
          <path
             inkscape:connector-curvature="0"
             id="path3113"
             d="M 80.71429,60.790752 80,74.005038 65,67.219324 z"
             style="fill:#1a1a1a;stroke:#000000;stroke-width:1px;stroke-linecap:butt;stroke-linejoin:miter;stroke-opacity:1" />
          <path
             style="fill:#1a1a1a;stroke:#000000;stroke-width:1px;stroke-linecap:butt;stroke-linejoin:miter;stroke-opacity:1"
             d="m 101,60.790752 0.71429,13.214286 15,-6.785714 z"
             id="path3115"
             inkscape:connector-curvature="0" />
          <path
             style="fill:#000000;stroke:#000000;stroke-width:1px;stroke-linecap:butt;stroke-linejoin:miter;stroke-opacity:1"
             d="m 80.714286,65.93361 20.714284,0 0.0893,3.749999 -20.982146,-0.267858 z"
             id="path3117"
             inkscape:connector-curvature="0" />
        </g>
      </g>
      <text
         sodipodi:linespacing="125%"
         id="text3901"
         y="84.636047"
         x="73.488594"
         style="font-size:48px;font-style:normal;font-weight:normal;line-height:125%;letter-spacing:0px;word-spacing:0px;fill:#d40000;fill-opacity:1;stroke:none;font-family:Sans"
         xml:space="preserve"><tspan
           y="84.636047"
           x="73.488594"
           id="tspan3903"
           sodipodi:role="line">X</tspan></text>
    </g>
    <g
       id="g5349"
       inkscape:export-filename="/projetos/dccnitghtmare/data/mapEditor/nodeeditor.png"
       inkscape:export-xdpi="90"
       inkscape:export-ydpi="90">
      <g
         inkscape:export-ydpi="90"
         inkscape:export-xdpi="90"
         inkscape:export-filename="/projetos/dccnitghtmare/data/mapEditor/nodeeditor.png"
         id="g4118">
        <g
           id="g3976">
          <path
             sodipodi:type="spiral"
             style="fill:none;stroke:#000000;stroke-width:1px;stroke-linecap:butt;stroke-linejoin:miter;stroke-opacity:1"
             id="path2989"
             sodipodi:cx="185.86807"
             sodipodi:cy="62.412689"
             sodipodi:expansion="1"
             sodipodi:revolution="0.92334044"
             sodipodi:radius="15.436033"
             sodipodi:argument="-16.797096"
             sodipodi:t0="0.51122516"
             d="m 188.24495,54.88787 c 5.83473,-0.112299 9.61273,5.787198 9.13325,11.160538 -0.54368,6.092854 -5.63387,10.787421 -11.51008,11.800314"
             transform="translate(-10,0)" />
          <path
             style="fill:#1a1a1a;stroke:#000000;stroke-width:1px;stroke-linecap:butt;stroke-linejoin:miter;stroke-opacity:1"
             d="M 180.71429,68.790752 180,82.005038 165,75.219324 z"
             id="path2991"
             inkscape:connector-curvature="0" />
          <text
             xml:space="preserve"
             style="font-size:14px;font-style:normal;font-weight:normal;line-height:125%;letter-spacing:0px;word-spacing:0px;fill:#d40000;fill-opacity:1;stroke:none;font-family:Sans"
             x="171.57143"
             y="67.362183"
             id="text3003"
             sodipodi:linespacing="125%"><tspan
               sodipodi:role="line"
               id="tspan3005"
               x="171.57143"
               y="67.362183">x</tspan></text>
          <g
             transform="matrix(-1,0,0,1,404.4191,0)"
             id="g3018">
            <g
               id="g3020">
              <path
                 sodipodi:type="spiral"
                 style="fill:none;stroke:#000000;stroke-width:1px;stroke-linecap:butt;stroke-linejoin:miter;stroke-opacity:1"
                 id="path3022"
                 sodipodi:cx="185.86807"
                 sodipodi:cy="62.412689"
                 sodipodi:expansion="1"
                 sodipodi:revolution="0.92334044"
                 sodipodi:radius="15.436033"
                 sodipodi:argument="-16.797096"
                 sodipodi:t0="0.51122516"
                 d="m 188.24495,54.88787 c 5.83473,-0.112299 9.61273,5.787198 9.13325,11.160538 -0.54368,6.092854 -5.63387,10.787421 -11.51008,11.800314" />
              <path
                 style="fill:#1a1a1a;stroke:#000000;stroke-width:1px;stroke-linecap:butt;stroke-linejoin:miter;stroke-opacity:1"
                 d="M 190.71429,68.790752 190,82.005038 175,75.219324 z"
                 id="path3024"
                 inkscape:connector-curvature="0" />
            </g>
            <text
               sodipodi:linespacing="125%"
               id="text3026"
               y="67.362183"
               x="181.57143"
               style="font-size:14px;font-style:normal;font-weight:normal;line-height:125%;letter-spacing:0px;word-spacing:0px;fill:#d40000;fill-opacity:1;stroke:none;font-family:Sans"
               xml:space="preserve"><tspan
                 y="67.362183"
                 x="181.57143"
                 id="tspan3028"
                 sodipodi:role="line">x</tspan></text>
          </g>
        </g>
        <g
           id="g3988">
          <g
             id="g3030"
             transform="translate(-10,38)">
            <g
               id="g3032">
              <path
                 sodipodi:type="spiral"
                 style="fill:none;stroke:#000000;stroke-width:1px;stroke-linecap:butt;stroke-linejoin:miter;stroke-opacity:1"
                 id="path3034"
                 sodipodi:cx="185.86807"
                 sodipodi:cy="62.412689"
                 sodipodi:expansion="1"
                 sodipodi:revolution="0.92334044"
                 sodipodi:radius="15.436033"
                 sodipodi:argument="-16.797096"
                 sodipodi:t0="0.51122516"
                 d="m 188.24495,54.88787 c 5.83473,-0.112299 9.61273,5.787198 9.13325,11.160538 -0.54368,6.092854 -5.63387,10.787421 -11.51008,11.800314" />
              <path
                 style="fill:#1a1a1a;stroke:#000000;stroke-width:1px;stroke-linecap:butt;stroke-linejoin:miter;stroke-opacity:1"
                 d="M 190.71429,68.790752 190,82.005038 175,75.219324 z"
                 id="path3036"
                 inkscape:connector-curvature="0" />
            </g>
            <text
               sodipodi:linespacing="125%"
               id="text3038"
               y="67.362183"
               x="181.57143"
               style="font-size:14px;font-style:normal;font-weight:normal;line-height:125%;letter-spacing:0px;word-spacing:0px;fill:#008000;fill-opacity:1;stroke:none;font-family:Sans"
               xml:space="preserve"><tspan
                 y="67.362183"
                 x="181.57143"
                 id="tspan3040"
                 sodipodi:role="line">y</tspan></text>
          </g>
          <g
             id="g3042"
             transform="matrix(-1,0,0,1,404.4191,38)">
            <g
               id="g3044">
              <path
                 d="m 188.24495,54.88787 c 5.83473,-0.112299 9.61273,5.787198 9.13325,11.160538 -0.54368,6.092854 -5.63387,10.787421 -11.51008,11.800314"
                 sodipodi:t0="0.51122516"
                 sodipodi:argument="-16.797096"
                 sodipodi:radius="15.436033"
                 sodipodi:revolution="0.92334044"
                 sodipodi:expansion="1"
                 sodipodi:cy="62.412689"
                 sodipodi:cx="185.86807"
                 id="path3046"
                 style="fill:none;stroke:#000000;stroke-width:1px;stroke-linecap:butt;stroke-linejoin:miter;stroke-opacity:1"
                 sodipodi:type="spiral" />
              <path
                 inkscape:connector-curvature="0"
                 id="path3048"
                 d="M 190.71429,68.790752 190,82.005038 175,75.219324 z"
                 style="fill:#1a1a1a;stroke:#000000;stroke-width:1px;stroke-linecap:butt;stroke-linejoin:miter;stroke-opacity:1" />
            </g>
            <text
               transform="scale(-1,1)"
               xml:space="preserve"
               style="font-size:14px;font-style:normal;font-weight:normal;line-height:125%;letter-spacing:0px;word-spacing:0px;fill:#008000;fill-opacity:1;stroke:none;font-family:Sans"
               x="-189.85658"
               y="67.362183"
               id="text3050"
               sodipodi:linespacing="125%"><tspan
                 sodipodi:role="line"
                 id="tspan3052"
                 x="-189.85658"
                 y="67.362183">y</tspan></text>
          </g>
        </g>
        <g
           id="g4002">
          <g
             transform="translate(-10,72)"
             id="g3054">
            <g
               id="g3056">
              <path
                 d="m 188.24495,54.88787 c 5.83473,-0.112299 9.61273,5.787198 9.13325,11.160538 -0.54368,6.092854 -5.63387,10.787421 -11.51008,11.800314"
                 sodipodi:t0="0.51122516"
                 sodipodi:argument="-16.797096"
                 sodipodi:radius="15.436033"
                 sodipodi:revolution="0.92334044"
                 sodipodi:expansion="1"
                 sodipodi:cy="62.412689"
                 sodipodi:cx="185.86807"
                 id="path3058"
                 style="fill:none;stroke:#000000;stroke-width:1px;stroke-linecap:butt;stroke-linejoin:miter;stroke-opacity:1"
                 sodipodi:type="spiral" />
              <path
                 inkscape:connector-curvature="0"
                 id="path3060"
                 d="M 190.71429,68.790752 190,82.005038 175,75.219324 z"
                 style="fill:#1a1a1a;stroke:#000000;stroke-width:1px;stroke-linecap:butt;stroke-linejoin:miter;stroke-opacity:1" />
            </g>
            <text
               xml:space="preserve"
               style="font-size:14px;font-style:normal;font-weight:normal;line-height:125%;letter-spacing:0px;word-spacing:0px;fill:#0000ff;fill-opacity:1;stroke:none;font-family:Sans"
               x="181.57143"
               y="67.362183"
               id="text3062"
               sodipodi:linespacing="125%"><tspan
                 sodipodi:role="line"
                 id="tspan3064"
                 x="181.57143"
                 y="67.362183">z</tspan></text>
          </g>
          <g
             transform="matrix(-1,0,0,1,404.4191,72)"
             id="g3066">
            <g
               id="g3068">
              <path
                 sodipodi:type="spiral"
                 style="fill:none;stroke:#000000;stroke-width:1px;stroke-linecap:butt;stroke-linejoin:miter;stroke-opacity:1"
                 id="path3070"
                 sodipodi:cx="185.86807"
                 sodipodi:cy="62.412689"
                 sodipodi:expansion="1"
                 sodipodi:revolution="0.92334044"
                 sodipodi:radius="15.436033"
                 sodipodi:argument="-16.797096"
                 sodipodi:t0="0.51122516"
                 d="m 188.24495,54.88787 c 5.83473,-0.112299 9.61273,5.787198 9.13325,11.160538 -0.54368,6.092854 -5.63387,10.787421 -11.51008,11.800314" />
              <path
                 style="fill:#1a1a1a;stroke:#000000;stroke-width:1px;stroke-linecap:butt;stroke-linejoin:miter;stroke-opacity:1"
                 d="M 190.71429,68.790752 190,82.005038 175,75.219324 z"
                 id="path3072"
                 inkscape:connector-curvature="0" />
            </g>
            <text
               transform="scale(-1,1)"
               sodipodi:linespacing="125%"
               id="text3074"
               y="67.362183"
               x="-188.92006"
               style="font-size:14px;font-style:normal;font-weight:normal;line-height:125%;letter-spacing:0px;word-spacing:0px;fill:#0000ff;fill-opacity:1;stroke:none;font-family:Sans"
               xml:space="preserve"><tspan
                 y="67.362183"
                 x="-188.92006"
                 id="tspan3076"
                 sodipodi:role="line">z</tspan></text>
          </g>
        </g>
        <g
           id="g3959"
           transform="translate(32.829958,-1.0101525)">
          <path
             style="fill:#1a1a1a;stroke:#000000;stroke-width:1px;stroke-linecap:butt;stroke-linejoin:miter;stroke-opacity:1"
             d="m 93.392858,132.36219 -13.21429,-0.71429 6.78572,-15 z"
             id="path2991-4"
             inkscape:connector-curvature="0" />
          <path
             inkscape:connector-curvature="0"
             id="path3955"
             d="m 86.785714,132.36218 0.357143,20"
             style="fill:none;stroke:#000000;stroke-width:1px;stroke-linecap:butt;stroke-linejoin:miter;stroke-opacity:1" />
          <path
             style="fill:none;stroke:#000000;stroke-width:1px;stroke-linecap:butt;stroke-linejoin:miter;stroke-opacity:1"
             d="m 85.922136,132.36218 0.357143,20"
             id="path3957"
             inkscape:connector-curvature="0" />
        </g>
        <g
           id="g3964"
           transform="matrix(1,0,0,-1,56.568542,266.98978)">
          <path
             inkscape:connector-curvature="0"
             id="path3966"
             d="m 93.392858,132.36219 -13.21429,-0.71429 6.78572,-15 z"
             style="fill:#1a1a1a;stroke:#000000;stroke-width:1px;stroke-linecap:butt;stroke-linejoin:miter;stroke-opacity:1" />
          <path
             style="fill:none;stroke:#000000;stroke-width:1px;stroke-linecap:butt;stroke-linejoin:miter;stroke-opacity:1"
             d="m 86.785714,132.36218 0.357143,20"
             id="path3968"
             inkscape:connector-curvature="0" />
          <path
             inkscape:connector-curvature="0"
             id="path3970"
             d="m 85.922136,132.36218 0.357143,20"
             style="fill:none;stroke:#000000;stroke-width:1px;stroke-linecap:butt;stroke-linejoin:miter;stroke-opacity:1" />
        </g>
        <g
           transform="translate(-14.647212,36.365491)"
           id="g4016">
          <g
             id="g4018">
            <g
               id="g4020">
              <path
                 inkscape:connector-curvature="0"
                 id="path4022"
                 d="M 80.71429,60.790752 80,74.005038 65,67.219324 z"
                 style="fill:#1a1a1a;stroke:#000000;stroke-width:1px;stroke-linecap:butt;stroke-linejoin:miter;stroke-opacity:1" />
              <path
                 style="fill:#1a1a1a;stroke:#000000;stroke-width:1px;stroke-linecap:butt;stroke-linejoin:miter;stroke-opacity:1"
                 d="m 101,60.790752 0.71429,13.214286 15,-6.785714 z"
                 id="path4024"
                 inkscape:connector-curvature="0" />
              <path
                 style="fill:#000000;stroke:#000000;stroke-width:1px;stroke-linecap:butt;stroke-linejoin:miter;stroke-opacity:1"
                 d="m 80.714286,65.93361 20.714284,0 0.0893,3.749999 -20.982146,-0.267858 z"
                 id="path4026"
                 inkscape:connector-curvature="0" />
            </g>
            <g
               transform="matrix(0,1,-1,0,158.25504,-23.45925)"
               id="g4028">
              <path
                 style="fill:#1a1a1a;stroke:#000000;stroke-width:1px;stroke-linecap:butt;stroke-linejoin:miter;stroke-opacity:1"
                 d="M 80.71429,60.790752 80,74.005038 65,67.219324 z"
                 id="path4030"
                 inkscape:connector-curvature="0" />
              <path
                 inkscape:connector-curvature="0"
                 id="path4032"
                 d="m 101,60.790752 0.71429,13.214286 15,-6.785714 z"
                 style="fill:#1a1a1a;stroke:#000000;stroke-width:1px;stroke-linecap:butt;stroke-linejoin:miter;stroke-opacity:1" />
              <path
                 inkscape:connector-curvature="0"
                 id="path4034"
                 d="m 80.714286,65.93361 20.714284,0 0.0893,3.749999 -20.982146,-0.267858 z"
                 style="fill:#000000;stroke:#000000;stroke-width:1px;stroke-linecap:butt;stroke-linejoin:miter;stroke-opacity:1" />
            </g>
          </g>
        </g>
        <g
           id="g4107"
           transform="translate(-11.111678,-116.16754)">
          <text
             xml:space="preserve"
             style="font-size:48px;font-style:normal;font-weight:normal;line-height:125%;letter-spacing:0px;word-spacing:0px;fill:#d40000;fill-opacity:1;stroke:none;font-family:Sans"
             x="129.56079"
             y="215.77429"
             id="text3901-6"
             sodipodi:linespacing="125%"><tspan
               sodipodi:role="line"
               id="tspan3903-7"
               x="129.56079"
               y="215.77429">X</tspan></text>
          <g
             transform="translate(15.657364,0)"
             id="g4103">
            <path
               sodipodi:type="spiral"
               style="fill:none;stroke:#000000;stroke-width:1px;stroke-linecap:butt;stroke-linejoin:miter;stroke-opacity:1"
               id="path4042"
               sodipodi:cx="185.86807"
               sodipodi:cy="62.412689"
               sodipodi:expansion="1"
               sodipodi:revolution="0.92334044"
               sodipodi:radius="15.436033"
               sodipodi:argument="-16.797096"
               sodipodi:t0="0.51122516"
               d="m 188.24495,54.88787 c 5.83473,-0.112299 9.61273,5.787198 9.13325,11.160538 -0.54368,6.092854 -5.63387,10.787421 -11.51008,11.800314"
               transform="translate(-68.588847,130.30968)" />
            <path
               style="fill:#1a1a1a;stroke:#000000;stroke-width:1px;stroke-linecap:butt;stroke-linejoin:miter;stroke-opacity:1"
               d="m 122.12544,199.10043 -0.71429,13.21429 -15,-6.78572 z"
               id="path4044"
               inkscape:connector-curvature="0" />
          </g>
          <g
             id="g4098">
            <g
               id="g4052"
               transform="matrix(-1,0,0,1,345.83025,130.30968)">
              <path
                 d="m 188.24495,54.88787 c 5.83473,-0.112299 9.61273,5.787198 9.13325,11.160538 -0.54368,6.092854 -5.63387,10.787421 -11.51008,11.800314"
                 sodipodi:t0="0.51122516"
                 sodipodi:argument="-16.797096"
                 sodipodi:radius="15.436033"
                 sodipodi:revolution="0.92334044"
                 sodipodi:expansion="1"
                 sodipodi:cy="62.412689"
                 sodipodi:cx="185.86807"
                 id="path4054"
                 style="fill:none;stroke:#000000;stroke-width:1px;stroke-linecap:butt;stroke-linejoin:miter;stroke-opacity:1"
                 sodipodi:type="spiral" />
              <path
                 inkscape:connector-curvature="0"
                 id="path4056"
                 d="M 190.71429,68.790752 190,82.005038 175,75.219324 z"
                 style="fill:#1a1a1a;stroke:#000000;stroke-width:1px;stroke-linecap:butt;stroke-linejoin:miter;stroke-opacity:1" />
            </g>
          </g>
        </g>
      </g>
      <g
         transform="matrix(-0.6553495,0,0,0.68004218,300.79195,-30.525068)"
         id="g5340">
        <g
           id="g5319"
           transform="matrix(0.31034499,0,0,0.27962099,206.90707,193.41012)">
          <rect
             y="161.91272"
             x="300.01532"
             height="106.57111"
             width="73.236076"
             id="rect3085"
             style="fill:url(#Strips1_1);fill-opacity:1;stroke:none" />
          <rect
             transform="matrix(0,1,-1,0,0,0)"
             style="fill:url(#pattern5317);fill-opacity:1;stroke:none"
             id="rect5311"
             width="106.57111"
             height="67.175125"
             x="161.91272"
             y="-369.21078" />
        </g>
        <g
           id="g5335"
           transform="translate(0.50507627,1.5152288)">
          <path
             inkscape:connector-curvature="0"
             id="path5329"
             d="m 310.11683,232.6234 c -0.42932,-0.57242 -0.37881,-0.29463 -0.37881,-0.75762 0,-0.12627 0,-0.25254 0,-0.3788 0,-0.57482 -0.0595,-0.007 0.12627,-0.37881 0.0188,-0.0377 -0.0298,-0.0965 0,-0.12627 0.0298,-0.0298 0.0842,0 0.12627,0 0.21045,0 0.4209,0 0.63135,0 0.0421,0 0.0842,0 0.12626,0 0.0421,0 0.10293,0.035 0.12627,0 0.2651,-0.39765 0.0772,-1.07395 0.12627,-1.51523 0.0192,-0.17248 0.10475,-0.33288 0.12627,-0.50508 0.0645,-0.51558 -0.11132,-0.40123 0.12627,-0.75761 0.033,-0.0495 0.073,-0.0996 0.12627,-0.12627 0.0259,-0.013 0.59385,-0.0125 0.63135,0 0.0893,0.0298 0.15842,0.12627 0.25253,0.12627 0.0595,0 0.0698,-0.10745 0.12627,-0.12627 0.0799,-0.0266 0.16836,0 0.25254,0 1.00898,0 -0.37127,-0.0306 0.88388,0.12627 0.33412,0.0418 0.67802,-0.0554 1.01016,0 0.0928,0.0155 0.16325,0.0965 0.25254,0.12627 0.0799,0.0266 0.19301,-0.0595 0.25253,0 0.0298,0.0298 -0.0298,0.0965 0,0.12627 0.0123,0.0123 0.43478,-0.0141 0.50508,0 0.13051,0.0261 0.24674,0.10976 0.37881,0.12627 0.20882,0.0261 0.42218,-0.0232 0.63134,0 0.34496,0.0383 0.66575,0.20949 1.01015,0.25254 0.16706,0.0209 0.34536,-0.0532 0.50508,0 0.5857,0.19523 0.14527,0.16427 0.25254,0.3788 0.0266,0.0532 0.0996,0.073 0.12627,0.12627 0.0376,0.0753 -0.0376,0.17725 0,0.25254 0.0266,0.0532 0.0842,0.0842 0.12627,0.12627 0.0421,0.0421 0.0786,0.0906 0.12627,0.12627 0.28048,0.21036 0.57381,0.35004 0.88388,0.50507 0.0842,0.0421 0.16325,0.0965 0.25254,0.12627 0.0399,0.0133 0.10744,-0.0376 0.12627,0 0.0376,0.0753 -0.0266,0.17268 0,0.25254 0.0188,0.0565 0.12627,0.0667 0.12627,0.12627 0,0.0595 -0.0996,0.073 -0.12627,0.12627 -0.0376,0.0753 0.0595,0.19301 0,0.25254 -0.0298,0.0298 -0.0886,-0.0188 -0.12627,0 -0.0532,0.0266 -0.073,0.0996 -0.12627,0.12627 -0.0376,0.0188 -0.0965,-0.0298 -0.12627,0 -0.0298,0.0298 0.0298,0.0965 0,0.12627 -0.0666,0.0666 -0.17423,0.0741 -0.25254,0.12626 -0.0495,0.033 -0.0698,0.10745 -0.12627,0.12627 -0.0799,0.0266 -0.16836,0 -0.25254,0 -0.29462,0 -0.58925,0 -0.88388,0 -0.13063,0 -0.17452,-0.0298 -0.25254,0.12627 -0.0188,0.0376 0.0298,0.0965 0,0.12627 -0.0666,0.0666 -0.17423,0.0741 -0.25254,0.12627 -0.0991,0.066 -0.1396,0.21489 -0.25253,0.25254 -0.0799,0.0266 -0.17088,-0.0204 -0.25254,0 -0.25076,0.0627 -0.50686,0.31612 -0.75762,0.37881 -0.0817,0.0204 -0.17267,-0.0266 -0.25253,0 -0.0565,0.0188 -0.0698,0.10744 -0.12627,0.12627 -0.0723,0.0241 -0.5128,0 -0.63135,0 -0.0855,0 -0.82636,0.0192 -0.88388,0 -0.0565,-0.0188 -0.073,-0.0997 -0.12627,-0.12627 -0.0376,-0.0188 -0.0886,0.0188 -0.12627,0 -0.0532,-0.0266 -0.073,-0.0996 -0.12627,-0.12627 -0.0376,-0.0188 -0.0842,0 -0.12627,0 -0.0421,0 -0.0965,-0.0298 -0.12627,0 -0.0298,0.0298 0.0298,0.0965 0,0.12627 -0.0666,0.0665 -0.20033,0.048 -0.25254,0.12627 -0.0467,0.07 0.0266,0.17267 0,0.25253 -0.0188,0.0565 -0.0842,0.0842 -0.12626,0.12627 -0.0421,0.0421 -0.0698,0.10745 -0.12627,0.12627 -0.0578,0.0192 -0.44889,-0.0281 -0.50508,0 -0.0532,0.0266 -0.073,0.0996 -0.12627,0.12627 -0.0326,0.0163 -0.66811,0 -0.75761,0 -0.0421,0 -0.0965,0.0298 -0.12627,0 -0.0298,-0.0298 0.0188,-0.0886 0,-0.12627 -0.26275,-0.5255 0.009,0.13499 -0.25254,-0.12627 -0.0298,-0.0298 0.0298,-0.0965 0,-0.12627 -0.0595,-0.0595 -0.17725,0.0377 -0.25254,0 -0.5255,-0.26275 0.13499,0.009 -0.12627,-0.25253 -0.0196,-0.0196 -0.32967,0.0164 -0.37881,0 -0.21502,-0.0717 -0.42089,-0.16836 -0.63134,-0.25254 z"
             style="fill:none;stroke:#000000;stroke-width:1px;stroke-linecap:butt;stroke-linejoin:miter;stroke-opacity:1" />
          <path
             inkscape:connector-curvature="0"
             id="path5331"
             d="m 314.78879,224.92098 c 5.93464,-6.56599 5.93464,-6.56599 5.93464,-6.56599 l 0,0"
             style="fill:none;stroke:#000000;stroke-width:1px;stroke-linecap:butt;stroke-linejoin:miter;stroke-opacity:1" />
          <path
             inkscape:connector-curvature="0"
             id="path5333"
             d="m 318.32432,226.43621 5.55584,-5.68211"
             style="fill:none;stroke:#000000;stroke-width:1px;stroke-linecap:butt;stroke-linejoin:miter;stroke-opacity:1" />
        </g>
      </g>
    </g>
  </g>
</svg>
