# Blender v242 OBJ File: barrel.blend
# www.blender3d.org
mtllib barrel.mtl
o Cylinder_Cylinder
v 3.312422 0.040120 -2.830806
v 4.327888 0.040120 -1.532021
v 4.684473 0.040120 0.000001
v 4.327888 0.040120 1.532023
v 3.312422 0.040120 2.830808
v 1.792670 0.040120 3.698629
v 0.000000 0.040120 4.003367
v -1.792670 0.040120 3.698629
v -3.312423 0.040120 2.830809
v -4.327890 0.040120 1.532023
v -4.684475 0.040120 0.000001
v -4.327890 0.040120 -1.532022
v -3.312423 0.040120 -2.830807
v -1.792669 0.040120 -3.698627
v 0.000002 0.040120 -4.003365
v 1.792673 0.040120 -3.698625
v 3.312426 15.477915 -2.830804
v 4.327890 15.477915 -1.532017
v 4.684473 15.477915 0.000006
v 4.327886 15.477915 1.532027
v 3.312417 15.477915 2.830812
v 1.792662 15.477915 3.698631
v -0.000010 15.477915 4.003366
v -1.792680 15.477915 3.698626
v -3.312431 15.477915 2.830801
v -4.327895 15.477915 1.532013
v -4.684475 15.477915 -0.000010
v -4.327886 15.477915 -1.532032
v -3.312414 15.477915 -2.830815
v -1.792658 15.477915 -3.698632
v 0.000014 15.477915 -4.003365
v 1.792684 15.477915 -3.698622
v -0.000001 0.040120 0.000001
v 2.841016 15.477915 -2.427937
v 3.711964 15.477915 -1.313987
v 4.017799 15.477915 0.000005
v 3.711960 15.477915 1.313996
v 2.841008 15.477915 2.427943
v 1.537538 15.477915 3.172258
v -0.000008 15.477915 3.433625
v -1.537554 15.477915 3.172253
v -2.841021 15.477915 2.427934
v -3.711968 15.477915 1.313984
v -4.017801 15.477915 -0.000008
v -3.711960 15.477915 -1.314000
v -2.841006 15.477915 -2.427946
v -1.537535 15.477915 -3.172259
v 0.000012 15.477915 -3.433624
v 1.537557 15.477915 -3.172250
vt 0.423397 0.008966 0.0
vt 0.799149 0.008966 0.0
vt 0.741365 0.008966 0.0
vt 0.687788 0.008966 0.0
vt 0.634211 0.008966 0.0
vt 0.576427 0.008966 0.0
vt 0.511498 0.008966 0.0
vt 0.440426 0.008966 0.0
vt 0.369354 0.008966 0.0
vt 0.304424 0.008966 0.0
vt 0.246640 0.008966 0.0
vt 0.193063 0.008966 0.0
vt 0.139486 0.008967 0.0
vt 0.081703 0.008967 0.0
vt 0.016773 0.008967 0.0
vt 0.522221 0.032404 0.0
vt 1.006223 0.008967 0.0
vt 0.935150 0.008966 0.0
vt 0.864078 0.008966 0.0
vt 0.799148 0.991123 0.0
vt 0.741365 0.991123 0.0
vt 0.687788 0.991123 0.0
vt 0.634211 0.991123 0.0
vt 0.576427 0.991123 0.0
vt 0.511498 0.991123 0.0
vt 0.440426 0.991123 0.0
vt 0.369354 0.991123 0.0
vt 0.304424 0.991123 0.0
vt 0.246640 0.991124 0.0
vt 0.193063 0.991124 0.0
vt 0.139486 0.991124 0.0
vt 0.081702 0.991124 0.0
vt 0.016772 0.991124 0.0
vt 1.006222 0.991124 0.0
vt 0.935150 0.991124 0.0
vt 0.864077 0.991124 0.0
vn 0.000000 -1.000000 0.000000
vn 0.787792 -0.000000 -0.615941
vn 0.973966 -0.000000 -0.226694
vn 0.973966 0.000000 0.226695
vn 0.787791 0.000000 0.615942
vn 0.495876 0.000000 0.868393
vn 0.167586 0.000000 0.985857
vn -0.167588 0.000000 0.985857
vn -0.495877 0.000000 0.868393
vn -0.787792 0.000000 0.615941
vn -0.973966 0.000000 0.226693
vn -0.973966 -0.000000 -0.226696
vn -0.787791 -0.000000 -0.615943
vn -0.495875 -0.000000 -0.868394
vn -0.167585 -0.000000 -0.985858
vn 0.167589 -0.000000 -0.985857
vn 0.495877 -0.000000 -0.868393
vn 0.000000 1.000000 0.000000
usemtl Material.001_barrel.png
usemat barrel.png
s off
f 33/1/1 1/2/1 2/3/1
f 33/1/1 2/3/1 3/4/1
f 33/1/1 3/4/1 4/5/1
f 33/1/1 4/5/1 5/6/1
f 33/1/1 5/6/1 6/7/1
f 33/1/1 6/7/1 7/8/1
f 33/1/1 7/8/1 8/9/1
f 33/1/1 8/9/1 9/10/1
f 33/1/1 9/10/1 10/11/1
f 33/1/1 10/11/1 11/12/1
f 33/1/1 11/12/1 12/13/1
f 33/1/1 12/13/1 13/14/1
f 33/1/1 13/14/1 14/15/1
f 33/16/1 14/17/1 15/18/1
f 33/16/1 15/18/1 16/19/1
f 16/19/1 1/2/1 33/1/1
f 1/2/2 17/20/2 18/21/2 2/3/2
f 2/3/3 18/21/3 19/22/3 3/4/3
f 3/4/4 19/22/4 20/23/4 4/5/4
f 4/5/5 20/23/5 21/24/5 5/6/5
f 5/6/6 21/24/6 22/25/6 6/7/6
f 6/7/7 22/25/7 23/26/7 7/8/7
f 7/8/8 23/26/8 24/27/8 8/9/8
f 8/9/9 24/27/9 25/28/9 9/10/9
f 9/10/10 25/28/10 26/29/10 10/11/10
f 10/11/11 26/29/11 27/30/11 11/12/11
f 11/12/12 27/30/12 28/31/12 12/13/12
f 12/13/13 28/31/13 29/32/13 13/14/13
f 13/14/14 29/32/14 30/33/14 14/15/14
f 14/17/15 30/34/15 31/35/15 15/18/15
f 15/18/16 31/35/16 32/36/16 16/19/16
f 17/20/17 1/2/17 16/19/17 32/36/17
f 18/21/18 17/20/18 34/20/18 35/21/18
f 19/22/18 18/21/18 35/21/18 36/22/18
f 20/23/18 19/22/18 36/22/18 37/23/18
f 21/24/18 20/23/18 37/23/18 38/24/18
f 22/25/18 21/24/18 38/24/18 39/25/18
f 23/26/18 22/25/18 39/25/18 40/26/18
f 24/27/18 23/26/18 40/26/18 41/27/18
f 25/28/18 24/27/18 41/27/18 42/28/18
f 26/29/18 25/28/18 42/28/18 43/29/18
f 27/30/18 26/29/18 43/29/18 44/30/18
f 28/31/18 27/30/18 44/30/18 45/31/18
f 29/32/18 28/31/18 45/31/18 46/32/18
f 30/33/18 29/32/18 46/32/18 47/33/18
f 31/35/18 30/34/18 47/34/18 48/35/18
f 32/36/18 31/35/18 48/35/18 49/36/18
f 17/20/18 32/36/18 49/36/18 34/20/18
