# Blender v242 OBJ File: colarinho_e_oculos.blend
# www.blender3d.org
mtllib colarinho_e_oculos.mtl
o Circle_Circle
v 3.737510 6.434503 1.289752
v -0.017069 6.434503 4.003867
v -3.758574 6.434502 1.271758
v 2.796593 7.805333 0.992209
v -0.012743 7.805333 3.023025
v -2.812296 7.805332 0.978745
v 1.010095 4.515998 -3.005687
v 0.755825 6.772293 -2.221821
v -0.971389 4.515996 -3.020246
v -0.726806 6.772291 -2.232714
v 1.338963 5.114266 -3.068483
v 0.846638 6.608740 -2.531755
v -0.815715 6.629890 -2.524159
v -1.350780 5.148488 -3.056194
v -0.019116 4.211781 -3.392604
v 1.338962 4.972936 -2.674958
v 0.846637 6.467410 -2.138229
v -0.815716 6.488559 -2.130634
v -1.350781 5.007157 -2.662668
v -0.019117 4.070450 -2.999079
v 0.015461 6.619315 -2.527957
v -1.083248 5.889189 -2.790177
v 0.659923 4.663023 -3.230544
v 0.015460 6.477984 -2.134431
v -1.083249 5.747859 -2.396651
v 0.659923 4.521693 -2.837018
v -0.684948 4.680134 -3.224399
v -0.684949 4.538804 -2.830873
v 0.261623 5.730748 -2.402796
v -0.211663 5.134776 -2.616834
v -1.744106 1.315754 -2.580114
v -1.744104 1.684273 -3.606230
v 1.762639 1.271138 -2.596136
v 1.762640 1.639657 -3.622252
v -0.007953 0.094523 -3.018708
v -0.007951 0.463042 -4.044824
v 0.429421 10.015545 -2.472208
v 0.433116 9.510715 -2.472185
v 0.703685 8.804810 -2.472154
v 0.995164 8.299976 -2.472132
v 1.500008 7.836341 -2.472112
v 2.082935 7.836333 -2.472113
v 2.587755 8.127789 -2.472128
v 2.879202 8.632614 -2.472151
v 2.879183 9.215540 -2.472178
v 2.587704 9.720373 -2.472200
v 2.082865 10.011844 -2.472212
v 1.499939 10.011852 -2.472210
v 0.429421 10.015545 -2.472208
v 0.433116 9.510715 -2.472185
v 0.703685 8.804810 -2.472154
v 0.995164 8.299976 -2.472132
v 1.500008 7.836341 -2.472112
v 2.082935 7.836333 -2.472113
v 2.587755 8.127789 -2.472128
v 2.879202 8.632614 -2.472151
v 2.879183 9.215540 -2.472178
v 2.587704 9.720373 -2.472200
v 2.082865 10.011844 -2.472212
v 1.499939 10.011852 -2.472210
v 0.429422 10.015532 -2.078704
v 0.433117 9.510703 -2.078681
v 0.703686 8.804796 -2.078650
v 0.995165 8.299963 -2.078628
v 1.500009 7.836328 -2.078608
v 2.082936 7.836320 -2.078609
v 2.587755 8.127776 -2.078624
v 2.879203 8.632602 -2.078647
v 2.879184 9.215528 -2.078674
v 2.587705 9.720361 -2.078696
v 2.082866 10.011831 -2.078707
v 1.499940 10.011839 -2.078706
v 0.430437 9.876717 -2.472202
v 0.430437 9.876717 -2.472202
v 0.430437 9.876703 -2.078698
v 0.431776 9.693716 -2.472193
v 0.431776 9.693716 -2.472193
v 0.431777 9.693703 -2.078690
v 0.431777 9.693703 -2.078690
v 0.431776 9.693716 -2.472193
v 0.431776 9.693716 -2.472193
v 0.430437 9.876703 -2.078698
v 0.430437 9.876717 -2.472202
v 0.430437 9.876717 -2.472202
v 0.430437 9.876717 -2.472202
v 0.430437 9.876717 -2.472202
v 0.430437 9.876703 -2.078698
v 0.431776 9.693716 -2.472193
v 0.431776 9.693716 -2.472193
v 0.431777 9.693703 -2.078690
v 0.431777 9.693703 -2.078690
v 0.431776 9.693716 -2.472193
v 0.431776 9.693716 -2.472193
v 0.430437 9.876703 -2.078698
v 0.430437 9.876717 -2.472202
v 0.430437 9.876717 -2.472202
v -0.331858 9.875458 -2.472202
v -0.331858 9.875458 -2.472202
v -0.331857 9.875444 -2.078698
v -0.330518 9.692457 -2.472193
v -0.330518 9.692457 -2.472193
v -0.330517 9.692444 -2.078690
v 2.756203 9.215524 -2.078673
v 2.756222 8.632598 -2.078647
v 2.756202 9.215536 -2.472177
v 2.756221 8.632610 -2.472151
v 2.756232 8.927971 3.086568
v 2.641625 9.215744 3.194437
v 2.764606 9.215748 3.194437
v 2.879213 8.927975 3.086568
v 2.802851 8.055680 4.308083
v 2.764635 8.294261 4.450604
v 2.641654 8.294256 4.450604
v 2.679870 8.055676 4.308083
v -2.665547 8.632629 -2.049630
v -2.665529 9.215555 -2.049604
v -2.665548 8.632617 -2.443134
v -2.665530 9.215543 -2.443108
v 0.421190 9.692464 -2.443092
v 0.421191 9.692476 -2.049588
v 0.421191 9.692476 -2.049588
v 0.422530 9.875464 -2.443084
v 0.422531 9.875477 -2.049580
v 0.422531 9.875477 -2.049580
v -0.339764 9.876736 -2.049580
v -0.339764 9.876736 -2.049580
v -0.339765 9.876722 -2.443083
v -0.341104 9.693735 -2.049588
v -0.341104 9.693735 -2.049588
v -0.341105 9.693722 -2.443092
v -0.341105 9.693722 -2.443092
v -0.341104 9.693735 -2.049588
v -0.341104 9.693735 -2.049588
v -0.339765 9.876722 -2.443083
v -0.339764 9.876736 -2.049580
v -0.339764 9.876736 -2.049580
v -0.339764 9.876736 -2.049580
v -0.339764 9.876736 -2.049580
v -0.339765 9.876722 -2.443083
v -0.341104 9.693735 -2.049588
v -0.341104 9.693735 -2.049588
v -0.341105 9.693722 -2.443092
v -0.341105 9.693722 -2.443092
v -0.341104 9.693735 -2.049588
v -0.341104 9.693735 -2.049588
v -0.339765 9.876722 -2.443083
v -0.339764 9.876736 -2.049580
v -0.339764 9.876736 -2.049580
v -1.409268 10.011858 -2.443075
v -1.992193 10.011850 -2.443074
v -2.497032 9.720380 -2.443085
v -2.788511 9.215547 -2.443108
v -2.788529 8.632620 -2.443134
v -2.497082 8.127796 -2.443157
v -1.992262 7.836339 -2.443172
v -1.409336 7.836347 -2.443173
v -0.904492 8.299983 -2.443153
v -0.613013 8.804816 -2.443131
v -0.342444 9.510722 -2.443100
v -0.338749 10.015551 -2.443077
v -1.409267 10.011871 -2.049571
v -1.992192 10.011863 -2.049570
v -2.497031 9.720392 -2.049582
v -2.788510 9.215559 -2.049604
v -2.788528 8.632633 -2.049630
v -2.497082 8.127809 -2.049654
v -1.992261 7.836352 -2.049668
v -1.409335 7.836360 -2.049669
v -0.904491 8.299995 -2.049649
v -0.613012 8.804829 -2.049627
v -0.342443 9.510735 -2.049596
v -0.338748 10.015564 -2.049573
v -1.409267 10.011871 -2.049571
v -1.992192 10.011863 -2.049570
v -2.497031 9.720392 -2.049582
v -2.788510 9.215559 -2.049604
v -2.788528 8.632633 -2.049630
v -2.497082 8.127809 -2.049654
v -1.992261 7.836352 -2.049668
v -1.409335 7.836360 -2.049669
v -0.904491 8.299995 -2.049649
v -0.613012 8.804829 -2.049627
v -0.342443 9.510735 -2.049596
v -0.338748 10.015564 -2.049573
v -2.866216 8.059948 4.340808
v -2.904432 8.298528 4.483330
v -2.781451 8.298532 4.483330
v -2.743235 8.059952 4.340808
v -2.666873 8.932246 3.119292
v -2.781481 9.220019 3.227161
v -2.904462 9.220016 3.227161
v -2.789854 8.932242 3.119292
v -2.789864 8.636868 -2.045923
v -2.789883 9.219795 -2.045950
v -2.666902 9.219799 -2.045950
v -2.666883 8.636872 -2.045923
vn 0.507207 0.500434 0.701646
vn -0.510195 0.501530 0.698691
vn 0.736642 0.322440 -0.594468
vn -0.731118 0.322044 -0.601460
vn 0.598666 0.753856 0.270741
vn 0.000000 0.000000 0.000000
vn 0.933759 0.357904 0.000010
vn 0.866015 0.500017 0.000015
vn 0.676408 0.736528 0.000023
vn 0.000014 1.000000 0.000033
vn -0.499998 0.866026 0.000030
vn -0.866036 0.499982 0.000018
vn -0.866015 -0.500017 -0.000014
vn -0.500002 -0.866024 -0.000026
vn -0.000014 -1.000000 -0.000033
vn -0.003449 -0.999994 -0.000034
vn 0.999973 0.007317 -0.000001
vn 0.999973 0.007319 -0.000002
vn 0.001651 -0.999999 -0.000034
vn 0.000000 0.000046 1.000000
vn 0.000000 -0.000044 -1.000000
vn -0.001651 0.999999 0.000034
vn 0.999973 0.007320 -0.000001
vn -0.000031 1.000000 0.000032
vn 0.000031 -1.000000 -0.000032
vn -0.000002 -0.000045 -1.000000
vn -1.000000 -0.000032 0.000002
vn 0.000031 -0.998369 0.057092
vn -0.991535 -0.129641 -0.007212
vn -0.000031 1.000000 -0.000042
vn 0.991535 0.129641 0.007212
vn 0.964850 0.197855 0.172968
vn -0.000028 0.806314 0.591488
vn -0.964850 -0.197856 -0.172968
vn 0.000025 -0.813802 -0.581142
vn 0.000018 -0.512836 0.858487
vn 1.000000 -0.000031 -0.000002
vn 0.000002 -0.000045 1.000000
vn -0.000027 -1.000000 0.000033
vn 0.000031 1.000000 -0.000032
vn -0.999973 0.007322 0.000002
vn 0.001651 0.999999 -0.000033
vn 0.000000 -0.000045 1.000000
vn 0.000000 0.000044 -1.000000
vn -0.001651 -0.999999 0.000033
vn -0.999973 0.007317 0.000002
vn -0.999973 0.007316 0.000002
vn 0.003449 -0.999994 0.000034
vn 0.000014 -1.000000 0.000033
vn 0.500002 -0.866024 0.000026
vn 0.866015 -0.500017 0.000014
vn 0.866035 0.499983 -0.000018
vn 0.499999 0.866026 -0.000029
vn -0.000014 1.000000 -0.000033
vn -0.676408 0.736527 -0.000022
vn -0.866015 0.500017 -0.000014
vn -0.933758 0.357904 -0.000009
vn 0.000016 -0.512837 0.858486
vn 0.000025 -0.813803 -0.581141
vn -0.000025 0.806314 0.591488
vn 0.964850 0.197856 0.172968
vn -0.955146 -0.278706 -0.100096
vn -0.013517 -0.941059 -0.337972
vn -0.013517 -0.941059 -0.337971
vn 0.946793 -0.302902 -0.108782
vn 0.946793 -0.302902 -0.108783
vn -0.576796 0.768811 0.276109
vn -0.000000 -0.338005 0.941144
vn -0.000001 -0.338005 0.941144
vn 0.000000 0.338005 -0.941144
vn 0.000001 0.338005 -0.941144
vn 0.941125 -0.318162 -0.114263
vn -0.242209 0.004110 -0.970215
vn 0.127542 -0.169640 0.977218
vn -0.937767 -0.326826 -0.117378
vn 0.228711 0.005448 -0.973479
vn -0.120100 -0.170515 0.978008
vn 0.598666 0.753855 0.270740
vn 0.000002 0.000045 1.000000
vn 0.000002 0.000044 1.000000
usemtl colarinho
s off
f 2//1 1//1 4//1 5//1
f 3//2 2//2 5//2 6//2
f 1//3 7//3 8//3 4//3
f 9//4 3//4 6//4 10//4
f 27//5 14//5 19//5 28//5
f 39//6 38//6 50//6 51//6
f 40//6 39//6 51//6 52//6
f 41//6 40//6 52//6 53//6
f 42//6 41//6 53//6 54//6
f 43//6 42//6 54//6 55//6
f 44//6 43//6 55//6 56//6
f 45//6 44//6 56//6 57//6
f 46//6 45//6 57//6 58//6
f 47//6 46//6 58//6 59//6
f 48//6 47//6 59//6 60//6
f 37//6 48//6 60//6 49//6
f 51//7 50//7 62//7 63//7
f 52//8 51//8 63//8 64//8
f 53//9 52//9 64//9 65//9
f 54//10 53//10 65//10 66//10
f 55//11 54//11 66//11 67//11
f 56//12 55//12 67//12 68//12
f 58//13 57//13 69//13 70//13
f 59//14 58//14 70//14 71//14
f 60//15 59//15 71//15 72//15
f 49//16 60//16 72//16 61//16
f 73//6 37//6 49//6 74//6
f 74//17 49//17 61//17 75//17
f 38//6 76//6 77//6 50//6
f 50//18 77//18 78//18 62//18
f 78//6 77//6 80//6 79//6
f 77//6 76//6 81//6 80//6
f 75//6 78//6 79//6 82//6
f 76//6 73//6 84//6 81//6
f 74//6 75//6 82//6 83//6
f 73//6 74//6 83//6 84//6
f 84//6 83//6 86//6 85//6
f 83//6 82//6 87//6 86//6
f 81//6 84//6 85//6 88//6
f 82//6 79//6 90//6 87//6
f 80//6 81//6 88//6 89//6
f 79//6 80//6 89//6 90//6
f 90//6 89//6 92//6 91//6
f 89//6 88//6 93//6 92//6
f 87//6 90//6 91//6 94//6
f 88//6 85//6 96//6 93//6
f 86//6 87//6 94//6 95//6
f 85//6 86//6 95//6 96//6
f 96//6 95//6 98//6 97//6
f 95//19 94//19 99//19 98//19
f 93//20 96//20 97//20 100//20
f 94//21 91//21 102//21 99//21
f 92//6 93//6 100//6 101//6
f 91//22 92//22 101//22 102//22
f 100//6 97//6 98//6 101//6
f 101//23 98//23 99//23 102//23
f 69//24 57//24 105//24 103//24
f 56//25 68//25 104//25 106//25
f 57//26 56//26 106//26 105//26
f 105//27 106//27 104//27 103//27
f 104//28 68//28 110//28 107//28
f 103//29 104//29 107//29 108//29
f 69//30 103//30 108//30 109//30
f 68//31 69//31 109//31 110//31
f 110//32 109//32 112//32 111//32
f 109//33 108//33 113//33 112//33
f 108//34 107//34 114//34 113//34
f 107//35 110//35 111//35 114//35
f 111//36 112//36 113//36 114//36
f 116//37 115//37 117//37 118//37
f 164//38 165//38 115//38 116//38
f 165//39 153//39 117//39 115//39
f 152//40 164//40 116//40 118//40
f 120//41 123//41 122//41 119//41
f 121//6 124//6 123//6 120//6
f 130//42 129//42 120//42 119//42
f 129//6 128//6 121//6 120//6
f 127//43 130//43 119//43 122//43
f 128//44 125//44 124//44 121//44
f 126//45 127//45 122//45 123//45
f 125//6 126//6 123//6 124//6
f 136//6 135//6 126//6 125//6
f 135//6 134//6 127//6 126//6
f 133//6 136//6 125//6 128//6
f 134//6 131//6 130//6 127//6
f 132//6 133//6 128//6 129//6
f 131//6 132//6 129//6 130//6
f 142//6 141//6 132//6 131//6
f 141//6 140//6 133//6 132//6
f 139//6 142//6 131//6 134//6
f 140//6 137//6 136//6 133//6
f 138//6 139//6 134//6 135//6
f 137//6 138//6 135//6 136//6
f 148//6 147//6 138//6 137//6
f 147//6 146//6 139//6 138//6
f 145//6 148//6 137//6 140//6
f 146//6 143//6 142//6 139//6
f 144//6 145//6 140//6 141//6
f 143//6 144//6 141//6 142//6
f 171//46 144//46 143//46 159//46
f 183//6 145//6 144//6 171//6
f 147//47 172//47 160//47 146//47
f 148//6 184//6 172//6 147//6
f 172//48 161//48 149//48 160//48
f 161//49 162//49 150//49 149//49
f 162//50 163//50 151//50 150//50
f 163//51 164//51 152//51 151//51
f 165//52 166//52 154//52 153//52
f 166//53 167//53 155//53 154//53
f 167//54 168//54 156//54 155//54
f 168//55 169//55 157//55 156//55
f 169//56 170//56 158//56 157//56
f 170//57 171//57 159//57 158//57
f 184//6 173//6 161//6 172//6
f 173//6 174//6 162//6 161//6
f 174//6 175//6 163//6 162//6
f 175//6 176//6 164//6 163//6
f 176//6 177//6 165//6 164//6
f 177//6 178//6 166//6 165//6
f 178//6 179//6 167//6 166//6
f 179//6 180//6 168//6 167//6
f 180//6 181//6 169//6 168//6
f 181//6 182//6 170//6 169//6
f 182//6 183//6 171//6 170//6
f 188//58 187//58 186//58 185//58
f 192//59 189//59 188//59 185//59
f 191//34 192//34 185//34 186//34
f 190//60 191//60 186//60 187//60
f 189//61 190//61 187//61 188//61
f 196//31 195//31 190//31 189//31
f 195//30 194//30 191//30 190//30
f 194//29 193//29 192//29 191//29
f 193//28 196//28 189//28 192//28
usemtl gravata
f 12//62 11//62 16//62 17//62
f 13//63 21//63 24//63 18//63
f 21//64 12//64 17//64 24//64
f 14//65 22//65 25//65 19//65
f 22//66 13//66 18//66 25//66
f 11//67 23//67 26//67 16//67
f 12//68 21//68 23//68 11//68
f 21//68 13//68 15//68 23//68
f 13//69 22//69 15//69
f 24//70 17//70 16//70
f 14//68 27//68 22//68
f 27//68 15//68 22//68
f 26//70 30//70 29//70 16//70
f 30//70 25//70 18//70 29//70
f 20//70 28//70 30//70 26//70
f 28//70 19//70 25//70 30//70
f 16//71 29//71 24//71
f 29//70 18//70 24//70
f 27//72 28//72 31//72 32//72
f 28//73 20//73 35//73 31//73
f 15//74 27//74 32//74 36//74
f 26//75 23//75 34//75 33//75
f 20//76 26//76 33//76 35//76
f 23//77 15//77 36//77 34//77
f 34//67 36//67 35//67 33//67
f 36//78 32//78 31//78 35//78
usemtl lentes
f 52//79 53//79 54//79 55//79
f 55//79 56//79 57//79 58//79
f 58//80 59//80 60//80
f 52//79 55//79 58//79 60//79
f 51//79 52//79 60//79
f 50//79 51//79 60//79
f 49//79 50//79 60//79
f 154//38 155//38 156//38 157//38
f 153//38 154//38 157//38 158//38
f 152//38 153//38 158//38 159//38
f 151//38 152//38 159//38 160//38
f 150//38 151//38 160//38
