# Blender v242 OBJ File: computador.blend
# www.blender3d.org
mtllib computador.mtl
o Cube.001_Cube.001
v 3.686377 2.830400 -2.038369
v 3.685879 0.152806 -2.038682
v -3.664982 0.154174 -2.044141
v -3.664482 2.831768 -2.043827
v 3.680493 2.829471 5.888163
v 3.679991 0.151877 5.887849
v -3.670868 0.153247 5.882390
v -3.670369 2.830840 5.882704
v 3.668244 3.872772 -1.461174
v 3.157118 3.960630 0.917576
v -3.174991 3.961808 0.912874
v -3.682615 3.874140 -1.466634
v 3.669423 10.207748 -1.460431
v 3.158197 9.782455 0.918260
v -3.173910 9.783632 0.913555
v -3.681439 10.209115 -1.465891
v -3.174381 8.940914 1.334790
v 3.157727 8.939737 1.339495
v -3.175289 4.046025 1.334218
v 3.156820 4.044848 1.338920
v 3.153800 4.297164 5.468024
v -3.178309 4.298342 5.463321
v 3.154472 7.928051 5.468451
v -3.177636 7.929228 5.463746
v -3.282174 9.809743 -1.515265
v 3.270082 9.808524 -1.510397
v -3.283201 4.273373 -1.515914
v 3.269052 4.272155 -1.511048
v 1.056204 3.563586 2.659234
v 1.289063 3.564208 2.339233
v 1.411638 3.564968 1.962937
v 1.411932 3.565790 1.567180
v 1.289916 3.566595 1.190702
v 1.057534 3.567303 0.870355
v 0.737532 3.567846 0.637497
v 0.361234 3.568170 0.514922
v -0.034523 3.568244 0.514628
v -0.411002 3.568060 0.636645
v -0.731350 3.567636 0.869027
v -0.964208 3.567014 1.189029
v -1.086783 3.566255 1.565325
v -1.087077 3.565432 1.961082
v -0.965060 3.564627 2.337560
v -0.732677 3.563919 2.657907
v -0.412675 3.563376 2.890764
v -0.036377 3.563052 3.013339
v 0.359380 3.562979 3.013632
v 0.735859 3.563163 2.891615
v 1.056115 3.040653 2.655662
v 1.288972 3.041276 2.335661
v 1.411547 3.042035 1.959364
v 1.411840 3.042858 1.563607
v 1.289823 3.043662 1.187129
v 1.057440 3.044370 0.866782
v 0.737437 3.044913 0.633925
v 0.361139 3.045237 0.511352
v -0.034618 3.045311 0.511059
v -0.411097 3.045126 0.633076
v -0.731444 3.044703 0.865459
v -0.964301 3.044081 1.185462
v -1.086876 3.043321 1.561758
v -1.087168 3.042500 1.957516
v -0.965151 3.041695 2.333993
v -0.732767 3.040986 2.654339
v -0.412764 3.040443 2.887196
v -0.036466 3.040119 3.009770
v 0.359292 3.040045 3.010062
v 0.735770 3.040230 2.888044
v 0.162497 3.938605 1.764681
v 0.905625 4.164062 3.225767
v 0.417471 4.163777 3.775819
v -0.095374 4.163872 3.775440
v -0.582711 4.164338 3.224665
v -0.997394 4.132380 2.922910
v -1.298533 4.116968 2.507785
v -1.456655 4.085349 2.019920
v -1.456147 4.053775 1.327434
v -1.297256 3.940455 0.741810
v -0.995511 3.908600 0.327130
v -0.580386 3.909149 0.025996
v -0.092524 3.909388 -0.132120
v 0.420322 3.909292 -0.131739
v 0.907949 3.908872 0.027100
v 1.322626 3.908169 0.328851
v 1.623767 3.939912 0.743978
v 1.781831 4.053173 1.329837
v 1.781323 4.084747 2.022323
v 1.622488 4.116425 2.509953
v 1.320740 4.131949 2.924630
v 0.162299 2.839503 1.760138
v 1.156664 2.835256 3.715254
v 0.503830 2.834936 3.926838
v -0.182434 2.835064 3.926332
v -0.834954 2.835626 3.713783
v -1.389856 2.836567 3.309998
v -1.792822 2.837797 2.754501
v -2.004407 2.839192 2.101669
v -2.003900 2.840617 1.415405
v -1.791349 2.841935 0.762887
v -1.387562 2.843013 0.207986
v -0.832064 2.843747 -0.194979
v -0.179230 2.844067 -0.406563
v 0.507034 2.843940 -0.406055
v 1.159554 2.843377 -0.193506
v 1.714455 2.842436 0.210281
v 2.117420 2.841208 0.765778
v 2.329004 2.839813 1.418610
v 2.328496 2.838386 2.104874
v 2.115945 2.837070 2.757392
v 1.712157 2.835990 3.312292
v 3.269052 4.272155 -1.511048
v -3.283201 4.273373 -1.515914
v 3.270082 9.808524 -1.510397
v -3.282174 9.809743 -1.515265
v -3.134411 9.661777 -1.345859
v 3.122013 9.660613 -1.341211
v -3.135383 4.421240 -1.346473
v 3.121038 4.420077 -1.341826
v -3.662230 0.562642 -5.647717
v -3.662376 0.129127 -5.557379
v -3.664408 0.730676 -2.670706
v -3.664262 1.164192 -2.761046
v 3.688631 0.561273 -5.642261
v 3.688485 0.127758 -5.551917
v 3.686453 0.729311 -2.665247
v 3.686599 1.162825 -2.755587
v 3.686346 0.153641 -2.665314
v -3.664515 0.155007 -2.670773
v 3.347717 0.153704 -2.665565
v 3.347824 0.729374 -2.665498
v 3.347975 0.729398 -2.868675
v 3.347868 0.153728 -2.868743
v 3.686497 0.153665 -2.868492
v 3.686597 0.693273 -2.868428
v -3.258161 0.154931 -2.670472
v -3.258054 0.730600 -2.670404
v -3.257904 0.730624 -2.873581
v -3.258010 0.154955 -2.873649
v -3.664364 0.155030 -2.873951
v -3.664257 0.730700 -2.873883
v -4.980442 0.355443 -4.621038
v -4.980424 0.124003 -4.702716
v -4.994376 0.123951 -4.239933
v -4.994303 0.518703 -4.239886
v -4.367954 0.355329 -4.620583
v -4.367937 0.123889 -4.702261
v -4.354671 0.123832 -4.239458
v -4.354598 0.518584 -4.239411
v -4.327537 0.545770 -4.021652
v -4.327615 0.123801 -4.021702
v -5.021677 0.545899 -4.022168
v -5.021756 0.123930 -4.022217
v -4.994760 0.123890 -3.722811
v -4.994697 0.464208 -3.722771
v -4.355056 0.123771 -3.722336
v -4.354992 0.464089 -3.722296
v -4.368846 0.341580 -3.422934
v -4.368948 0.123729 -3.341308
v -4.981333 0.341694 -3.423388
v -4.981434 0.123843 -3.341763
v 3.686128 1.491603 -2.038525
v -3.168488 2.831084 -2.041098
v -3.168986 0.153490 -2.041411
v -3.168737 1.936243 -2.041255
v -3.664607 2.162370 -2.043905
v -3.168612 2.161686 -2.041176
v -3.416734 1.936585 -2.042619
v -3.416610 2.162028 -2.042541
vn -0.000743 -0.000117 1.000000
vn -0.000213 -0.999320 0.036864
vn 0.000052 0.984388 0.176013
vn 0.977683 -0.000206 0.210085
vn -0.977994 0.000157 0.208631
vn -1.000000 0.000186 -0.000744
vn 1.000000 -0.000185 0.000744
vn -0.000582 0.447109 0.894479
vn -0.000328 -0.980604 0.196001
vn -0.000231 -0.998138 0.060993
vn 0.000004 0.971269 0.237983
vn 1.000000 -0.000185 0.000743
vn -1.000000 0.000186 -0.000743
vn -0.122590 0.000139 -0.992457
vn 0.124064 0.000093 -0.992274
vn 0.000760 0.123442 -0.992351
vn 0.000714 -0.123212 -0.992380
vn 0.808577 -0.004159 0.588376
vn 0.950826 -0.002281 0.309718
vn 1.000000 -0.000180 0.000741
vn 0.951285 0.001938 -0.308308
vn 0.809450 0.003867 -0.587176
vn 0.588381 0.005417 -0.808565
vn 0.309719 0.006437 -0.950806
vn 0.000742 0.006826 -0.999976
vn -0.308308 0.006548 -0.951264
vn -0.587180 0.005629 -0.809437
vn -0.808578 0.004158 -0.588375
vn -0.950826 0.002281 -0.309717
vn -1.000000 0.000181 -0.000740
vn -0.951284 -0.001938 0.308309
vn -0.809449 -0.003866 0.587177
vn -0.588381 -0.005417 0.808566
vn -0.309719 -0.006437 0.950806
vn -0.000740 -0.006826 0.999976
vn 0.308309 -0.006548 0.951264
vn 0.587181 -0.005629 0.809436
vn 0.480923 -0.534856 0.694725
vn 0.470932 -0.641633 0.605418
vn -0.000604 -0.785325 0.619083
vn -0.472068 -0.641457 0.604719
vn -0.482151 -0.534676 0.694011
vn -0.670301 -0.550845 0.497259
vn -0.777041 -0.567609 0.272079
vn -0.807601 -0.589510 0.016064
vn -0.715584 -0.686501 -0.129054
vn -0.473609 -0.824534 -0.309577
vn -0.291585 -0.867256 -0.403541
vn -0.145835 -0.880376 -0.451298
vn 0.000182 -0.884488 -0.466562
vn 0.146177 -0.880430 -0.451082
vn 0.291861 -0.867365 -0.403108
vn 0.473762 -0.824710 -0.308874
vn 0.715519 -0.686768 -0.127992
vn 0.807357 -0.589811 0.017262
vn 0.776425 -0.567898 0.273232
vn 0.669357 -0.551095 0.498253
vn -0.074352 0.993045 -0.091282
vn -0.075478 0.993158 -0.089103
vn -0.082640 0.995542 -0.045453
vn -0.112184 0.980827 -0.159351
vn -0.035974 0.998090 -0.050223
vn 0.010781 0.999864 -0.012484
vn 0.005645 0.999876 -0.014687
vn 0.000197 0.999881 -0.015428
vn -0.005251 0.999878 -0.014695
vn -0.010390 0.999868 -0.012500
vn 0.036420 0.998076 -0.050169
vn 0.112786 0.980785 -0.159184
vn 0.083078 0.995512 -0.045330
vn 0.075980 0.993130 -0.088991
vn 0.074857 0.993018 -0.091170
vn 0.025580 0.989823 -0.139984
vn 0.110217 0.989194 -0.096686
vn 0.000267 0.993787 -0.111301
vn -0.109706 0.989235 -0.096849
vn -0.025005 0.989833 -0.140021
vn 0.127189 0.975938 0.177112
vn 0.066868 0.975885 0.207791
vn 0.000020 0.975875 0.218328
vn -0.066812 0.975910 0.207692
vn -0.127087 0.975985 0.176924
vn -0.174903 0.976093 0.129038
vn -0.205582 0.976224 0.068716
vn -0.216119 0.976365 0.001868
vn -0.205484 0.976502 -0.064962
vn -0.174715 0.976622 -0.125239
vn -0.126827 0.976712 -0.173055
vn -0.066509 0.976765 -0.203733
vn 0.000340 0.976774 -0.214270
vn 0.067173 0.976740 -0.203634
vn 0.127447 0.976665 -0.172867
vn 0.175264 0.976557 -0.124980
vn 0.205942 0.976426 -0.064659
vn 0.216479 0.976285 0.002190
vn 0.205844 0.976148 0.069021
vn 0.175075 0.976028 0.129297
vn -0.000184 -0.999998 -0.002079
vn -0.000185 -0.999998 -0.002077
vn -0.000185 -0.999998 -0.002079
vn -0.000184 -0.999998 -0.002077
vn -0.000185 -0.999998 -0.002078
vn -0.000184 -0.999998 -0.002078
vn 0.000000 0.000000 0.000000
vn 0.753579 -0.000063 -0.657358
vn -0.752602 0.000217 -0.658476
vn 0.000349 -0.753007 -0.658012
vn 0.000629 0.753172 -0.657823
vn -1.000000 0.000181 -0.000742
vn 1.000000 -0.000182 0.000742
vn 0.000689 -0.204009 -0.978969
vn -0.000334 -0.978970 0.204006
vn -0.000689 0.204008 0.978969
vn 0.000334 0.978970 -0.204006
vn -0.000742 -0.000117 1.000000
vn -0.000186 -1.000000 -0.000118
vn 0.053214 0.994688 -0.088117
vn 1.000000 -0.000186 0.000743
vn -0.000743 -0.000118 1.000000
vn 0.000186 1.000000 0.000118
vn -1.000000 0.000186 -0.000742
vn 0.000743 0.000119 -1.000000
vn -0.999418 0.004501 -0.033808
vn 0.999469 0.004130 -0.032325
vn 0.000762 0.332797 -0.942998
vn -0.000186 -1.000000 -0.000117
vn 0.000464 0.919230 -0.393720
vn 0.000277 0.992292 -0.123919
vn 0.992369 -0.000170 -0.123304
vn -0.992185 0.000199 -0.124775
vn -0.995960 0.000175 0.089799
vn 0.995825 -0.000196 0.091280
vn -0.000016 0.964733 0.263231
vn -0.000109 0.925503 0.378741
vn 0.999110 0.005814 0.041790
vn -0.999168 0.006185 0.040306
vn -0.000630 0.350865 0.936426
vn 0.515132 0.000005 -0.857111
vn 1.000000 -0.000187 0.000743
vn 1.000000 -0.000186 0.000742
vn -0.000186 -1.000000 -0.000042
vn -0.000100 -1.000000 -0.000117
vn 0.000186 1.000000 0.000043
vn 0.000100 1.000000 0.000117
vn 0.000398 0.000117 -1.000000
vn 0.000421 0.000347 -1.000000
vn -1.000000 0.000187 -0.000743
vn 0.005316 0.000139 -0.999986
vn 0.005502 0.000087 -0.999985
vn 0.000401 0.000100 -1.000000
vn 0.005502 0.000116 -0.999985
vn 0.001378 0.999999 0.000118
vn -0.001378 -0.999999 -0.000118
vn 0.000743 0.000117 -1.000000
vn 0.005502 0.000344 -0.999985
usemtl Material
s off
f 5//1 8//1 7//1 6//1
f 9//2 10//2 11//2 12//2
f 13//3 16//3 15//3 14//3
f 9//4 13//4 14//4 10//4
f 11//5 15//5 16//5 12//5
f 15//6 11//6 19//6 17//6
f 10//7 14//7 18//7 20//7
f 14//8 15//8 17//8 18//8
f 11//9 10//9 20//9 19//9
f 19//10 20//10 21//10 22//10
f 18//11 17//11 24//11 23//11
f 20//12 18//12 23//12 21//12
f 17//13 19//13 22//13 24//13
f 21//1 23//1 24//1 22//1
f 12//14 16//14 25//14 27//14
f 13//15 9//15 28//15 26//15
f 16//16 13//16 26//16 25//16
f 9//17 12//17 27//17 28//17
f 29//18 49//18 50//18 30//18
f 30//19 50//19 51//19 31//19
f 31//20 51//20 52//20 32//20
f 32//21 52//21 53//21 33//21
f 33//22 53//22 54//22 34//22
f 34//23 54//23 55//23 35//23
f 35//24 55//24 56//24 36//24
f 36//25 56//25 57//25 37//25
f 37//26 57//26 58//26 38//26
f 38//27 58//27 59//27 39//27
f 39//28 59//28 60//28 40//28
f 40//29 60//29 61//29 41//29
f 41//30 61//30 62//30 42//30
f 42//31 62//31 63//31 43//31
f 43//32 63//32 64//32 44//32
f 44//33 64//33 65//33 45//33
f 45//34 65//34 66//34 46//34
f 46//35 66//35 67//35 47//35
f 47//36 67//36 68//36 48//36
f 48//37 68//37 49//37 29//37
f 48//38 29//38 89//38 70//38
f 47//39 48//39 70//39 71//39
f 46//40 47//40 71//40 72//40
f 45//41 46//41 72//41 73//41
f 44//42 45//42 73//42 74//42
f 43//43 44//43 74//43 75//43
f 42//44 43//44 75//44 76//44
f 41//45 42//45 76//45 77//45
f 40//46 41//46 77//46 78//46
f 39//47 40//47 78//47 79//47
f 38//48 39//48 79//48 80//48
f 37//49 38//49 80//49 81//49
f 36//50 37//50 81//50 82//50
f 35//51 36//51 82//51 83//51
f 34//52 35//52 83//52 84//52
f 33//53 34//53 84//53 85//53
f 32//54 33//54 85//54 86//54
f 31//55 32//55 86//55 87//55
f 30//56 31//56 87//56 88//56
f 29//57 30//57 88//57 89//57
f 69//58 89//58 88//58
f 69//59 88//59 87//59
f 69//60 87//60 86//60
f 69//61 86//61 85//61
f 69//62 85//62 84//62
f 69//63 84//63 83//63
f 69//64 83//64 82//64
f 69//65 82//65 81//65
f 69//66 81//66 80//66
f 69//67 80//67 79//67
f 69//68 79//68 78//68
f 69//69 78//69 77//69
f 69//70 77//70 76//70
f 69//71 76//71 75//71
f 69//72 75//72 74//72
f 69//73 74//73 73//73
f 69//74 73//74 72//74
f 69//75 72//75 71//75
f 69//76 71//76 70//76
f 69//77 70//77 89//77
f 49//78 68//78 91//78 110//78
f 68//79 67//79 92//79 91//79
f 67//80 66//80 93//80 92//80
f 66//81 65//81 94//81 93//81
f 65//82 64//82 95//82 94//82
f 64//83 63//83 96//83 95//83
f 63//84 62//84 97//84 96//84
f 62//85 61//85 98//85 97//85
f 61//86 60//86 99//86 98//86
f 60//87 59//87 100//87 99//87
f 59//88 58//88 101//88 100//88
f 58//89 57//89 102//89 101//89
f 57//90 56//90 103//90 102//90
f 56//91 55//91 104//91 103//91
f 55//92 54//92 105//92 104//92
f 54//93 53//93 106//93 105//93
f 53//94 52//94 107//94 106//94
f 52//95 51//95 108//95 107//95
f 51//96 50//96 109//96 108//96
f 50//97 49//97 110//97 109//97
f 90//98 109//98 110//98
f 90//99 108//99 109//99
f 90//100 107//100 108//100
f 90//101 106//101 107//101
f 90//101 105//101 106//101
f 90//101 104//101 105//101
f 90//102 103//102 104//102
f 90//103 102//103 103//103
f 90//103 101//103 102//103
f 90//99 100//99 101//99
f 90//99 99//99 100//99
f 90//98 98//98 99//98
f 90//101 97//101 98//101
f 90//103 96//103 97//103
f 90//100 95//100 96//100
f 90//103 94//103 95//103
f 90//102 93//102 94//102
f 90//103 92//103 93//103
f 90//103 91//103 92//103
f 90//102 110//102 91//102
f 28//104 27//104 112//104 111//104
f 25//104 26//104 113//104 114//104
f 26//104 28//104 111//104 113//104
f 27//104 25//104 114//104 112//104
f 112//105 114//105 115//105 117//105
f 113//106 111//106 118//106 116//106
f 114//107 113//107 116//107 115//107
f 111//108 112//108 117//108 118//108
f 121//109 122//109 119//109 120//109
f 123//110 126//110 125//110 124//110
f 119//111 123//111 124//111 120//111
f 120//112 124//112 125//112 121//112
f 121//113 125//113 126//113 122//113
f 122//114 126//114 123//114 119//114
f 127//115 125//115 130//115 129//115
f 127//116 129//116 132//116 133//116
f 129//13 130//13 131//13 132//13
f 130//117 125//117 134//117 131//117
f 127//118 133//118 134//118 125//118
f 133//119 134//119 131//119 132//119
f 128//1 135//1 136//1 121//1
f 128//120 135//120 138//120 139//120
f 135//121 136//121 137//121 138//121
f 136//116 121//116 140//116 137//116
f 128//13 121//13 140//13 139//13
f 139//122 140//122 137//122 138//122
f 143//123 144//123 141//123 142//123
f 145//124 148//124 147//124 146//124
f 141//125 145//125 146//125 142//125
f 142//126 146//126 147//126 143//126
f 144//127 148//127 145//127 141//127
f 148//128 144//128 151//128 149//128
f 147//129 148//129 149//129 150//129
f 144//130 143//130 152//130 151//130
f 151//131 152//131 153//131 154//131
f 150//132 149//132 156//132 155//132
f 149//133 151//133 154//133 156//133
f 156//134 154//134 159//134 157//134
f 153//126 155//126 158//126 160//126
f 155//135 156//135 157//135 158//135
f 154//136 153//136 160//136 159//136
f 160//137 158//137 157//137 159//137
f 125//138 127//138 132//138 131//138
f 161//139 5//139 6//139
f 2//118 161//118 6//118
f 161//140 1//140 5//140
f 163//141 6//141 7//141
f 163//142 2//142 6//142
f 162//143 8//143 5//143
f 1//144 162//144 5//144
f 166//145 1//145 161//145
f 164//146 166//146 161//146
f 162//145 1//145 166//145
f 4//147 165//147 8//147
f 3//148 165//148 168//148 167//148
f 3//149 167//149 164//149 163//149
f 161//150 2//150 163//150 164//150
f 4//151 162//151 168//151 165//151
f 162//151 166//151 168//151
f 4//152 8//152 162//152
f 3//147 7//147 8//147 165//147
f 3//153 163//153 7//153
usemtl Tela
f 116//154 118//154 117//154 115//154
usemtl Material.001
f 143//116 147//116 150//116 152//116
f 152//126 150//126 155//126 153//126
f 164//155 167//155 168//155 166//155
