# Blender v242 OBJ File: mala.blend
# www.blender3d.org
mtllib mala.mtl
o Cube_Cube
v 1.196190 0.131085 -4.695938
v 1.196190 0.131085 4.695938
v -1.188394 0.131085 4.695937
v -1.188393 0.131085 -4.695939
v 1.196190 7.223048 -4.695935
v 1.196189 7.223048 4.695941
v -1.188395 7.223048 4.695936
v -1.188394 7.223048 -4.695938
v 1.196190 7.223048 -0.299036
v 1.196189 7.223048 0.299039
v 0.600044 7.223048 -4.695936
v -0.592248 7.223048 -4.695937
v 0.600043 7.223048 4.695940
v -0.592249 7.223048 4.695938
v -1.188394 7.223048 0.299039
v -1.188394 7.223048 -0.299037
v -0.356667 7.223048 -0.574083
v 0.364462 7.223048 -0.574082
v -0.356667 7.223048 0.574084
v 0.364462 7.223048 0.574085
v -0.351911 7.842682 -0.382999
v -0.351911 7.842682 0.383000
v -0.351911 8.084530 0.000001
v -0.351911 7.797561 0.000001
v -0.351911 7.642672 0.245291
v -0.351911 7.268733 0.346893
v -0.351911 7.268733 -0.346892
v -0.351911 7.642671 -0.245290
v 0.370086 7.642671 -0.245290
v 0.370086 7.268733 -0.346892
v 0.370086 7.268733 0.346893
v 0.370086 7.642672 0.245291
v 0.370086 7.797561 0.000001
v 0.370086 8.084530 0.000001
v 0.370086 7.842682 0.383000
v 0.370086 7.842682 -0.382999
v 0.147211 7.842793 -0.382999
v 0.147211 7.842793 0.383000
v 0.147211 8.084641 0.000001
v 0.147211 7.797673 0.000001
v 0.147211 7.642782 0.245291
v 0.147211 7.268845 0.346893
v 0.147211 7.268845 -0.346892
v 0.147211 7.642782 -0.245290
v 0.141587 7.223160 0.574085
v 0.141588 7.223159 -0.574082
v -0.129751 7.642578 -0.245290
v -0.129751 7.268640 -0.346892
v -0.129751 7.268640 0.346893
v -0.129751 7.642578 0.245291
v -0.129751 7.797468 0.000001
v -0.129751 8.084436 0.000001
v -0.129751 7.842588 0.383000
v -0.129751 7.842588 -0.382999
v -0.134507 7.222955 0.574084
v -0.134507 7.222955 -0.574083
vn -0.000002 -0.000000 1.000000
vn 0.000002 0.000000 -1.000000
vn 0.065568 0.977951 0.198274
vn 0.065568 0.977951 -0.198275
vn -0.064626 0.978587 -0.195427
vn -0.064626 0.978587 0.195426
vn 0.000501 1.000000 0.000000
vn 0.000491 0.980373 0.197150
vn 0.000490 0.980373 -0.197152
vn -0.000147 -0.294688 -0.955594
vn -0.000147 -0.294686 0.955594
vn -0.000422 -0.845535 -0.533920
vn -0.000422 -0.845535 0.533920
vn 0.000422 0.845535 -0.533920
vn 0.000421 0.845535 0.533920
vn 0.000130 0.262203 0.965013
vn 0.000131 0.262203 -0.965013
vn 0.999874 -0.000996 -0.015830
vn 1.000000 0.000000 0.000000
vn 0.999874 -0.000996 0.015830
vn 0.000421 1.000000 0.000000
vn 0.000412 0.980374 0.197147
vn 0.000412 0.980374 -0.197148
vn -0.000124 -0.294686 0.955594
vn -0.000124 -0.294688 -0.955594
vn 0.000110 0.262203 -0.965013
vn 0.000110 0.262203 0.965013
vn 0.000355 0.845536 0.533918
vn 0.000354 0.845536 -0.533919
vn -0.000356 -0.845535 0.533919
vn -0.000356 -0.845535 -0.533920
vn -0.999910 0.000842 0.013388
vn -1.000000 0.000000 0.000000
vn -0.999910 0.000842 -0.013388
vn -0.000727 0.980379 0.197123
vn 0.000079 1.000000 0.000018
vn -0.000224 1.000000 -0.000048
vn 0.000079 1.000000 -0.000018
vn -0.000741 1.000000 0.000105
vn 0.000421 1.000000 -0.000024
vn -0.000726 0.980378 -0.197125
vn 0.999910 -0.000842 0.013388
vn -0.999874 0.000996 -0.015830
vn -0.999874 0.000996 0.015830
vn -0.000000 -1.000000 0.000000
vn -0.000000 1.000000 -0.000000
vn 0.000001 0.000000 -1.000000
vn -0.000001 -0.000000 1.000000
vn 0.055217 0.998474 0.000000
vn -0.054534 0.998512 -0.000000
vn -0.000740 1.000000 0.000000
usemtl Detalhes
s off
f 6//1 13//1 2//1
f 14//1 7//1 3//1
f 8//2 12//2 4//2
f 5//2 1//2 11//2
f 10//3 31//3 20//3
f 9//4 18//4 30//4
f 16//5 27//5 17//5
f 15//6 19//6 26//6
f 30//7 43//7 42//7 31//7
f 31//8 42//8 45//8 20//8
f 18//9 46//9 43//9 30//9
f 20//10 45//10 38//10 35//10
f 36//11 37//11 46//11 18//11
f 35//12 38//12 39//12 34//12
f 34//13 39//13 37//13 36//13
f 29//14 44//14 40//14 33//14
f 33//15 40//15 41//15 32//15
f 32//16 41//16 42//16 31//16
f 30//17 43//17 44//17 29//17
f 46//18 37//18 44//18 43//18
f 44//19 37//19 39//19 40//19
f 41//19 40//19 39//19 38//19
f 45//20 42//20 41//20 38//20
f 26//21 49//21 48//21 27//21
f 26//22 19//22 55//22 49//22
f 17//23 27//23 48//23 56//23
f 21//24 17//24 56//24 54//24
f 19//25 22//25 53//25 55//25
f 27//26 28//26 47//26 48//26
f 25//27 26//27 49//27 50//27
f 24//28 25//28 50//28 51//28
f 28//29 24//29 51//29 47//29
f 23//30 21//30 54//30 52//30
f 22//31 23//31 52//31 53//31
f 56//32 48//32 47//32 54//32
f 54//33 47//33 51//33 52//33
f 53//33 52//33 51//33 50//33
f 55//34 53//34 50//34 49//34
f 42//35 49//35 55//35 45//35
f 13//36 20//36 45//36 14//36
f 14//37 45//37 55//37 19//37
f 11//38 12//38 46//38 18//38
f 12//39 56//39 46//39
f 12//40 17//40 56//40
f 43//41 46//41 56//41 48//41
f 21//19 23//19 24//19 28//19
f 27//32 28//32 21//32 17//32
f 22//19 25//19 24//19 23//19
f 25//42 22//42 19//42 26//42
f 20//43 35//43 32//43 31//43
f 32//33 35//33 34//33 33//33
f 29//33 33//33 34//33 36//33
f 29//44 36//44 18//44 30//44
usemtl Couro
f 1//45 2//45 3//45 4//45
f 12//46 8//46 16//46 17//46
f 5//46 11//46 18//46 9//46
f 19//46 15//46 7//46 14//46
f 10//46 20//46 13//46 6//46
f 9//19 1//19 5//19
f 10//19 6//19 2//19
f 7//33 15//33 3//33
f 16//33 8//33 4//33
f 1//19 9//19 10//19 2//19
f 3//33 15//33 16//33 4//33
f 1//47 4//47 12//47 11//47
f 2//48 13//48 14//48 3//48
f 9//49 30//49 31//49 10//49
f 15//50 26//50 27//50 16//50
f 42//51 43//51 48//51 49//51
