# Blender OBJ File: /programacao/dccnitghtmare/blend/placa_pare.blend
# www.blender.org
mtllib placa_pare.mtl
o Cube_Cube.001
v 2.02213788033 25.3045291901 -0.334047138691
v 2.02213788033 15.6256008148 -0.334046453238
v -2.02149033546 15.6256027222 -0.334046423435
v -2.02148962021 25.3045310974 -0.334047108889
v 2.02213907242 25.3045272827 0.334046304226
v 2.02213668823 15.6255989075 0.334046989679
v -2.02149009705 15.6256008148 0.334046989679
v -2.02149057388 25.3045291901 0.334046304226
v 4.82650375366 22.8479366302 -0.334047019482
v 4.82650375366 18.0821914673 -0.334046572447
v 4.82650518417 22.8479347229 0.334046423435
v 4.82650279999 18.0821914673 0.33404687047
v -4.82520723343 18.0821914673 0.33404687047
v -4.82520961761 22.8479347229 0.334046423435
v -4.8252081871 18.0821914673 -0.334046572447
v -4.8252081871 22.8479366302 -0.334047019482
v 0.391972064972 15.6158828735 0.224223971367
v 0.532306551933 15.6158828735 0.0496057830751
v 0.48395049572 15.6158828735 -0.143959835172
v 0.26537451148 15.6158828735 -0.282537519932
v -0.0399329401553 15.6158828735 -0.313195317984
v -0.315354675055 15.6158828735 -0.224222913384
v -0.455689102411 15.6158828735 -0.0496048666537
v -0.407333076 15.6158828735 0.143960863352
v -0.188756927848 15.6158828735 0.28253865242
v 0.116550609469 15.6158828735 0.313196182251
v 0.391972392797 0.179353713989 0.224224388599
v 0.532306551933 0.179353713989 0.0496061593294
v 0.483950197697 0.179353713989 -0.143959477544
v 0.265373766422 0.179353713989 -0.28253698349
v -0.0399338528514 0.179353713989 -0.313194602728
v -0.315355449915 0.179353713989 -0.224221691489
v -0.455689281225 0.179353713989 -0.0496033318341
v -0.407332479954 0.179353713989 0.143962234259
v -0.18875579536 0.179353713989 0.282539635897
v 0.116551868618 0.179353713989 0.313196778297
v 0.0383086912334 15.6158828735 5.07551703777e-07
v 0.0383086912334 0.179353713989 1.19655840081e-06
vt 0.234375 0.984375 0.0
vt 0.234375 0.296875 0.0
vt 0.546875 0.296875 0.0
vt 0.546875 0.984375 0.0
vt 0.546875 0.984375 0.0
vt 0.234375 0.984375 0.0
vt 0.234375 0.296875 0.0
vt 0.546875 0.296875 0.0
vt 0.546875 0.296875 0.0
vt 0.546875 0.296875 0.0
vt 0.234375 0.296875 0.0
vt 0.234375 0.296875 0.0
vt 0.546875 0.984375 0.0
vt 0.546875 0.984375 0.0
vt 0.234375 0.984375 0.0
vt 0.234375 0.984375 0.0
vt 0.234375 0.296875 0.0
vt 0.234375 0.984375 0.0
vt 0.0625 0.8125 0.0
vt 0.0625 0.453125 0.0
vt 0.546875 0.984375 0.0
vt 0.546875 0.296875 0.0
vt 0.71875 0.453125 0.0
vt 0.71875 0.8125 0.0
vt 0.546875 0.296875 0.0
vt 0.546875 0.296875 0.0
vt 0.71875 0.453125 0.0
vt 0.71875 0.453125 0.0
vt 0.546875 0.984375 0.0
vt 0.546875 0.984375 0.0
vt 0.71875 0.8125 0.0
vt 0.71875 0.8125 0.0
vt 0.71875 0.8125 0.0
vt 0.71875 0.8125 0.0
vt 0.71875 0.453125 0.0
vt 0.71875 0.453125 0.0
vt 0.0625 0.8125 0.0
vt 0.0625 0.453125 0.0
vt 0.0625 0.453125 0.0
vt 0.0625 0.8125 0.0
vt 0.234375 0.984375 0.0
vt 0.0625 0.8125 0.0
vt 0.0625 0.8125 0.0
vt 0.234375 0.984375 0.0
vt 0.234375 0.296875 0.0
vt 0.0625 0.453125 0.0
vt 0.0625 0.453125 0.0
vt 0.234375 0.296875 0.0
vt 0.234375 0.984375 0.0
vt 0.0625 0.8125 0.0
vt 0.0625 0.453125 0.0
vt 0.234375 0.296875 0.0
vt 0.546875 0.296875 0.0
vt 0.71875 0.453125 0.0
vt 0.71875 0.8125 0.0
vt 0.546875 0.984375 0.0
vt 0.875 0.953125 0.0
vt 0.921875 0.953125 0.0
vt 0.921875 0.953125 0.0
vt 0.875 0.03125 0.0
vt 0.921875 0.03125 0.0
vt 0.921875 0.03125 0.0
vt 0.875 0.953125 0.0
vt 0.921875 0.953125 0.0
vt 0.921875 0.953125 0.0
vt 0.875 0.03125 0.0
vt 0.921875 0.03125 0.0
vt 0.921875 0.03125 0.0
vt 0.875 0.953125 0.0
vt 0.921875 0.953125 0.0
vt 0.921875 0.953125 0.0
vt 0.875 0.03125 0.0
vt 0.921875 0.03125 0.0
vt 0.921875 0.03125 0.0
vt 0.875 0.953125 0.0
vt 0.921875 0.953125 0.0
vt 0.875 0.953125 0.0
vt 0.875 0.03125 0.0
vt 0.875 0.03125 0.0
vt 0.921875 0.03125 0.0
vt 0.875 0.953125 0.0
vt 0.875 0.953125 0.0
vt 0.875 0.953125 0.0
vt 0.875 0.03125 0.0
vt 0.875 0.03125 0.0
vt 0.875 0.03125 0.0
vt 0.875 0.953125 0.0
vt 0.875 0.953125 0.0
vt 0.875 0.953125 0.0
vt 0.875 0.03125 0.0
vt 0.875 0.03125 0.0
vt 0.875 0.03125 0.0
vt 0.875 0.953125 0.0
vt 0.875 0.953125 0.0
vt 0.875 0.953125 0.0
vt 0.875 0.03125 0.0
vt 0.875 0.03125 0.0
vt 0.875 0.03125 0.0
vt 0.875 0.953125 0.0
vt 0.875 0.953125 0.0
vt 0.875 0.953125 0.0
vt 0.875 0.03125 0.0
vt 0.875 0.03125 0.0
vt 0.875 0.03125 0.0
vt 0.875 0.953125 0.0
vt 0.875 0.953125 0.0
vt 0.875 0.953125 0.0
vt 0.875 0.03125 0.0
vt 0.875 0.03125 0.0
vt 0.875 0.03125 0.0
vt 0.875 0.953125 0.0
vt 0.875 0.953125 0.0
vt 0.921875 0.953125 0.0
vt 0.875 0.03125 0.0
vt 0.921875 0.03125 0.0
vt 0.875 0.03125 0.0
vt 0.921875 0.953125 0.0
vt 0.921875 0.03125 0.0
vt 0.921875 0.03125 0.0
vt 0.921875 0.953125 0.0
vt 0.921875 0.953125 0.0
vt 0.921875 0.03125 0.0
vt 0.921875 0.03125 0.0
vt 0.921875 0.953125 0.0
vt 0.921875 0.953125 0.0
vt 0.921875 0.03125 0.0
vt 0.921875 0.03125 0.0
vt 0.921875 0.953125 0.0
vt 0.921875 0.953125 0.0
vt 0.921875 0.03125 0.0
vt 0.875 0.03125 0.0
vt 0.875 0.953125 0.0
vt 0.875 0.953125 0.0
vt 0.875 0.03125 0.0
vt 0.875 0.03125 0.0
vt 0.875 0.953125 0.0
vt 0.875 0.953125 0.0
vt 0.875 0.03125 0.0
vt 0.875 0.03125 0.0
vt 0.875 0.953125 0.0
vt 0.875 0.953125 0.0
vt 0.875 0.03125 0.0
vt 0.875 0.03125 0.0
vt 0.875 0.953125 0.0
vt 0.875 0.953125 0.0
vt 0.875 0.03125 0.0
vt 0.875 0.03125 0.0
vt 0.875 0.953125 0.0
vt 0.875 0.953125 0.0
vt 0.875 0.03125 0.0
vt 0.875 0.03125 0.0
vt 0.875 0.953125 0.0
vt 0.875 0.953125 0.0
vt 0.875 0.03125 0.0
vt 0.921875 0.03125 0.0
vt 0.921875 0.953125 0.0
vn -0.271682500839 -0.722452163696 -0.635807812214
vn 0.271682500839 -0.722452163696 -0.635807812214
vn -0.271716028452 -0.722460150719 -0.635784327984
vn 0.271716028452 -0.722460150719 -0.635784327984
vn 0.271682500839 0.722452163696 0.635807812214
vn -0.271716028452 0.722460150719 0.635784327984
vn 0.271716028452 0.722460150719 0.635784327984
vn -0.271682500839 0.722452163696 0.635807812214
vn 0.271682500839 -0.722452163696 -0.635807812214
vn -0.271682500839 0.722452163696 0.635807812214
vn 0.271716028452 0.722460150719 0.635784327984
vn -0.271716028452 -0.722460150719 -0.635784327984
vn 0.271682500839 0.722452163696 0.635807812214
vn -0.271682500839 -0.722452163696 -0.635807812214
vn 0.271716028452 -0.722460150719 -0.635784327984
vn -0.271716028452 0.722460150719 0.635784327984
vn 0.271682500839 -0.722452163696 -0.635807812214
vn -0.271682500839 -0.722452163696 -0.635807812214
vn 0.711025178432 0.322399705648 -0.624901354313
vn 0.711025178432 -0.322399824858 -0.624901294708
vn 0.271682500839 0.722452163696 0.635807812214
vn -0.271682500839 0.722452163696 0.635807812214
vn -0.711025178432 0.322399824858 0.624901294708
vn 0.711025178432 0.322399824858 0.624901294708
vn -0.271682500839 0.722452163696 0.635807812214
vn 0.271682500839 -0.722452163696 -0.635807812214
vn 0.711025178432 -0.322399824858 -0.624901294708
vn -0.711025178432 0.322399824858 0.624901294708
vn -0.271682500839 -0.722452163696 -0.635807812214
vn 0.271682500839 0.722452163696 0.635807812214
vn 0.711025178432 0.322399824858 0.624901294708
vn 0.711025178432 0.322399705648 -0.624901354313
vn 0.711025178432 0.322399705648 -0.624901354313
vn 0.711025178432 0.322399824858 0.624901294708
vn -0.711025178432 0.322399824858 0.624901294708
vn 0.711025178432 -0.322399824858 -0.624901294708
vn -0.711039125919 0.322344988585 -0.62491363287
vn -0.711039125919 -0.322345107794 -0.624913573265
vn -0.711039125919 -0.322345107794 -0.624913573265
vn -0.711039125919 0.322345107794 0.624913573265
vn 0.271716028452 -0.722460150719 -0.635784327984
vn -0.711039125919 0.322344988585 -0.62491363287
vn -0.711039125919 0.322345107794 0.624913573265
vn -0.271716028452 0.722460150719 0.635784327984
vn 0.271716028452 0.722460150719 0.635784327984
vn -0.711039125919 -0.322345107794 -0.624913573265
vn -0.711039125919 -0.322345107794 -0.624913573265
vn -0.271716028452 -0.722460150719 -0.635784327984
vn -0.271716028452 0.722460150719 0.635784327984
vn -0.711039125919 0.322345107794 0.624913573265
vn -0.711039125919 -0.322345107794 -0.624913573265
vn 0.271716028452 0.722460150719 0.635784327984
vn -0.271716028452 -0.722460150719 -0.635784327984
vn -0.711039125919 -0.322345107794 -0.624913573265
vn -0.711039125919 0.322344988585 -0.62491363287
vn 0.271716028452 -0.722460150719 -0.635784327984
vn 0.0 1.0 -1.19209289551e-07
vn 0.432065814734 0.647930920124 0.627299547195
vn 0.766855895519 0.619356632233 0.16831330955
vn 0.0 -1.0 1.19209289551e-07
vn 0.766855895519 -0.619356632233 0.168313458562
vn 0.432065784931 -0.647930800915 0.627299666405
vn 0.0 1.0 -1.19209289551e-07
vn 0.766855895519 0.619356632233 0.16831330955
vn 0.628150105476 0.632300674915 -0.453457117081
vn 0.0 -1.0 1.19209289551e-07
vn 0.628150105476 -0.632300794125 -0.453456997871
vn 0.766855895519 -0.619356632233 0.168313458562
vn 0.0 1.0 -1.19209289551e-07
vn 0.628150105476 0.632300674915 -0.453457117081
vn 0.245619103312 0.658727884293 -0.711160182953
vn 0.0 -1.0 1.19209289551e-07
vn 0.245619118214 -0.658728063107 -0.711160004139
vn 0.628150105476 -0.632300794125 -0.453456997871
vn 0.0 1.0 -1.19209289551e-07
vn 0.245619103312 0.658727884293 -0.711160182953
vn 0.0792573466897 0.663784205914 0.743712842464
vn 0.0 -1.0 1.19209289551e-07
vn -0.0792573466897 -0.663784205914 -0.743712842464
vn 0.245619118214 -0.658728063107 -0.711160004139
vn 0.0 1.0 -1.19209289551e-07
vn 0.0792573466897 0.663784205914 0.743712842464
vn -0.432065784931 0.647930800915 -0.627299666405
vn 0.0 -1.0 1.19209289551e-07
vn -0.432065814734 -0.647930920124 -0.627299547195
vn -0.0792573466897 -0.663784205914 -0.743712842464
vn 0.0 1.0 -1.19209289551e-07
vn -0.432065784931 0.647930800915 -0.627299666405
vn -0.766855895519 0.619356632233 -0.168313458562
vn 0.0 -1.0 1.19209289551e-07
vn -0.766855895519 -0.619356632233 -0.16831330955
vn -0.432065814734 -0.647930920124 -0.627299547195
vn 0.0 1.0 -1.19209289551e-07
vn -0.766855895519 0.619356632233 -0.168313458562
vn -0.628150105476 0.632300794125 0.453456997871
vn 0.0 -1.0 1.19209289551e-07
vn -0.628150105476 -0.632300674915 0.453457117081
vn -0.766855895519 -0.619356632233 -0.16831330955
vn 0.0 1.0 -1.19209289551e-07
vn -0.628150105476 0.632300794125 0.453456997871
vn -0.245619118214 0.658728063107 0.711160004139
vn 0.0 -1.0 1.19209289551e-07
vn -0.245619103312 -0.658727884293 0.711160182953
vn -0.628150105476 -0.632300674915 0.453457117081
vn 0.0 1.0 -1.19209289551e-07
vn -0.245619118214 0.658728063107 0.711160004139
vn 0.0792573466897 0.663784205914 0.743712842464
vn 0.0 -1.0 1.19209289551e-07
vn 0.0792573466897 -0.6637840271 0.743712961674
vn -0.245619103312 -0.658727884293 0.711160182953
vn 0.0 1.0 -1.19209289551e-07
vn 0.0792573466897 0.663784205914 0.743712842464
vn 0.432065814734 0.647930920124 0.627299547195
vn 0.0 -1.0 1.19209289551e-07
vn 0.432065784931 -0.647930800915 0.627299666405
vn 0.0792573466897 -0.6637840271 0.743712961674
vn 0.432065814734 0.647930920124 0.627299547195
vn 0.432065784931 -0.647930800915 0.627299666405
vn 0.766855895519 -0.619356632233 0.168313458562
vn 0.766855895519 0.619356632233 0.16831330955
vn 0.766855895519 0.619356632233 0.16831330955
vn 0.766855895519 -0.619356632233 0.168313458562
vn 0.628150105476 -0.632300794125 -0.453456997871
vn 0.628150105476 0.632300674915 -0.453457117081
vn 0.628150105476 0.632300674915 -0.453457117081
vn 0.628150105476 -0.632300794125 -0.453456997871
vn 0.245619118214 -0.658728063107 -0.711160004139
vn 0.245619103312 0.658727884293 -0.711160182953
vn 0.245619103312 0.658727884293 -0.711160182953
vn 0.245619118214 -0.658728063107 -0.711160004139
vn -0.0792573466897 -0.663784205914 -0.743712842464
vn 0.0792573466897 0.663784205914 0.743712842464
vn 0.0792573466897 0.663784205914 0.743712842464
vn -0.0792573466897 -0.663784205914 -0.743712842464
vn -0.432065814734 -0.647930920124 -0.627299547195
vn -0.432065784931 0.647930800915 -0.627299666405
vn -0.432065784931 0.647930800915 -0.627299666405
vn -0.432065814734 -0.647930920124 -0.627299547195
vn -0.766855895519 -0.619356632233 -0.16831330955
vn -0.766855895519 0.619356632233 -0.168313458562
vn -0.766855895519 0.619356632233 -0.168313458562
vn -0.766855895519 -0.619356632233 -0.16831330955
vn -0.628150105476 -0.632300674915 0.453457117081
vn -0.628150105476 0.632300794125 0.453456997871
vn -0.628150105476 0.632300794125 0.453456997871
vn -0.628150105476 -0.632300674915 0.453457117081
vn -0.245619103312 -0.658727884293 0.711160182953
vn -0.245619118214 0.658728063107 0.711160004139
vn -0.245619118214 0.658728063107 0.711160004139
vn -0.245619103312 -0.658727884293 0.711160182953
vn 0.0792573466897 -0.6637840271 0.743712961674
vn 0.0792573466897 0.663784205914 0.743712842464
vn 0.0792573466897 0.663784205914 0.743712842464
vn 0.0792573466897 -0.6637840271 0.743712961674
vn 0.432065784931 -0.647930800915 0.627299666405
vn 0.432065814734 0.647930920124 0.627299547195
usemtl Placa
usemat pare.png
f 1/1/1 2/2/2 3/3/3 4/4/4 
f 5/5/5 8/6/6 7/7/7 6/8/8 
f 2/9/9 6/10/10 7/11/11 3/12/12 
f 5/13/13 1/14/14 4/15/15 8/16/16 
f 2/17/17 1/18/18 9/19/19 10/20/20 
f 5/21/21 6/22/22 12/23/23 11/24/24 
f 6/25/25 2/26/26 10/27/27 12/28/28 
f 1/29/29 5/30/30 11/31/31 9/32/32 
f 9/33/33 11/34/34 12/35/35 10/36/36 
f 16/37/37 15/38/38 13/39/39 14/40/40 
f 4/41/41 16/42/42 14/43/43 8/44/44 
f 7/45/45 13/46/46 15/47/47 3/48/48 
f 8/49/49 14/50/50 13/51/51 7/52/52 
f 3/53/53 15/54/54 16/55/55 4/56/56 
f 37/57/57 17/58/58 18/59/59 
f 38/60/60 28/61/61 27/62/62 
f 37/63/63 18/64/64 19/65/65 
f 38/66/66 29/67/67 28/68/68 
f 37/69/69 19/70/70 20/71/71 
f 38/72/72 30/73/73 29/74/74 
f 37/75/75 20/76/76 21/77/77 
f 38/78/78 31/79/79 30/80/80 
f 37/81/81 21/82/82 22/83/83 
f 38/84/84 32/85/85 31/86/86 
f 37/87/87 22/88/88 23/89/89 
f 38/90/90 33/91/91 32/92/92 
f 37/93/93 23/94/94 24/95/95 
f 38/96/96 34/97/97 33/98/98 
f 37/99/99 24/100/100 25/101/101 
f 38/102/102 35/103/103 34/104/104 
f 37/105/105 25/106/106 26/107/107 
f 38/108/108 36/109/109 35/110/110 
f 37/111/111 26/112/112 17/113/113 
f 38/114/114 27/115/115 36/116/116 
f 17/117/117 27/118/118 28/119/119 18/120/120 
f 18/121/121 28/122/122 29/123/123 19/124/124 
f 19/125/125 29/126/126 30/127/127 20/128/128 
f 20/129/129 30/130/130 31/131/131 21/132/132 
f 21/133/133 31/134/134 32/135/135 22/136/136 
f 22/137/137 32/138/138 33/139/139 23/140/140 
f 23/141/141 33/142/142 34/143/143 24/144/144 
f 24/145/145 34/146/146 35/147/147 25/148/148 
f 25/149/149 35/150/150 36/151/151 26/152/152 
f 26/153/153 36/154/154 27/155/155 17/156/156 
