<?xml version="1.0" encoding="UTF-8" standalone="no"?>
<!-- Created with Inkscape (http://www.inkscape.org/) -->

<svg
   xmlns:dc="http://purl.org/dc/elements/1.1/"
   xmlns:cc="http://creativecommons.org/ns#"
   xmlns:rdf="http://www.w3.org/1999/02/22-rdf-syntax-ns#"
   xmlns:svg="http://www.w3.org/2000/svg"
   xmlns="http://www.w3.org/2000/svg"
   xmlns:sodipodi="http://sodipodi.sourceforge.net/DTD/sodipodi-0.dtd"
   xmlns:inkscape="http://www.inkscape.org/namespaces/inkscape"
   width="210mm"
   height="297mm"
   id="svg2"
   version="1.1"
   inkscape:version="0.48.2 r9819"
   sodipodi:docname="signs.svg">
  <defs
     id="defs4" />
  <sodipodi:namedview
     id="base"
     pagecolor="#ffffff"
     bordercolor="#666666"
     borderopacity="1.0"
     inkscape:pageopacity="0.0"
     inkscape:pageshadow="2"
     inkscape:zoom="2.8"
     inkscape:cx="71.457654"
     inkscape:cy="947.64289"
     inkscape:document-units="px"
     inkscape:current-layer="layer1"
     showgrid="false"
     inkscape:window-width="1399"
     inkscape:window-height="847"
     inkscape:window-x="0"
     inkscape:window-y="31"
     inkscape:window-maximized="1">
    <inkscape:grid
       type="xygrid"
       id="grid2985" />
  </sodipodi:namedview>
  <metadata
     id="metadata7">
    <rdf:RDF>
      <cc:Work
         rdf:about="">
        <dc:format>image/svg+xml</dc:format>
        <dc:type
           rdf:resource="http://purl.org/dc/dcmitype/StillImage" />
        <dc:title></dc:title>
      </cc:Work>
    </rdf:RDF>
  </metadata>
  <g
     inkscape:label="Camada 1"
     inkscape:groupmode="layer"
     id="layer1">
    <rect
       style="fill:#ffcc00;fill-opacity:1;stroke:#000000;stroke-width:2.79999995000000013;stroke-linecap:round;stroke-linejoin:round;stroke-miterlimit:4;stroke-opacity:1;stroke-dasharray:none"
       id="rect3971"
       width="125.35714"
       height="45.357143"
       x="25"
       y="20.933609"
       inkscape:export-filename="/projetos/dccnitghtmare/data/models/objetos/geral/signs/bar.png"
       inkscape:export-xdpi="90"
       inkscape:export-ydpi="90" />
    <g
       id="g3014"
       transform="translate(-235.71429,-58.571429)">
      <g
         transform="matrix(0.27173084,0,0,0.23234458,214.98435,81.136001)"
         id="g3005">
        <path
           style="fill:#000000;fill-opacity:1;stroke:#000000;stroke-width:8.3334465;stroke-linejoin:round;stroke-miterlimit:4;stroke-opacity:1;stroke-dasharray:none"
           id="path2997"
           d="m 273.23345,77.248762 c 1.93122,0.168879 3.86786,0.18044 5.8021,0.212523 3.05588,-0.0027 6.11496,0.192339 9.13383,0.882362 1.33896,0.379104 2.68092,1.002338 3.53613,2.611714 0.42505,0.799869 0.51742,1.312075 0.7714,2.226716 0.6297,2.656537 0.61758,5.470162 0.58179,8.237471 -0.0714,2.088421 -0.21827,4.185954 -0.75527,6.150988 -0.30619,1.120439 -0.46041,1.394256 -0.88865,2.420517 -2.72289,5.764517 -5.33958,6.373787 -10.41466,10.537417 -1.63529,0.83914 -3.39231,0.93982 -5.11291,1.04068 -1.24222,-0.0187 -2.50316,0.28373 -3.74038,0.0635 -1.01194,-0.20984 -2.02165,-0.48604 -3.01175,-0.85279 -0.8443,-0.29958 -1.49623,-1.06953 -2.19441,-1.74768 -0.34301,-0.38282 -0.705,-0.72425 -1.05955,-1.08401 0,0 7.38262,-6.60364 7.38262,-6.60364 l 0,0 c 0.32382,0.37954 0.66415,0.72975 1.00325,1.08125 0.59809,0.62102 1.22668,1.17863 1.96066,1.41251 0.97687,0.31299 1.96442,0.58016 2.96664,0.65555 1.16508,0.0397 2.33131,0.07 3.49596,-0.0113 1.70006,-0.16853 3.43737,-0.37201 4.96679,-1.539 -14.94371,12.44353 -7.3926,6.71274 -5.58589,4.4127 0.60279,-0.76738 1.12371,-1.64708 1.61764,-2.55441 0.44723,-0.89872 0.64166,-1.21818 0.99135,-2.20992 0.64002,-1.81516 0.85007,-3.795908 0.92301,-5.804834 0.0131,-2.603004 0.002,-5.240179 -0.5537,-7.749828 -0.19263,-0.749992 -0.25261,-1.16786 -0.60053,-1.807872 -0.7331,-1.34852 -1.93796,-1.789292 -3.04868,-2.148542 -2.98141,-0.693882 -5.99949,-0.888559 -9.01909,-0.766801 -2.07192,0.03331 -4.1455,0.05216 -6.21489,0.21252 0,0 7.06719,-7.277146 7.06719,-7.277146 z"
           inkscape:connector-curvature="0" />
        <path
           style="fill:#ffffff;stroke:#000000;stroke-width:1.03240263000000021px;stroke-linecap:butt;stroke-linejoin:miter;stroke-opacity:1"
           d="m 231.04632,22.476028 c -1.19958,0.481065 -1.72257,2.052754 -1.26141,3.315506 0.32048,1.440185 -1.00874,1.858993 -0.81134,0.156014 -0.001,-1.942089 -2.13154,-2.90646 -3.57074,-2.044749 -0.95543,0.410526 -1.31894,1.245152 -1.58358,2.214291 -0.61407,0.93895 -0.54443,0.439898 -0.84121,-0.388732 -0.26944,-0.791715 -0.84491,-0.565487 -1.03214,-0.862278 -0.0589,0.511252 -1.32846,0.225763 -1.65802,0.276216 0.15327,0.639284 -0.82464,-0.555657 -0.80213,-0.192067 0.54465,-0.597035 -0.88746,-0.46803 -0.3194,-0.245925 -0.31485,0.161737 -0.72527,1.000133 -1.13581,1.10338 -0.17769,1.395387 -0.0251,-1.87315 -0.79826,-0.117645 -0.43136,0.481489 -0.63415,0.423431 -0.70762,1.048782 -0.0371,-0.119605 -0.28116,-0.01404 0.0615,0.169158 0.32891,0.708703 -1.00262,-0.157836 -0.58455,-0.101493 -0.10775,-0.116372 -0.0416,-0.349841 0.33843,-0.236822 0.68761,-0.577393 -0.81094,-0.416317 0.33842,-0.710466 -0.32138,-0.994208 -0.0114,-0.165057 -0.30766,-1.184109 1.15291,-0.323536 -0.92359,-1.482728 -0.69856,-0.762144 -0.36471,-0.576193 -1.36873,-0.316297 -2.09872,-0.01051 -0.9296,0.65756 -1.31239,1.459435 -1.7102,2.384761 -0.17895,1.170035 -1.13368,1.557731 -0.78432,2.906045 0.30724,-0.251321 -0.70866,1.195436 -1.13835,1.064024 -0.80895,-0.973907 -0.33527,-2.97004 -1.56907,-3.586158 -1.41079,-0.43378 -2.23037,1.39214 -2.30747,2.672703 -0.47886,1.374401 -0.61451,2.856155 -0.61533,4.296624 -0.88015,0.800427 -0.88573,-1.308915 -1.3151,-1.775958 -0.89719,-0.905018 -2.25225,-0.514156 -3.36137,-0.659924 -1.23573,0.485235 -0.93471,2.268261 -0.97213,3.411451 -0.20543,0.674324 0.79132,3.247475 -0.0781,2.301489 -0.58767,-0.720399 -1.36027,-1.450421 -2.29575,-1.28256 -1.77558,-0.4317 -3.59008,0.03246 -5.29932,0.57671 -0.88713,1.002211 -0.46951,2.701585 0.4615,3.484663 -1.45202,0.723687 -3.26387,0.331335 -4.58417,1.319436 -0.50713,1.105406 0.14519,2.375511 0.46149,3.450833 1.12697,2.041669 3.41244,2.628372 5.32256,3.383168 1.38237,0.359697 2.80778,0.80693 4.20402,0.929045 1.07376,-0.521711 1.62557,0.816389 0.78012,1.540668 -0.30679,1.411654 1.87997,1.769946 1.38448,3.247841 -0.22084,1.804686 1.71642,2.380667 2.63214,3.450253 1.41797,1.367778 2.5285,3.125942 4.25213,4.073919 1.10863,0.651612 1.88281,1.829876 1.90705,3.237606 0.0347,1.237016 0.58894,2.634381 1.8538,2.770897 1.99837,0.484891 4.06028,0.621377 6.08248,0.913455 1.65811,-0.131309 3.24539,0.464822 4.89465,0.433969 1.56748,0.381956 3.15789,0.493372 4.75207,0.337897 2.9407,-0.0284 5.88148,-0.03106 8.82226,-0.02757 1.53683,-0.909326 3.32885,-0.03158 4.97428,-0.395392 1.69583,-0.353622 3.40884,-0.406024 5.05553,-0.991707 2.36783,-0.380355 4.75027,-0.677511 7.03674,-1.496804 2.38379,-0.378567 4.2154,-2.169793 6.25528,-3.409447 1.21419,-0.963561 2.83917,-1.256703 3.66968,-2.744308 0.98627,-1.488168 2.16866,-2.855392 3.77475,-3.513897 1.70357,-1.81394 3.70569,-3.236904 5.84835,-4.329092 1.24577,-0.959947 2.80885,-1.425119 3.92275,-2.559633 0.67743,-0.701545 0.38827,-2.32332 1.38953,-2.518055 0.97424,-0.05512 2.01805,-0.287207 2.46912,-1.352244 0.67759,-1.0355 -0.1976,-2.334077 0.5227,-3.331793 0.592,-1.081741 -0.28223,-2.020536 -0.30763,-3.09568 -0.0765,-1.22746 -0.23301,-3.019096 -1.66138,-3.146346 -0.99531,-0.171322 -1.92043,-0.255548 -2.67667,-0.20299 -0.55276,-1.090353 -0.47107,-3.098638 -1.9075,-3.247842 -1.16526,0.767114 -2.25646,1.694611 -3.38429,2.537376 -0.33628,-0.944536 -0.78123,-2.567107 -1.99274,-2.065028 -1.46528,0.198169 -2.93625,1.296878 -4.40664,0.847088 -0.45368,-0.609045 0.42311,-2.63378 -0.89222,-2.131396 -0.76332,0.393144 -0.93124,2.211798 -1.93827,1.82691 -1.10579,-1.08492 -0.61126,-3.185006 -1.90751,-4.161296 -0.88983,-0.765993 -2.18059,-0.454257 -2.95356,0.338316 -1.06434,0.413594 -1.50897,-1.523962 -2.60999,-1.101266 -1.03333,0.01975 -1.97908,0.546556 -2.98947,0.729118 -0.17916,1.375533 -1.65607,0.0021 -1.15329,-0.87386 0.0388,-1.155562 -1.0963,-2.329685 -2.10793,-1.629685 -1.09871,0.485393 -1.52682,1.810568 -1.96905,2.909525 -1.1185,-0.02733 -0.43416,-1.632362 -0.79992,-2.368218 -0.18424,-1.141308 -1.9269,-1.563869 -2.33823,-0.372149 -0.91717,1.019923 -1.36322,2.425051 -2.2767,3.450833 -1.20339,-0.02766 -1.15403,-1.746241 -1.07683,-2.706536 -0.10219,-1.299153 -1.57635,-1.162483 -2.3612,-0.741098 -0.90048,0.260334 -2.42954,0.511767 -2.5614,-0.916654 -0.55162,-1.442958 -1.36592,-3.357319 -2.95356,-3.518496 z m -14.3063,4.634942 c -0.27128,-0.146216 -0.13789,0.09442 0,0 z m -0.33843,-0.405981 c 0.10209,-0.0352 -0.0423,-0.06242 0,0 z m 0,-0.03383 c 0.0178,-0.146575 -0.22638,0.176067 0,0 z m 4.67647,-1.082614 c -0.81428,0.514555 -0.28451,-0.587715 0,0 z m -4.43034,0.473644 c 0.15778,0.151495 -0.0312,-0.127978 0,0 z m 0.76916,0.507476 c 0.40015,0.197806 0.14945,0.256069 -0.30767,0.507475 -0.11305,-0.258907 -0.26534,-0.892714 0.30767,-0.507475 z m -0.52303,0.507475 c -0.077,0.149151 -0.093,-0.09218 0,0 z m -1.07682,0.03383 c -0.14953,0.237223 -0.0937,-0.08121 0,0 z m 0.83069,0.710465 c -0.0183,-0.06324 0.0991,-0.205805 0,0 z m -0.2769,0.372149 c 0.63251,0.314231 -0.64364,0.364004 -0.80826,-0.121875 0.42625,0.491564 0.85761,-0.690162 0.80826,0.121875 z m -0.24613,-0.06766 c -0.12832,0.294199 0.3335,0.383513 0,0 z m 47.6877,2.943357 c 0.10634,0.121943 -0.056,-0.615945 0,0 z m 16.8599,10.893801 c -0.0774,0.432278 0.17492,-0.289606 0,0 z"
           id="path3003"
           inkscape:connector-curvature="0" />
        <path
           style="fill:#d4aa00;fill-opacity:1;stroke:#000000;stroke-width:7;stroke-linejoin:round;stroke-miterlimit:4;stroke-opacity:1"
           d="m 198.9375,52.5625 c 0.35417,33.270833 0.70833,66.54167 1.0625,99.8125 23.33333,0 46.66667,0 70,0 0,-33.33333 0,-66.666667 0,-100 -25.20273,18.245246 -44.34454,22.095818 -71.0625,0.1875 z"
           id="rect2987"
           inkscape:connector-curvature="0"
           sodipodi:nodetypes="ccccc" />
      </g>
      <text
         sodipodi:linespacing="125%"
         id="text3010"
         y="118.07646"
         x="296.42856"
         style="font-size:40px;font-style:normal;font-variant:normal;font-weight:500;font-stretch:normal;line-height:125%;letter-spacing:0px;word-spacing:0px;fill:#000000;fill-opacity:1;stroke:none;font-family:Manzanita;-inkscape-font-specification:Manzanita Medium"
         xml:space="preserve"><tspan
           y="118.07646"
           x="296.42856"
           id="tspan3012"
           sodipodi:role="line">Bar do Zé</tspan></text>
    </g>
    <g
       id="g3939"
       transform="translate(7.8571429,2.5)"
       inkscape:export-filename="/projetos/dccnitghtmare/data/models/objetos/geral/signs/school.png"
       inkscape:export-xdpi="116.12692"
       inkscape:export-ydpi="116.12692">
      <rect
         y="75.29213"
         x="24.496199"
         height="42.931477"
         width="46.972095"
         id="rect3937"
         style="fill:#ff7f2a;fill-opacity:1;stroke:#000000;stroke-width:2.79999995;stroke-linecap:round;stroke-linejoin:round;stroke-miterlimit:4;stroke-opacity:1;stroke-dasharray:none" />
      <g
         id="g3905">
        <g
           id="g3825"
           transform="matrix(0.65500143,-0.43102142,0.39826978,0.60523041,-103.11332,78.558063)">
          <rect
             y="112.71255"
             x="141.90147"
             height="36.91877"
             width="9.5270948"
             id="rect3041"
             style="fill:#550000;fill-opacity:1;stroke:#000000;stroke-width:1;stroke-linejoin:round;stroke-miterlimit:4;stroke-opacity:1;stroke-dasharray:none" />
          <path
             sodipodi:nodetypes="cccc"
             inkscape:connector-curvature="0"
             id="path3817"
             d="m 142.30524,149.79088 8.90197,0 -5.36644,13.32138 z"
             style="fill:#d3bc5f;stroke:#000000;stroke-width:1px;stroke-linecap:butt;stroke-linejoin:miter;stroke-opacity:1" />
          <path
             sodipodi:nodetypes="cc"
             inkscape:connector-curvature="0"
             id="path3823"
             d="m 145.9039,161.24965 c 0,0.79705 0,1.13977 0,2.67831"
             style="fill:#ff0000;stroke:#bf0000;stroke-width:1.07358098px;stroke-linecap:butt;stroke-linejoin:miter;stroke-opacity:1" />
        </g>
        <g
           id="g3880"
           transform="matrix(-0.6407211,-0.7677737,-0.7677737,0.6407211,188.30881,103.74738)">
          <rect
             y="79.720528"
             x="91.923882"
             height="46.122559"
             width="7.9026513"
             id="rect3830"
             style="fill:#c8b7b7;fill-opacity:1;stroke:#000000;stroke-width:1;stroke-linejoin:round;stroke-miterlimit:4;stroke-opacity:1;stroke-dasharray:none" />
          <path
             inkscape:connector-curvature="0"
             id="path3832"
             d="m 99.910715,123.70147 -2.321429,0"
             style="fill:none;stroke:#000000;stroke-width:1px;stroke-linecap:butt;stroke-linejoin:miter;stroke-opacity:1" />
          <path
             style="fill:none;stroke:#000000;stroke-width:1px;stroke-linecap:butt;stroke-linejoin:miter;stroke-opacity:1"
             d="m 99.910715,121.70147 -2.321429,0"
             id="path3834"
             inkscape:connector-curvature="0" />
          <path
             inkscape:connector-curvature="0"
             id="path3836"
             d="m 99.910715,119.70147 -2.321429,0"
             style="fill:none;stroke:#000000;stroke-width:1px;stroke-linecap:butt;stroke-linejoin:miter;stroke-opacity:1" />
          <path
             style="fill:none;stroke:#000000;stroke-width:1px;stroke-linecap:butt;stroke-linejoin:miter;stroke-opacity:1"
             d="m 99.910715,117.70147 -2.321429,0"
             id="path3838"
             inkscape:connector-curvature="0" />
          <path
             inkscape:connector-curvature="0"
             id="path3840"
             d="m 99.910715,115.70147 -2.321429,0"
             style="fill:none;stroke:#000000;stroke-width:1px;stroke-linecap:butt;stroke-linejoin:miter;stroke-opacity:1" />
          <path
             style="fill:none;stroke:#000000;stroke-width:1px;stroke-linecap:butt;stroke-linejoin:miter;stroke-opacity:1"
             d="m 99.910715,113.70147 -2.321429,0"
             id="path3842"
             inkscape:connector-curvature="0" />
          <path
             inkscape:connector-curvature="0"
             id="path3844"
             d="m 99.910715,111.70147 -2.321429,0"
             style="fill:none;stroke:#000000;stroke-width:1px;stroke-linecap:butt;stroke-linejoin:miter;stroke-opacity:1" />
          <path
             style="fill:none;stroke:#000000;stroke-width:1px;stroke-linecap:butt;stroke-linejoin:miter;stroke-opacity:1"
             d="m 99.910715,109.70147 -2.321429,0"
             id="path3846"
             inkscape:connector-curvature="0" />
          <path
             inkscape:connector-curvature="0"
             id="path3848"
             d="m 99.910715,107.70147 -2.321429,0"
             style="fill:none;stroke:#000000;stroke-width:1px;stroke-linecap:butt;stroke-linejoin:miter;stroke-opacity:1" />
          <path
             style="fill:none;stroke:#000000;stroke-width:1px;stroke-linecap:butt;stroke-linejoin:miter;stroke-opacity:1"
             d="m 99.910715,105.70147 -2.321429,0"
             id="path3850"
             inkscape:connector-curvature="0" />
          <path
             inkscape:connector-curvature="0"
             id="path3852"
             d="m 99.910715,103.70147 -2.321429,0"
             style="fill:none;stroke:#000000;stroke-width:1px;stroke-linecap:butt;stroke-linejoin:miter;stroke-opacity:1" />
          <path
             style="fill:none;stroke:#000000;stroke-width:1px;stroke-linecap:butt;stroke-linejoin:miter;stroke-opacity:1"
             d="m 99.910715,101.70147 -2.321429,0"
             id="path3854"
             inkscape:connector-curvature="0" />
          <path
             inkscape:connector-curvature="0"
             id="path3856"
             d="m 99.910715,99.70147 -2.321429,0"
             style="fill:none;stroke:#000000;stroke-width:1px;stroke-linecap:butt;stroke-linejoin:miter;stroke-opacity:1" />
          <path
             style="fill:none;stroke:#000000;stroke-width:1px;stroke-linecap:butt;stroke-linejoin:miter;stroke-opacity:1"
             d="m 99.910715,97.70147 -2.321429,0"
             id="path3858"
             inkscape:connector-curvature="0" />
          <path
             inkscape:connector-curvature="0"
             id="path3860"
             d="m 99.910715,95.70147 -2.321429,0"
             style="fill:none;stroke:#000000;stroke-width:1px;stroke-linecap:butt;stroke-linejoin:miter;stroke-opacity:1" />
          <path
             style="fill:none;stroke:#000000;stroke-width:1px;stroke-linecap:butt;stroke-linejoin:miter;stroke-opacity:1"
             d="m 99.910715,93.70147 -2.321429,0"
             id="path3862"
             inkscape:connector-curvature="0" />
          <path
             inkscape:connector-curvature="0"
             id="path3864"
             d="m 99.910715,91.70147 -2.321429,0"
             style="fill:none;stroke:#000000;stroke-width:1px;stroke-linecap:butt;stroke-linejoin:miter;stroke-opacity:1" />
          <path
             style="fill:none;stroke:#000000;stroke-width:1px;stroke-linecap:butt;stroke-linejoin:miter;stroke-opacity:1"
             d="m 99.910715,89.70147 -2.321429,0"
             id="path3866"
             inkscape:connector-curvature="0" />
          <path
             inkscape:connector-curvature="0"
             id="path3868"
             d="m 99.910715,87.70147 -2.321429,0"
             style="fill:none;stroke:#000000;stroke-width:1px;stroke-linecap:butt;stroke-linejoin:miter;stroke-opacity:1" />
          <path
             style="fill:none;stroke:#000000;stroke-width:1px;stroke-linecap:butt;stroke-linejoin:miter;stroke-opacity:1"
             d="m 99.910715,85.70147 -2.321429,0"
             id="path3870"
             inkscape:connector-curvature="0" />
          <path
             inkscape:connector-curvature="0"
             id="path3872"
             d="m 99.910715,83.70147 -2.321429,0"
             style="fill:none;stroke:#000000;stroke-width:1px;stroke-linecap:butt;stroke-linejoin:miter;stroke-opacity:1" />
          <path
             style="fill:none;stroke:#000000;stroke-width:1px;stroke-linecap:butt;stroke-linejoin:miter;stroke-opacity:1"
             d="m 99.910715,81.70147 -2.321429,0"
             id="path3874"
             inkscape:connector-curvature="0" />
        </g>
      </g>
    </g>
  </g>
</svg>
