# Blender v242 OBJ File: house2.blend
# www.blender3d.org
mtllib house2.mtl
o Cube_Cube
v 91.583939 130.120819 -91.583939
v 91.583939 0.184509 -91.583939
v -91.583946 0.184526 -91.583939
v -91.583908 130.120865 -91.583939
v 91.583984 130.120773 91.583939
v 91.583878 0.184455 91.583939
v -91.583969 0.184542 91.583939
v -91.583931 130.120819 91.583939
v -102.104324 119.649132 102.104332
v 102.104378 119.649071 102.104332
v -102.104301 119.649170 -102.104332
v 102.104332 119.649124 -102.104332
v 33.752453 188.098083 -33.752438
v -33.752415 188.098099 -33.752438
v 33.752468 188.098068 33.752438
v -33.752419 188.098083 33.752438
v 20.000002 0.184498 91.583939
v -20.000010 0.184520 91.583939
v -20.000040 52.970020 91.583939
v 19.999949 52.999939 91.583939
v 17.070007 0.184509 91.583939
v -17.000019 0.184515 91.583939
v -17.000019 50.000027 91.583939
v 17.070045 50.000011 91.583939
v -20.000040 52.970020 94.471321
v 19.999949 52.999939 94.471321
v 17.070045 50.000011 94.471321
v -17.000019 50.000027 94.471321
v -17.000019 0.184515 94.471321
v 17.070007 0.184509 94.471321
v 19.999964 49.999977 94.471321
v -19.999935 50.000088 94.471321
v -20.000010 0.184520 94.471321
v 20.000002 0.184498 94.471321
v -35.005222 25.503618 94.471321
v -75.005249 25.503630 94.471321
v -75.005173 51.434063 94.471321
v -35.005260 51.434006 94.471321
v -37.935223 25.503624 94.471321
v -72.005249 25.503630 94.471321
v -72.005249 51.434032 94.471321
v -37.935184 51.434021 94.471321
v -35.005280 52.995575 94.471321
v -75.005272 52.980000 94.471321
v -75.005272 52.980000 91.583939
v -35.005280 52.995575 91.583939
v -37.935184 51.434021 91.583939
v -72.005249 51.434032 91.583939
v -72.005249 25.503630 91.583939
v -37.935223 25.503624 91.583939
v -35.005260 51.434006 91.583939
v -75.005249 25.503630 91.583939
v -35.005222 25.503618 91.583939
v 75.036354 25.503618 91.583939
v 35.036327 25.503630 91.583939
v 35.036308 52.980000 91.583939
v 75.036301 52.995575 91.583939
v 72.106361 25.503624 91.583939
v 38.036327 25.503630 91.583939
v 38.036327 51.434032 91.583939
v 72.106392 51.434021 91.583939
v 35.036308 52.980000 94.471321
v 75.036301 52.995575 94.471321
v 72.106392 51.434021 94.471321
v 38.036327 51.434032 94.471321
v 38.036327 25.503630 94.471321
v 72.106361 25.503624 94.471321
v 75.036324 51.434006 94.471321
v 35.036404 51.434063 94.471321
v 35.036327 25.503630 94.471321
v 75.036354 25.503618 94.471321
v 60.914310 73.395760 94.471321
v 20.914286 73.395767 94.471321
v 20.914362 99.326202 94.471321
v 60.914276 99.326141 94.471321
v 57.984318 73.395760 94.471321
v 23.914282 73.395767 94.471321
v 23.914282 99.326172 94.471321
v 57.984348 99.326157 94.471321
v 60.914257 100.887711 94.471321
v 20.914263 100.872139 94.471321
v 20.914263 100.872139 91.583939
v 60.914257 100.887711 91.583939
v 57.984348 99.326157 91.583939
v 23.914282 99.326172 91.583939
v 23.914282 73.395767 91.583939
v 57.984318 73.395760 91.583939
v 20.914286 73.395767 91.583939
v 60.914310 73.395760 91.583939
v -19.519928 73.395760 91.583939
v -59.519951 73.395767 91.583939
v -59.519974 100.872139 91.583939
v -19.519983 100.887711 91.583939
v -22.449923 73.395760 91.583939
v -56.519955 73.395767 91.583939
v -56.519955 99.326172 91.583939
v -22.449890 99.326157 91.583939
v -59.519974 100.872139 94.471321
v -19.519983 100.887711 94.471321
v -22.449890 99.326157 94.471321
v -56.519955 99.326172 94.471321
v -56.519955 73.395767 94.471321
v -22.449923 73.395760 94.471321
v -19.519962 99.326141 94.471321
v -59.519875 99.326202 94.471321
v -59.519951 73.395767 94.471321
v -19.519928 73.395760 94.471321
v -95.308968 73.395752 21.803877
v -95.308968 73.395767 61.803909
v -95.308968 99.326210 61.803833
v -95.308968 99.326149 21.803909
v -95.308968 73.395760 24.733868
v -95.308968 73.395767 58.803909
v -95.308968 99.326172 58.803909
v -95.308968 99.326164 24.733835
v -95.308968 100.887711 21.803930
v -95.308968 100.872139 61.803928
v -92.421585 100.872139 61.803928
v -92.421585 100.887711 21.803930
v -92.421585 99.326164 24.733835
v -92.421585 99.326172 58.803909
v -92.421585 73.395767 58.803909
v -92.421585 73.395760 24.733868
v -92.421585 99.326149 21.803909
v -92.421585 99.326210 61.803833
v -92.421585 73.395767 61.803909
v -92.421585 73.395752 21.803877
v -92.421585 73.395752 -58.490677
v -92.421585 73.395767 -18.490644
v -92.421585 99.326210 -18.490721
v -92.421585 99.326149 -58.490646
v -92.421585 73.395760 -55.560684
v -92.421585 73.395767 -21.490643
v -92.421585 99.326172 -21.490643
v -92.421585 99.326164 -55.560719
v -92.421585 100.887711 -58.490623
v -92.421585 100.872139 -18.490623
v -95.308968 100.872139 -18.490623
v -95.308968 100.887711 -58.490623
v -95.308968 99.326164 -55.560719
v -95.308968 99.326172 -21.490643
v -95.308968 73.395767 -21.490643
v -95.308968 73.395760 -55.560684
v -95.308968 99.326149 -58.490646
v -95.308968 99.326210 -18.490721
v -95.308968 73.395767 -18.490644
v -95.308968 73.395752 -58.490677
v -95.308968 25.545465 -58.490677
v -95.308968 25.545477 -18.490644
v -95.308968 51.475914 -18.490721
v -95.308968 51.475853 -58.490646
v -95.308968 25.545465 -55.560684
v -95.308968 25.545477 -21.490643
v -95.308968 51.475880 -21.490643
v -95.308968 51.475868 -55.560719
v -95.308968 53.037422 -58.490623
v -95.308968 53.021847 -18.490623
v -92.421585 53.021847 -18.490623
v -92.421585 53.037422 -58.490623
v -92.421585 51.475868 -55.560719
v -92.421585 51.475880 -21.490643
v -92.421585 25.545477 -21.490643
v -92.421585 25.545465 -55.560684
v -92.421585 51.475853 -58.490646
v -92.421585 51.475914 -18.490721
v -92.421585 25.545477 -18.490644
v -92.421585 25.545465 -58.490677
v -92.421585 25.545465 21.803877
v -92.421585 25.545477 61.803909
v -92.421585 51.475914 61.803833
v -92.421585 51.475853 21.803909
v -92.421585 25.545465 24.733868
v -92.421585 25.545477 58.803909
v -92.421585 51.475880 58.803909
v -92.421585 51.475868 24.733835
v -92.421585 53.037422 21.803930
v -92.421585 53.021847 61.803928
v -95.308968 53.021847 61.803928
v -95.308968 53.037422 21.803930
v -95.308968 51.475868 24.733835
v -95.308968 51.475880 58.803909
v -95.308968 25.545477 58.803909
v -95.308968 25.545465 24.733868
v -95.308968 51.475853 21.803909
v -95.308968 51.475914 61.803833
v -95.308968 25.545477 61.803909
v -95.308968 25.545465 21.803877
v 94.476685 25.545460 21.803879
v 94.476685 25.545471 61.803913
v 94.476685 51.475910 61.803837
v 94.476685 51.475849 21.803911
v 94.476685 25.545460 24.733871
v 94.476685 25.545471 58.803917
v 94.476685 51.475876 58.803917
v 94.476685 51.475864 24.733839
v 94.476685 53.037418 21.803934
v 94.476685 53.021843 61.803936
v 91.589302 53.021843 61.803936
v 91.589302 53.037418 21.803934
v 91.589302 51.475864 24.733839
v 91.589302 51.475876 58.803917
v 91.589302 25.545471 58.803917
v 91.589302 25.545460 24.733871
v 91.589302 51.475849 21.803911
v 91.589302 51.475910 61.803837
v 91.589302 25.545471 61.803913
v 91.589302 25.545460 21.803879
v 91.589302 25.545460 -58.490685
v 91.589302 25.545471 -18.490648
v 91.589302 51.475910 -18.490725
v 91.589302 51.475849 -58.490650
v 91.589302 25.545460 -55.560688
v 91.589302 25.545471 -21.490646
v 91.589302 51.475876 -21.490646
v 91.589302 51.475864 -55.560722
v 91.589302 53.037418 -58.490627
v 91.589302 53.021843 -18.490625
v 94.476685 53.021843 -18.490625
v 94.476685 53.037418 -58.490627
v 94.476685 51.475864 -55.560722
v 94.476685 51.475876 -21.490646
v 94.476685 25.545471 -21.490646
v 94.476685 25.545460 -55.560688
v 94.476685 51.475849 -58.490650
v 94.476685 51.475910 -18.490725
v 94.476685 25.545471 -18.490648
v 94.476685 25.545460 -58.490685
v 94.476685 73.395752 -58.490685
v 94.476685 73.395767 -18.490648
v 94.476685 99.326210 -18.490725
v 94.476685 99.326149 -58.490650
v 94.476685 73.395760 -55.560688
v 94.476685 73.395767 -21.490646
v 94.476685 99.326180 -21.490646
v 94.476685 99.326164 -55.560722
v 94.476685 100.887718 -58.490627
v 94.476685 100.872147 -18.490625
v 91.589302 100.872147 -18.490625
v 91.589302 100.887718 -58.490627
v 91.589302 99.326164 -55.560722
v 91.589302 99.326180 -21.490646
v 91.589302 73.395767 -21.490646
v 91.589302 73.395760 -55.560688
v 91.589302 99.326149 -58.490650
v 91.589302 99.326210 -18.490725
v 91.589302 73.395767 -18.490648
v 91.589302 73.395752 -58.490685
v 91.589302 73.395752 21.803879
v 91.589302 73.395767 61.803913
v 91.589302 99.326210 61.803837
v 91.589302 99.326149 21.803911
v 91.589302 73.395760 24.733871
v 91.589302 73.395767 58.803917
v 91.589302 99.326180 58.803917
v 91.589302 99.326164 24.733839
v 91.589302 100.887718 21.803934
v 91.589302 100.872147 61.803936
v 94.476685 100.872147 61.803936
v 94.476685 100.887718 21.803934
v 94.476685 99.326164 24.733839
v 94.476685 99.326180 58.803917
v 94.476685 73.395767 58.803917
v 94.476685 73.395760 24.733871
v 94.476685 99.326149 21.803911
v 94.476685 99.326210 61.803837
v 94.476685 73.395767 61.803913
v 94.476685 73.395752 21.803879
vt 0.000576 0.391477 0.0
vt 0.000576 0.078668 0.0
vt 0.313386 0.078668 0.0
vt 0.313386 0.391477 0.0
vt 0.001319 0.389794 0.0
vt 0.001319 0.078863 0.0
vt 0.314468 0.078863 0.0
vt 0.314468 0.389794 0.0
vt 0.188405 0.386258 0.0
vt 0.005959 0.086767 0.0
vt 0.305450 0.086767 0.0
vt 0.305450 0.386258 0.0
vt 0.123003 0.386258 0.0
vt 0.005959 0.386258 0.0
vt 0.183615 0.386258 0.0
vt 0.127908 0.386258 0.0
vt 0.341313 0.532241 0.0
vt 0.341313 0.320729 0.0
vt 0.552826 0.320729 0.0
vt 0.552826 0.532241 0.0
vt 0.314631 0.391247 0.0
vt 0.262093 0.321621 0.0
vt 0.262093 0.256142 0.0
vt 0.286285 0.207554 0.0
vt 0.286285 0.142075 0.0
vt 0.314631 0.081771 0.0
vt 0.281266 0.142075 0.0
vt 0.192006 0.081771 0.0
vt 0.222903 0.142075 0.0
vt 0.217764 0.142075 0.0
vt 0.217764 0.207517 0.0
vt 0.192006 0.207564 0.0
vt 0.257074 0.256142 0.0
vt 0.198711 0.256142 0.0
vt 0.193572 0.256142 0.0
vt 0.124307 0.256142 0.0
vt 0.124307 0.321621 0.0
vt 0.193572 0.321584 0.0
vt 0.000859 0.391247 0.0
vt 0.029259 0.207517 0.0
vt 0.055786 0.256142 0.0
vt 0.055786 0.321584 0.0
vt 0.000859 0.081771 0.0
vt 0.029259 0.142075 0.0
vt 0.092761 0.142075 0.0
vt 0.034398 0.142075 0.0
vt 0.123485 0.081771 0.0
vt 0.097780 0.142075 0.0
vt 0.123485 0.207493 0.0
vt 0.097780 0.207554 0.0
vt 0.060925 0.256142 0.0
vt 0.119288 0.256142 0.0
vt 0.000932 0.389810 0.0
vt 0.000932 0.079188 0.0
vt 0.312860 0.079188 0.0
vt 0.312860 0.389810 0.0
vt 0.356385 0.517170 0.0
vt 0.356385 0.329919 0.0
vt 0.543635 0.329919 0.0
vt 0.543635 0.517170 0.0
vt 0.009373 0.582910 0.0
vt 0.009373 0.403385 0.0
vt 0.188898 0.403385 0.0
vt 0.188898 0.582910 0.0
vt 0.000000 1.000000 0.0
vt 0.000000 0.927268 0.0
vt 0.480469 0.927268 0.0
vt 0.480469 1.000000 0.0
vt 0.000000 0.921630 0.0
vt 0.480469 0.921630 0.0
vt 0.000000 0.930087 0.0
vt 0.480469 0.930087 0.0
vt 0.000000 0.586170 0.0
vt 0.480469 0.586170 0.0
vt 0.473978 0.591760 0.0
vt 0.473978 0.994410 0.0
vt 0.006490 0.994410 0.0
vt 0.006490 0.591760 0.0
vt 0.338947 0.530642 0.0
vt 0.338947 0.309621 0.0
vt 0.559968 0.309621 0.0
vt 0.559968 0.530642 0.0
vt 0.354515 0.516098 0.0
vt 0.354515 0.325109 0.0
vt 0.545504 0.325109 0.0
vt 0.545504 0.516098 0.0
vt 0.337984 0.535247 0.0
vt 0.337984 0.300296 0.0
vt 0.572935 0.300296 0.0
vt 0.572935 0.535247 0.0
vt 1.000000 0.101484 0.0
vt 1.000000 1.000000 0.0
vt 0.597626 1.000000 0.0
vt 0.597626 0.101484 0.0
vn 0.000000 0.000000 -1.000000
vn 1.000000 -0.000000 0.000000
vn -0.000000 -1.000000 -0.000000
vn -0.000001 -1.000000 -0.000000
vn -0.000004 -1.000000 0.000002
vn -0.000002 -1.000000 0.000001
vn 0.000000 -1.000000 0.000003
vn 0.000000 0.000000 1.000000
vn -1.000000 0.000000 -0.000000
vn 0.000000 0.706931 0.707266
vn -0.579455 0.576159 0.576403
vn -0.709037 0.000000 0.705130
vn 0.000000 0.708745 0.705464
vn -0.705464 0.708745 0.000000
vn 0.705465 0.708745 0.000000
vn 0.000000 0.708745 -0.705464
vn 0.000000 0.706216 -0.707996
vn 0.707996 0.706216 -0.000000
vn -0.707996 0.706216 0.000000
vn 0.000000 0.706216 0.707996
vn 0.000000 1.000000 0.000000
vn -1.000000 0.000001 0.000000
vn -0.000002 -1.000000 0.000000
vn -0.000004 -1.000000 0.000000
vn 1.000000 0.000001 -0.000002
vn -1.000000 0.000000 0.000018
vn -1.000000 0.000001 0.000017
vn 1.000000 0.000001 0.000000
vn 1.000000 0.000002 -0.000004
vn 1.000000 0.000002 -0.000003
vn 0.000000 0.000003 1.000000
vn 0.000000 0.000001 -1.000000
vn 0.000000 0.000001 1.000000
vn -0.575457 0.574999 0.581530
vn -0.705130 0.000000 0.709037
vn -0.576525 0.576067 0.579424
vn 0.574969 0.575396 0.581652
vn 0.577105 0.577532 0.577380
vn 0.705130 0.000000 0.709037
vn 0.577349 -0.577349 0.577349
vn -0.577349 -0.577349 0.577349
vn -0.575182 -0.575182 0.581591
vn 0.576250 -0.576281 0.579455
vn 0.577197 0.577441 0.577349
vn -0.576403 0.576159 0.579455
vn 0.409497 0.810511 0.418714
vn -0.575335 0.575091 0.581561
vn -0.574267 0.574023 0.583667
vn 0.575060 0.575304 0.581622
vn 0.576128 0.576373 0.579485
vn -0.576403 0.576159 0.579424
vn -0.709037 0.000000 -0.705130
vn -0.581591 -0.575182 0.575182
vn -0.577349 0.577441 -0.577197
vn -0.579455 -0.576281 -0.576281
vn -0.577349 -0.577349 -0.577349
vn 0.000000 0.707236 -0.706961
vn 0.000000 0.706931 0.707236
vn -0.579455 -0.576281 -0.576250
vn 0.709037 0.000000 -0.705130
vn 0.577349 0.577441 -0.577197
vn 0.579455 0.576159 0.576403
vn 0.581591 -0.575182 0.575182
vn 0.709037 0.000000 0.705130
vn 0.579455 -0.576281 -0.576250
vn 0.577349 -0.577349 -0.577349
vn 0.000000 -0.000031 1.000000
usemtl Paredes_house1.png
usemat house1.png
s off
f 1/1/1 2/2/1 3/3/1 4/4/1
f 1/5/2 5/6/2 6/7/2 2/8/2
f 17/9/3 3/10/3 2/11/3
f 6/12/4 17/9/4 2/11/4
f 18/13/3 7/14/3 3/10/3
f 17/9/5 21/15/5 3/10/5
f 21/15/3 22/16/3 3/10/3
f 22/16/6 18/13/6 3/10/6
f 132/17/7 143/18/7 147/19/7 128/20/7
f 5/21/8 83/22/8 89/23/8 57/24/8
f 5/21/8 57/24/8 54/25/8 6/26/8
f 6/26/8 54/25/8 58/27/8 17/28/8
f 17/28/8 58/27/8 59/29/8 55/30/8
f 17/28/8 55/30/8 56/31/8 20/32/8
f 56/31/8 57/24/8 89/23/8 87/33/8
f 56/31/8 87/33/8 86/34/8 88/35/8
f 20/32/8 56/31/8 88/35/8 90/36/8
f 5/21/8 93/37/8 82/38/8 83/22/8
f 90/36/8 88/35/8 82/38/8 93/37/8
f 8/39/8 45/40/8 91/41/8 92/42/8
f 7/43/8 52/44/8 45/40/8 8/39/8
f 7/43/8 50/45/8 49/46/8 52/44/8
f 7/43/8 18/47/8 53/48/8 50/45/8
f 18/47/8 19/49/8 46/50/8 53/48/8
f 45/40/8 46/50/8 95/51/8 91/41/8
f 19/49/8 94/52/8 95/51/8 46/50/8
f 90/36/8 94/52/8 19/49/8 20/32/8
f 5/21/8 8/39/8 92/42/8 93/37/8
f 3/53/9 7/54/9 8/55/9 4/56/9
s 1
f 158/57/10 157/58/11 150/59/12 165/60/8
usemtl Janelas_house1.png
usemat house1.png
s off
f 50/61/8 47/62/8 48/63/8 49/64/8
f 58/61/8 61/62/8 60/63/8 59/64/8
f 87/61/8 84/62/8 85/63/8 86/64/8
f 94/61/8 97/62/8 96/63/8 95/64/8
f 123/61/9 122/62/9 121/63/9 120/64/9
f 132/61/9 133/62/9 134/63/9 135/64/9
f 163/61/9 162/62/9 161/63/9 160/64/9
f 172/61/9 173/62/9 174/63/9 175/64/9
f 203/61/2 200/62/2 201/63/2 202/64/2
f 212/61/2 215/62/2 214/63/2 213/64/2
f 243/61/2 240/62/2 241/63/2 242/64/2
f 252/61/2 255/62/2 254/63/2 253/64/2
usemtl Telhado_house1.png
usemat house1.png
f 8/65/13 9/66/13 10/67/13 5/68/13
f 4/65/14 11/69/14 9/70/14 8/68/14
f 12/65/15 1/71/15 5/72/15 10/68/15
f 1/65/16 12/66/16 11/67/16 4/68/16
f 13/65/17 1/73/17 4/74/17 14/68/17
f 1/65/18 13/73/18 15/74/18 5/68/18
f 8/65/19 16/73/19 14/74/19 4/68/19
f 5/75/20 15/76/20 16/77/20 8/78/20
f 13/65/21 14/73/21 16/74/21 15/68/21
usemtl Beiras_house1.png
usemat house1.png
f 24/79/22 21/80/22 30/81/22 27/82/22
f 22/79/2 23/80/2 28/81/2 29/82/2
f 22/83/3 21/84/3 30/85/3 29/86/3
f 18/83/23 22/84/23 29/85/23 33/86/23
f 21/83/24 17/84/24 34/85/24 30/86/24
f 17/79/25 20/80/25 31/81/25 34/82/25
f 19/79/26 18/80/26 33/81/26 32/82/26
f 33/79/8 29/80/8 28/81/8 32/82/8
f 34/79/8 31/80/8 27/81/8 30/82/8
f 35/79/8 38/80/8 42/81/8 39/82/8
f 36/79/8 40/80/8 41/81/8 37/82/8
f 45/79/27 52/80/27 36/81/27 37/82/27
f 53/79/28 51/80/28 38/81/28 35/82/28
f 50/79/23 53/80/23 35/81/23 39/82/23
f 52/79/3 49/80/3 40/81/3 36/82/3
f 49/79/3 50/80/3 39/81/3 40/82/3
f 49/79/2 48/80/2 41/81/2 40/82/2
f 47/79/22 50/80/22 39/81/22 42/82/22
f 61/79/22 58/80/22 67/81/22 64/82/22
f 59/79/2 60/80/2 65/81/2 66/82/2
f 59/79/3 58/80/3 67/81/3 66/82/3
f 55/79/3 59/80/3 66/81/3 70/82/3
f 58/79/23 54/80/23 71/81/23 67/82/23
f 54/79/29 57/80/29 68/81/29 71/82/29
f 56/79/27 55/80/27 70/81/27 69/82/27
f 70/79/8 66/80/8 65/81/8 69/82/8
f 71/79/8 68/80/8 64/81/8 67/82/8
f 72/79/8 75/80/8 79/81/8 76/82/8
f 73/79/8 77/80/8 78/81/8 74/82/8
f 82/79/27 88/80/27 73/81/27 74/82/27
f 89/79/30 83/80/30 75/81/30 72/82/30
f 87/79/3 89/80/3 72/81/3 76/82/3
f 88/79/3 86/80/3 77/81/3 73/82/3
f 86/79/3 87/80/3 76/81/3 77/82/3
f 86/79/2 85/80/2 78/81/2 77/82/2
f 84/79/22 87/80/22 76/81/22 79/82/22
f 97/79/22 94/80/22 103/81/22 100/82/22
f 95/79/2 96/80/2 101/81/2 102/82/2
f 95/79/3 94/80/3 103/81/3 102/82/3
f 91/79/3 95/80/3 102/81/3 106/82/3
f 94/79/3 90/80/3 107/81/3 103/82/3
f 90/79/30 93/80/30 104/81/30 107/82/30
f 92/79/27 91/80/27 106/81/27 105/82/27
f 106/79/8 102/80/8 101/81/8 105/82/8
f 107/79/8 104/80/8 100/81/8 103/82/8
f 108/17/9 112/18/9 115/19/9 111/20/9
f 109/17/9 110/18/9 114/19/9 113/20/9
f 125/57/31 110/58/31 109/59/31 126/60/31
f 127/17/32 108/18/32 111/19/32 124/20/32
f 123/17/7 112/18/7 108/19/7 127/20/7
f 126/17/3 109/18/3 113/19/3 122/20/3
f 122/17/3 113/18/3 112/19/3 123/20/3
f 122/17/1 113/18/1 114/19/1 121/20/1
f 120/57/33 115/58/33 112/59/33 123/60/33
f 135/57/33 140/58/33 143/59/33 132/60/33
f 133/17/1 142/18/1 141/19/1 134/20/1
f 133/17/3 142/18/3 143/19/3 132/20/3
f 129/17/3 146/18/3 142/19/3 133/20/3
f 128/17/32 147/18/32 144/19/32 131/20/32
f 130/57/31 145/58/31 146/59/31 129/60/31
f 146/17/9 145/18/9 141/19/9 142/20/9
f 147/17/9 143/18/9 140/19/9 144/20/9
f 148/17/9 152/18/9 155/19/9 151/20/9
f 149/17/9 150/18/9 154/19/9 153/20/9
f 165/57/31 150/58/31 149/59/31 166/60/31
f 167/17/32 148/18/32 151/19/32 164/20/32
f 163/17/3 152/18/3 148/19/3 167/20/3
f 166/17/3 149/18/3 153/19/3 162/20/3
f 162/17/3 153/18/3 152/19/3 163/20/3
f 162/17/1 153/18/1 154/19/1 161/20/1
f 160/57/33 155/58/33 152/59/33 163/60/33
f 175/57/33 180/58/33 183/59/33 172/60/33
f 173/17/1 182/18/1 181/19/1 174/20/1
f 173/17/3 182/20/3 183/19/3 172/18/3
f 169/17/3 186/18/3 182/19/3 173/20/3
f 172/17/3 183/18/3 187/19/3 168/20/3
f 168/17/32 187/18/32 184/19/32 171/20/32
f 170/57/31 185/58/31 186/59/31 169/60/31
f 186/17/9 185/18/9 181/19/9 182/20/9
f 187/17/9 183/18/9 180/19/9 184/20/9
f 188/87/2 191/88/2 195/89/2 192/90/2
f 189/87/2 193/88/2 194/89/2 190/90/2
f 205/87/31 206/88/31 189/89/31 190/90/31
f 207/87/32 204/88/32 191/89/32 188/90/32
f 203/87/3 207/88/3 188/89/3 192/90/3
f 206/87/3 202/88/3 193/89/3 189/90/3
f 202/87/3 203/88/3 192/89/3 193/90/3
f 202/87/1 201/88/1 194/89/1 193/90/1
f 200/87/33 203/90/33 192/89/33 195/88/33
f 215/87/33 212/88/33 223/89/33 220/90/33
f 213/87/1 214/88/1 221/89/1 222/90/1
f 213/87/3 212/88/3 223/89/3 222/90/3
f 209/87/3 213/88/3 222/89/3 226/90/3
f 212/87/3 208/88/3 227/89/3 223/90/3
f 208/87/32 211/88/32 224/89/32 227/90/32
f 210/87/31 209/88/31 226/89/31 225/90/31
f 226/87/2 222/88/2 221/89/2 225/90/2
f 227/87/2 224/88/2 220/89/2 223/90/2
f 228/87/2 231/88/2 235/89/2 232/90/2
f 229/87/2 233/88/2 234/89/2 230/90/2
f 245/87/31 246/90/31 229/89/31 230/88/31
f 247/87/32 244/88/32 231/89/32 228/90/32
f 243/87/7 247/88/7 228/89/7 232/90/7
f 246/87/3 242/88/3 233/89/3 229/90/3
f 242/87/3 243/88/3 232/89/3 233/90/3
f 242/87/1 241/90/1 234/89/1 233/88/1
f 240/87/33 243/88/33 232/89/33 235/90/33
f 255/87/33 252/88/33 263/89/33 260/90/33
f 253/87/1 254/88/1 261/89/1 262/90/1
f 253/87/3 252/88/3 263/89/3 262/90/3
f 249/87/3 253/88/3 262/89/3 266/90/3
f 252/87/7 248/88/7 267/89/7 263/90/7
f 248/87/32 251/88/32 264/89/32 267/90/32
f 250/87/31 249/88/31 266/89/31 265/90/31
f 266/87/2 262/88/2 261/89/2 265/90/2
f 267/87/2 264/88/2 260/89/2 263/90/2
s 1
f 19/79/34 32/80/35 25/81/36
f 20/79/37 19/80/34 25/81/36 26/82/38
f 20/79/37 26/80/38 31/81/39
f 23/79/40 24/80/41 27/81/42 28/82/43
f 32/79/35 28/80/43 27/81/42 25/82/36
f 31/79/39 26/80/38 25/81/36 27/82/42
f 38/79/39 43/80/44 44/81/45 42/82/42
f 37/79/35 41/80/43 42/81/42 44/82/45
f 48/79/40 47/82/41 42/81/42 41/80/43
f 51/79/2 46/80/46 43/81/44 38/82/39
f 46/79/46 45/80/47 44/81/45 43/82/44
f 45/79/47 37/80/35 44/81/45
f 56/79/48 69/80/35 62/81/45
f 57/79/49 56/80/48 62/81/45 63/82/44
f 57/79/49 63/80/44 68/81/39
f 60/79/40 61/80/41 64/81/42 65/82/43
f 69/79/35 65/80/43 64/81/42 62/82/45
f 68/79/39 63/80/44 62/81/45 64/82/42
f 75/79/39 80/80/44 81/81/45 79/82/42
f 74/79/35 78/80/43 79/81/42 81/82/45
f 85/79/40 84/80/41 79/81/42 78/82/43
f 83/79/50 80/80/44 75/81/39
f 83/79/50 82/80/51 81/81/45 80/82/44
f 82/79/51 74/80/35 81/81/45
f 92/79/51 105/80/35 98/81/45
f 93/79/49 92/80/51 98/81/45 99/82/44
f 93/79/49 99/80/44 104/81/39
f 96/79/40 97/80/41 100/81/42 101/82/43
f 105/79/35 101/80/43 100/81/42 98/82/45
f 104/79/39 99/80/44 98/81/45 100/82/42
f 111/17/52 115/18/53 117/19/11 116/20/54
f 110/17/12 117/18/11 115/19/53 114/20/55
f 121/17/56 114/20/55 115/19/53 120/18/41
f 124/17/1 111/18/52 116/19/54 119/20/57
f 119/17/57 116/20/54 117/19/11 118/18/58
f 118/57/58 117/58/11 110/59/12 125/60/8
f 137/57/10 138/58/11 145/59/12 130/60/8
f 136/17/57 139/18/54 138/19/11 137/20/10
f 131/17/1 144/18/52 139/19/54 136/20/57
f 134/17/56 141/18/59 140/19/53 135/20/41
f 145/17/12 138/18/11 140/19/53 141/20/59
f 144/17/52 140/18/53 138/19/11 139/20/54
f 151/17/52 155/18/53 157/19/11 156/20/54
f 150/17/12 157/18/11 155/19/53 154/20/59
f 161/17/56 154/20/59 155/19/53 160/18/41
f 164/17/1 151/18/52 156/19/54 159/20/57
f 159/17/57 156/18/54 157/19/11 158/20/10
f 177/57/58 178/58/11 185/59/12 170/60/8
f 176/17/57 179/18/54 178/19/11 177/20/58
f 171/17/1 184/18/52 179/19/54 176/20/57
f 174/17/56 181/18/59 180/19/53 175/20/41
f 185/17/12 178/18/11 180/19/53 181/20/59
f 184/17/52 180/18/53 178/19/11 179/20/54
f 191/87/60 196/88/61 197/89/62 195/90/63
f 190/87/64 194/88/65 195/89/63 197/90/62
f 201/87/66 200/90/40 195/89/63 194/88/65
f 204/87/1 199/88/57 196/89/61 191/90/60
f 199/87/57 198/88/10 197/89/62 196/90/61
f 198/87/10 205/88/67 190/89/64 197/90/62
f 217/87/10 210/88/67 225/89/64 218/90/62
f 216/87/57 217/88/10 218/89/62 219/90/61
f 211/87/1 216/88/57 219/89/61 224/90/60
f 214/87/66 215/88/40 220/89/63 221/90/65
f 225/87/64 221/88/65 220/89/63 218/90/62
f 224/87/60 219/88/61 218/89/62 220/90/63
f 231/87/60 236/88/61 237/89/62 235/90/63
f 230/87/64 234/88/65 235/89/63 237/90/62
f 241/87/66 240/90/40 235/89/63 234/88/65
f 244/87/1 239/88/57 236/89/61 231/90/60
f 239/87/57 238/88/10 237/89/62 236/90/61
f 238/87/10 245/88/67 230/89/64 237/90/62
f 257/87/10 250/88/67 265/89/64 258/90/62
f 256/87/57 257/88/10 258/89/62 259/90/61
f 251/87/1 256/90/57 259/89/61 264/88/60
f 254/87/66 255/88/40 260/89/63 261/90/65
f 265/87/64 261/88/65 260/89/63 258/90/62
f 264/87/60 259/88/61 258/89/62 260/90/63
usemtl Porta_house1.png
usemat house1.png
s off
f 21/91/8 24/92/8 23/93/8 22/94/8
